<svg xmlns="http://www.w3.org/2000/svg" x="0px" y="0px" viewBox="0 0 385.94 500" style="enable-background:new 0 0 385.94 500;"><style type="text/css"> .st0{fill:#FFFFFF;} </style><g><path d="M283.86,197.06c0.17,0.12,0.27,0.31,0.28,0.51c0.04,0.92,0.24,1.57,0.65,2.1c0.49,0.63,1.04,1.14,1.63,1.69 c0.35,0.32,0.68,0.63,0.96,0.93c0.08,0.09,0.13,0.19,0.16,0.3l0.05,0.23c0.04,0.19,0.08,0.36,0.12,0.5l0.19,0.62l0.6,0.25 c0.49,0.21,0.98,0.41,1.49,0.61c1.08,0.43,2.11,0.84,3.05,1.36c0.32,0.17,0.64,0.31,0.96,0.4c0.35,0.1,0.7,0.15,1.04,0.15 c0.06,0,0.13,0,0.19-0.01c0.83-0.05,1.57-0.4,2.14-1.04c0.78-0.86,1.12-2.04,1.38-3.17c0.21-0.94-0.01-1.92-0.16-2.57 c-0.14-0.61-0.31-1.22-0.49-1.87c-0.17-0.59-0.34-1.21-0.48-1.83c-0.21-0.95-0.39-1.9-0.58-2.86c-0.16-0.85-0.32-1.69-0.51-2.54 c-0.13-0.6-0.53-0.95-0.83-1.2c-0.05-0.05-0.11-0.1-0.17-0.16l-1.13-1.17l-1,1.31c-0.11,0.14-0.27,0.24-0.45,0.26 c-0.02,0-0.05,0-0.07,0c-0.15,0-0.3-0.05-0.42-0.15c-0.78-0.65-1.67-1.12-2.64-1.4c-0.78-0.23-1.65-0.35-2.58-0.35 c-0.22,0-0.44,0.01-0.67,0.02c-0.34,0.02-0.68,0.05-1.02,0.1c-2.03,0.26-2.59,1.87-2.89,2.74c-0.05,0.13-0.12,0.32-0.17,0.44 c-0.04,0.1-0.11,0.19-0.2,0.26l-1.04,0.81l0.93,1.08c0.14,0.16,0.19,0.37,0.15,0.57C281.99,195.49,282.97,196.41,283.86,197.06z"/><path d="M348.58,192.3l-0.45-0.24c-0.3-0.16-0.43-0.51-0.31-0.82c0.45-1.19,0.11-2.47-0.1-3.24c-0.11-0.4-0.17-0.68-0.2-0.86 c-0.02-0.14,0-0.28,0.06-0.4l0.27-0.52c0.07-0.14,0.19-0.25,0.33-0.31l0.9-0.38l-0.24-0.24c-0.14-0.14-0.21-0.34-0.19-0.54 l-0.15-0.02c-0.15-0.02-0.29-0.08-0.4-0.19l-0.29-0.29c-0.15-0.15-0.22-0.37-0.19-0.59l0.12-0.67c0.48-2.71-0.57-4.85-1.42-6.57 l-0.05-0.09c-0.17-0.35-0.34-0.69-0.47-1.01c-0.05-0.12-0.06-0.26-0.04-0.4c0.04-0.17,0.08-0.33,0.12-0.5 c0.19-0.8,0.36-1.56,0.21-2.4c-0.18-1-0.54-1.91-0.89-2.79l-0.07-0.18c-0.11-0.28-0.02-0.6,0.22-0.78l0.06-0.05l-0.6-1.22 c-0.24-0.48-0.53-0.97-0.85-1.51c-0.66-1.09-0.97-1.69-0.97-2.14c0.01-1.65-0.45-2.85-1.41-3.68c-0.15-0.13-0.24-0.33-0.23-0.54 c0.09-1.85-0.88-3.2-1.61-4.05c-0.12-0.15-0.18-0.34-0.15-0.53c0.03-0.19,0.13-0.36,0.29-0.46l1.76-1.15l-1.48-0.38 c-0.06-0.02-0.12-0.04-0.17-0.07l-2.13-1.26c-0.21-0.12-0.33-0.34-0.33-0.58c0.01-0.84-0.01-1.65-0.39-2.46 c-0.82-1.75-1.94-3.39-2.93-4.83c-0.4-0.59-0.86-1.09-1.37-1.64c-0.26-0.29-0.54-0.58-0.78-0.91c-0.23-0.3-0.43-0.69-0.67-1.14 c-0.08-0.16-0.17-0.33-0.26-0.49c-0.04-0.07-0.06-0.15-0.07-0.23c-0.04-0.3-0.14-0.57-0.3-0.81c-0.27-0.4-0.59-0.72-0.94-1.07 c-0.13-0.13-0.26-0.26-0.36-0.4c-0.31-0.46-0.59-0.95-0.92-1.52c-0.63-1.1-1.28-2.23-2.23-3.21c-0.49-0.5-0.78-1.11-1.11-1.82 c-0.23-0.49-0.43-0.9-0.67-1.3c-0.87-1.47-2.08-2.67-3.16-3.74c-0.46-0.46-0.97-0.81-1.42-1.12c-0.23-0.16-0.33-0.44-0.27-0.71 c0.01-0.04,0.13-0.54,0.22-0.89l-1.55-1.73c-0.68-0.76-1.43-1.6-2.19-2.43c-0.49-0.53-0.99-1.05-1.51-1.6l-0.3-0.32 c-0.83-0.86-1.68-1.75-2.49-2.67c-0.4-0.45-0.78-1.01-1.15-1.54c-0.84-1.22-1.79-2.6-3.25-3.33c-0.74-0.37-1.24-1.01-1.82-1.75 c-0.57-0.73-1.28-1.64-2.33-2.31c-0.68-0.44-1.32-1.06-2.01-1.73c-1.05-1.03-2.25-2.19-3.89-2.87c-0.11-0.04-0.2-0.12-0.27-0.21 c-0.03-0.04-0.06-0.08-0.1-0.12c-0.18-0.21-0.36-0.43-0.54-0.64c-0.44-0.54-0.93-1.14-1.54-1.67c-0.52-0.46-1.11-0.81-1.67-1.15 c-0.25-0.15-0.5-0.3-0.74-0.47c-0.5-0.36-0.99-0.72-1.48-1.09l-0.26-0.19c-1.11-0.83-2.26-1.69-3.49-2.44 c-0.34-0.21-0.67-0.42-1.05-0.67l-0.06-0.04c-1.25-0.82-2.55-1.67-4.19-2.15l-0.13-0.04c-0.1-0.03-0.19-0.08-0.26-0.14 c-0.17-0.15-0.43-0.45-0.68-0.75c-0.44-0.53-0.98-1.18-1.7-1.63c-2.83-1.76-5.69-3.3-8.38-4.73c-1.16-0.61-2.33-1.18-3.47-1.72 c-1.18-0.56-2.4-1.14-3.58-1.78c-1.9-1.02-3.82-2.1-5.68-3.15c-2.05-1.15-4.16-2.34-6.31-3.48c-2.22-1.18-4.58-2.26-6.88-3.32 L243.82,68c-0.68-0.31-1.38-0.58-2.12-0.86c-0.52-0.2-1.11-0.42-1.68-0.68c-0.33-0.15-0.64-0.34-1.05-0.58 c-0.62-0.37-1.32-0.8-2.12-1.03c-0.17-0.05-0.35-0.09-0.53-0.12c-0.3-0.05-0.59-0.09-0.93-0.13c-0.29-0.04-0.52-0.26-0.57-0.54 l-0.02-0.09l-1.84-0.65c-0.41-0.14-0.74-0.26-1.07-0.39c-0.33-0.13-0.65-0.28-1.03-0.44c-0.64-0.28-1.31-0.57-2.02-0.8 c-0.42-0.13-0.82-0.3-1.31-0.51c-0.55-0.23-1.17-0.49-1.82-0.68c-0.71-0.21-1.37-0.31-2.01-0.31c-0.12,0-0.24,0-0.35,0.01 c-0.21,0.01-0.42,0.03-0.62,0.07c-0.04,0.01-0.07,0.01-0.11,0.01c-0.04,0-0.08,0-0.12-0.01c-0.08-0.01-0.18-0.04-0.32-0.07 c-0.21-0.05-0.43-0.1-0.64-0.13l-1.75-0.25l-0.04,0.55c-0.01,0.2-0.12,0.38-0.28,0.5c-1.82,1.26-3.77,2.65-5.95,4.24 c-0.03,0.09-0.08,0.18-0.15,0.25l-1.71,1.82c-0.11,0.12-0.27,0.19-0.43,0.21l-0.25,0.02l-0.64,0.69c-1.18,1.27-2.41,2.58-3.57,4 c-0.39,0.48-0.71,1-1,1.49c-0.33,0.56-0.68,1.14-1.07,1.46c-1.97,1.64-2.85,3.6-2.69,5.98c0.03,0.46,0.14,0.9,0.23,1.25l0.02,0.07 c0.04,0.15,0.09,0.35,0.11,0.49c0.03,0.15,0,0.3-0.07,0.44c-0.08,0.14-0.19,0.29-0.3,0.42c-0.03,0.04-0.09,0.08-0.13,0.11 c-0.18,0.13-0.43,0.31-0.65,0.56c-0.63,0.72-1.23,1.46-1.8,2.15l-0.74,0.9l-0.08,0.3c-0.09,0.32-0.16,0.64-0.24,0.96 c-0.16,0.66-0.31,1.28-0.52,1.85c-0.15,0.41-0.39,0.84-0.68,1.34c-0.13,0.22-0.26,0.45-0.42,0.74c-0.49,0.84-0.99,1.72-1.34,2.68 c-0.48,1.33-0.94,2.77-1.44,4.52c-0.47,1.64-0.92,3.38-1.43,5.47c-0.11,0.44-0.15,0.89-0.19,1.32l-0.06,0.69 c-0.01,0.14-0.07,0.27-0.16,0.37c-0.73,0.84-0.81,1.82-0.87,2.54c-0.02,0.21-0.03,0.35-0.04,0.43c-0.03,0.21-0.15,0.4-0.34,0.51 l-0.48,0.26l-0.12,0.67c-0.07,0.41,0.06,1.01,0.32,1.47c0.11,0.19,0.12,0.41,0.03,0.61l-0.15,0.34c-0.08,0.19-0.15,0.39-0.24,0.66 c-0.02,0.08-0.05,0.17-0.1,0.26c-0.16,0.31-0.33,0.62-0.51,0.96l-0.06,0.11c-0.43,0.78-0.87,1.59-1.2,2.48 c-0.18,0.48-0.14,0.96,0.14,1.47c0.15,0.27,0.09,0.61-0.14,0.81l-1.54,1.38l1.54,0.34c0.35,0.08,0.58,0.43,0.51,0.78l-0.03,0.16 c-0.02,0.08-0.04,0.17-0.09,0.35c-0.07,0.24-0.18,0.56-0.21,0.93c-0.01,0.11-0.03,0.23-0.06,0.41l-0.01,0.07 c-0.11,0.65-0.24,1.46,0.13,2.24c0.18,0.39,0.25,0.63,0.27,0.75c0.01,0.02,0.01,0.04,0.02,0.06c0.05,0.24-0.03,0.49-0.21,0.64 c-0.1,0.09-0.23,0.15-0.41,0.24l-0.02,0.01l0.23,0.81c0.07,0.24,0,0.49-0.19,0.66l-0.71,0.66l1.32,2.18 c0.12,0.2,0.13,0.44,0.02,0.65c-0.19,0.36-0.28,0.75-0.29,1.14c0,0.23,0.02,0.46,0.08,0.69c0.04,0.18,0.01,0.36-0.08,0.51 c-0.05,0.09-0.1,0.18-0.14,0.27c-0.28,0.67-0.18,1.43,0.32,2.26c0.09,0.15,0.11,0.33,0.07,0.49c0,0.2-0.01,0.41,0.01,0.63 l0.03,0.62l0.13,0.1c0.16,0.13,0.25,0.32,0.24,0.52c0,0.2-0.1,0.39-0.26,0.52l-0.7,0.54l1.67,1.33c0.18,0.14,0.27,0.37,0.24,0.6 c-0.03,0.23-0.17,0.43-0.39,0.52c-0.14,0.06-0.29,0.13-0.42,0.21l-1.93,1.07l1.78,1.3c0.88,0.64,1.14,0.96,0.63,1.99 c-0.52,1.06-0.5,2.26-0.49,3.36c0,0.29,0,0.58-0.01,0.87c-0.02,0.43,0.04,0.81,0.11,1.31c0.02,0.13,0.04,0.26,0.06,0.41l0.19,1.12 l0.14,0.02c0.19,0.02,0.37,0.13,0.48,0.29c0.11,0.16,0.14,0.36,0.09,0.55l-0.09,0.33c-0.45,1.58-1.01,3.55-0.08,5.5 c0.1,0.2,0.09,0.43-0.03,0.63c-0.05,0.09-0.1,0.18-0.14,0.28c-0.37,0.9,0,1.74,0.21,2.2l0.09,0.2c0.39,1.01,0.39,1.67,0,2.45 c-0.39,0.78-0.26,1.6-0.15,2.31c0.02,0.15,0.05,0.29,0.05,0.43l0.19,3.35l0.11,0.24c0.06,0.14,0.16,0.3,0.28,0.49l0.07,0.12 c0.08,0.12,0.12,0.27,0.11,0.42c-0.04,0.56-0.12,1.12-0.2,1.71c0,0-0.01,0.07-0.01,0.07c-0.21,1.43-0.46,3.22,0.04,5.02 c0.1,0.35,0.15,0.64,0.17,0.83c0.02,0.18-0.03,0.36-0.14,0.5c-1.44,1.76-0.93,3.39-0.29,4.9c0.1,0.25,0.05,0.53-0.14,0.73 l-0.46,0.47l0,0.01c0.14,0.65,0.18,1.35,0.13,2.06l0,0.03l3.78,0.35l0.01-0.02c0.21-0.35,0.44-0.64,0.74-0.98 c0.36-0.51,0.84-0.96,1.48-1.37l0.03-0.08c0.17-1.09,0.5-2.08,1-2.93c0.34-0.58,0.74-1.13,1.24-1.7l0.01-0.01 c0.17-0.53,0.33-1.23,0.01-1.88c-0.11-0.23-0.09-0.5,0.07-0.71c0.09-0.11,0.17-0.23,0.25-0.35c0.06-0.09,0.13-0.19,0.26-0.38 c0.52-0.73,1.61-2.24,0.61-4.05c-0.07-0.13-0.1-0.32-0.07-0.46c0.05-0.27,0.09-0.58,0.09-0.85c0.01-0.48,0-0.95,0-1.48 c0-0.24,0.12-0.45,0.32-0.58l2.38-1.43l-1.85-0.79c-0.17-0.07-0.3-0.21-0.36-0.38c-0.06-0.17-0.06-0.36,0.02-0.52l1.06-2.21 l-1.19-0.8c-0.17-0.12-0.28-0.31-0.29-0.52l-0.02-0.41c-0.06-0.96-0.06-1.3,0-1.52c0.01-0.04,0.03-0.09,0.05-0.13 c1.69-3.04,0.8-5.93,0.33-7.49c-0.04-0.14-0.04-0.29,0.01-0.43l0.05-0.15c0.38-1.01,0.63-1.9-0.18-2.57 c-0.16-0.13-0.25-0.34-0.24-0.55c0-0.1,0.02-0.28,0.06-0.58c0.09-0.68,0.2-1.52-0.15-2.28c-0.03-0.06-0.05-0.13-0.06-0.2 c-0.01-0.07-0.02-0.19,0.02-0.77l0.02-0.33c0.1-1.55,0.23-3.13,0.36-4.64l0.04-0.34c0-0.03,0.01-0.06,0.02-0.09 c0.07-0.25,0.18-0.66,0.11-1.13c-0.08-0.54-0.21-1.08-0.35-1.66l-0.3-1.3c-0.03-0.12-0.02-0.24,0.01-0.35 c0.21-0.68,0.26-1.31,0.12-1.88c-0.05-0.22-0.13-0.42-0.23-0.61c-0.06-0.11-0.09-0.23-0.08-0.35c0.04-0.82,0.21-3.85,0.28-5.3 c0.01-0.22-0.02-0.43-0.11-0.65c-0.02-0.05-0.03-0.1-0.04-0.15l-0.63-5.45l-0.04-0.18c-0.04-0.16-0.01-0.33,0.07-0.48l0.59-1.03 l-0.89-0.55c-0.18-0.11-0.3-0.36-0.32-0.57l-0.02-0.19c-0.02-0.23,0.07-0.45,0.26-0.59c0.9-0.69,1.22-2.22,0.91-3.12 c-0.14-0.41-0.05-0.84,0.11-1.5c0.1-0.42,0.19-0.8,0.23-1.18c0.02-0.17,0.05-0.34,0.09-0.57l0.02-0.11 c0.18-0.95,0.46-2.38-0.53-3.66c-0.1-0.13-0.15-0.3-0.13-0.47l0.02-0.22c0.04-0.48,0.1-0.96,0.16-1.46l0.2-1.61 c0.01-0.05,0.02-0.1,0.03-0.14c0.38-1.07,0.35-2.19,0.28-3.15l-0.04-0.52c-0.01-0.18,0.05-0.35,0.16-0.48 c0.12-0.13,0.28-0.22,0.46-0.23l0.89-0.06l0.03-1.29c0-0.25,0-0.48,0-0.71c-0.01-0.35-0.01-0.69,0.03-0.94 c0.29-1.57,1-3.04,1.82-4.66c0.84-1.64,1.44-3.38,2.03-5.1c0.31-0.89,0.63-1.8,0.98-2.7c0.26-0.67,0.6-1.33,0.96-2.02l0.11-0.21 c0.16-0.31,0.32-0.62,0.47-0.94l2.84-5.9c0.22-0.44,0.4-0.91,0.64-1.49c0.4-0.99,0.77-1.93,1.34-2.48c0.61-0.58,0.96-1.3,1.28-1.94 c0.46-0.93,0.67-1.32,1.27-1.37l0.65-0.05l0.38-0.54c1.84-2.6,4.66-3.61,7.18-4.26l0.71-0.18c0.05-0.01,0.11-0.02,0.17-0.02 c0.03,0,0.06,0,0.09,0.01l3.51,0.49c0.27,0.04,0.5,0.24,0.56,0.51l0.06,0.25l1.86-0.88c0.13-0.06,0.26-0.13,0.41-0.22 c0.1-0.06,0.22-0.09,0.33-0.09c0.11,0,0.23,0.03,0.33,0.09l0.1,0.06c0.08,0.04,0.15,0.1,0.2,0.18l1.54,2l0.01,0 c0.11-0.07,0.23-0.1,0.36-0.1c0.16,0,0.31,0.06,0.44,0.17c0.14,0.12,0.29,0.27,0.36,0.33c0.51,0.48,1.13,1.08,2.02,1.34 c0.22,0.06,0.44,0.1,0.66,0.12l0.9,0.06c0.28,0.02,0.51,0.21,0.59,0.47c0.4,1.34,1.42,2.34,2.8,2.74c0.47,0.14,0.97,0.21,1.49,0.21 c0.11,0,0.23,0,0.4-0.01c0,0,0.12-0.01,0.14-0.01c0.16,0,0.32,0.06,0.44,0.16c0.13,0.12,0.22,0.28,0.23,0.46l0.15,2.59l3.63-0.59 c0.04-0.01,0.07-0.01,0.11-0.01c0.2,0,0.39,0.09,0.52,0.25c0.07,0.08,0.14,0.16,0.22,0.24c0.27,0.26,0.6,0.44,0.97,0.55 c0.2,0.06,0.42,0.1,0.65,0.11c0.34,0.02,0.61,0.29,0.62,0.63l0.05,0.82l1.39,0.02c0.28,0,0.53,0.19,0.62,0.46 c0.02,0.06,0.19,0.56,0.26,0.75l0.89,2.43l1.21-1.21c0.12-0.12,0.29-0.2,0.47-0.2c0.18,0,0.35,0.07,0.47,0.19 c0.34,0.34,0.8,0.75,1.42,0.93c0.21,0.06,0.42,0.09,0.64,0.09c0.04,0,0.09,0,0.13,0c0.25-0.02,0.48-0.07,0.72-0.16 c0.08-0.03,0.16-0.05,0.25-0.05c0.17,0,0.33,0.06,0.46,0.18l0.18,0.18c0.43,0.42,1.02,0.99,1.85,1.24c0.17,0.05,0.35,0.08,0.53,0.1 c0.26,0.02,0.49,0.2,0.58,0.45c0.38,1.11,1.41,1.81,3.3,2.78c0.18,0.09,0.4,0.28,0.74,0.58c0.19,0.16,0.38,0.34,0.6,0.51 c0.17,0.13,0.26,0.33,0.26,0.54l-0.01,0.8l3.12,0.01c0.19,0,0.37,0.08,0.5,0.22c0.13,0.14,0.19,0.33,0.16,0.52l-0.12,1.04l2.83,1.4 l0.83-0.71c0.08-0.07,0.17-0.15,0.26-0.24c0.13-0.13,0.3-0.2,0.47-0.2c0.04,0,0.07,0,0.11,0.01c0.21,0.04,0.4,0.17,0.49,0.37 c0.35,0.73,0.87,1.27,1.54,1.61c0.27,0.14,0.41,0.44,0.35,0.74l-0.19,0.84l0.08,0.04c0.36,0.17,0.76,0.31,1.24,0.46 c0.13,0.04,0.44,0.12,0.73,0.2c0.26,0.07,0.51,0.14,0.59,0.16c0.24,0.07,0.38,0.12,0.46,0.16c0.26,0.11,0.42,0.38,0.4,0.66 c-0.01,0.14-0.04,0.36-0.06,0.49l-0.01,0.1l3.72,0.77c0.08,0,0.16,0.02,0.24,0.06c0.12,0.05,0.25,0.1,0.38,0.14 c0.15,0.05,0.29,0.15,0.37,0.29l0.06,0.1c0.22,0.36,0.48,0.77,0.75,1.16l0.41,0.58l0.56,0.06c0.11,0.01,0.22,0.05,0.31,0.11 c0.22,0.15,0.43,0.45,0.93,1.3c0.52,0.87,1.1,1.86,2.11,2.55l0.78,0.54c0.15,0.1,0.25,0.26,0.28,0.44l0.19,1.13 c0.03,0.16-0.01,0.33-0.09,0.46l-1.26,1.98c0,0,2.94-0.17,2.95-0.17c0.17,0,0.33,0.06,0.45,0.17l0.78,0.71 c0.33,0.3,0.7,0.58,1.05,0.85c0.2,0.15,0.75,0.57,0.81,0.62c0.09,0.08,0.16,0.18,0.2,0.29c0.16,0.45,0.54,1.5,1.42,1.97 c0.15,0.08,0.26,0.21,0.32,0.38l0.43,1.28c0,0,1.17-0.07,1.18-0.07c0.32,0,0.59,0.23,0.65,0.54l0.64,3.34l0.75-0.31 c0.08-0.03,0.17-0.05,0.26-0.05c0.24,0,0.46,0.13,0.58,0.35l2.05,3.73l0.17-0.09c0.1-0.06,0.21-0.08,0.32-0.08 c0.18,0,0.36,0.07,0.49,0.21c0.04,0.05,0.09,0.09,0.13,0.13c0.36,0.34,0.79,0.58,1.29,0.73c0.27,0.08,0.54,0.13,0.84,0.15 c0.23,0.02,0.43,0.16,0.54,0.36l2.83,5.54l0.6-0.09c0.03-0.01,0.07-0.01,0.1-0.01c0.28,0,0.54,0.18,0.63,0.45 c0.37,1.08,0.82,2.42,1.54,3.71c0.04,0.07,0.07,0.16,0.08,0.24l0.35,2.83l1.17,0.06c0.22,0.01,0.42,0.13,0.53,0.31l1.25,2.01 c0.04,0.06,0.07,0.13,0.08,0.21l1.23,5.48c0.04,0.17,0.01,0.35-0.08,0.49l0.01,0c0.14,0.09,0.24,0.24,0.28,0.4l0.6,2.66l0.55-1.19 c0.09-0.19,0.28-0.31,0.48-0.35c0.04-0.01,0.09-0.01,0.13-0.01c0.17,0,0.34,0.07,0.47,0.17c0.28,0.24,0.67,0.56,1.2,0.71 c0.19,0.06,0.39,0.08,0.61,0.08c0,0,0.01,0,0.01,0c0.34,0,0.63,0.26,0.66,0.6c0.01,0.16,0.03,0.38,0.04,0.67l0.03,0.49 c0.07,1.01,0.41,2.32,1.67,2.86c0.16,0.07,0.28,0.19,0.35,0.35c0.33,0.77,0.65,1.46,1.22,2.05c1.5,1.57,1.52,2.58,1.07,3.69 l-0.6,1.48l1.39,0.61c0.06,0.03,0.11,0.06,0.16,0.1c0.17,0.14,0.33,0.4,0.63,0.88c0.35,0.57,0.88,1.44,1.74,1.98 c0.24,0.15,0.36,0.43,0.3,0.71c-0.31,1.41-0.26,2.52,0.15,3.39c0.07,0.16,0.16,0.3,0.24,0.43c0.1,0.15,0.14,0.34,0.1,0.52 l-0.59,2.63l0.18-0.04c0.05-0.01,0.1-0.02,0.15-0.02c0.16,0,0.31,0.06,0.44,0.16c0.16,0.14,0.24,0.35,0.23,0.56l-0.4,4.41 l0.93,0.08c0.19,0.02,0.37,0.12,0.48,0.28c0.11,0.16,0.15,0.36,0.1,0.55c-0.19,0.76-0.41,2.21,0.27,3.38 c0.51,0.87,0.56,1.68,0.16,2.77c-1,2.74-1.08,4.03,0.45,5.84c0.17,0.2,0.2,0.47,0.1,0.71c-0.69,1.49-0.59,2.76,0.28,3.88 c0.11,0.14,0.16,0.32,0.14,0.5l-0.09,0.72c-0.16,1.22-0.32,2.48-0.53,3.72c-0.13,0.77-0.29,1.53-0.44,2.29l-0.02,0.08 c-0.25,1.21-0.54,2.59-0.69,3.97c-0.09,0.78,0.08,1.5,0.22,2.13c0.11,0.49,0.14,0.67,0.15,0.76c0.01,0.09,0,0.19-0.03,0.28 c-0.49,1.46-1.04,3.19-1.3,5.22c-0.4,3.12-0.84,6.16-1.74,9.13c-0.59,1.92-0.93,3.92-1.26,5.87l-0.02,0.14 c-0.14,0.84-0.29,1.68-0.45,2.51c-0.13,0.65-0.28,1.29-0.45,2.06l-0.15,0.66c-0.02,0.08-0.05,0.15-0.1,0.22l-0.08,0.12 c-0.31,0.46-0.74,1.09-0.99,1.84c-0.36,1.09-0.67,2.21-1,3.41l-0.04,0.14c-0.18,0.66-0.36,1.32-0.56,1.97 c-0.15,0.49-0.34,0.97-0.51,1.44c-0.23,0.6-0.45,1.18-0.62,1.77c-0.37,1.27-0.73,2.54-1.09,3.82c-0.51,1.82-1.04,3.7-1.61,5.53 c-0.18,0.59-0.5,1.21-0.81,1.82c-0.26,0.51-0.49,0.97-0.69,1.45c-0.2,0.48-0.38,0.97-0.6,1.61l-0.04,0.1 c-0.18,0.5-0.36,1.01-0.58,1.51c-0.26,0.59-0.55,1.17-0.84,1.74l-0.11,0.23c-0.51,1.02-1.1,2.17-1.55,3.4 c-0.14,0.4-0.41,0.84-0.68,1.28c-0.53,0.88-1.2,1.98-1.28,3.37c-0.01,0.15-0.07,0.29-0.17,0.4c-0.06,0.07-0.13,0.15-0.19,0.23 c-0.37,0.51-0.68,0.98-0.93,1.43c-0.34,0.6-0.66,1.21-0.98,1.82l-0.04,0.07c-0.66,1.24-1.27,2.4-2,3.54 c-0.29,0.46-0.61,0.92-0.93,1.39c-0.13,0.18-0.33,0.29-0.55,0.29c-0.05,0-0.09-0.01-0.14-0.01c-0.26-0.06-0.47-0.27-0.51-0.53 c-0.43-2.39-0.89-4.78-1.35-7.17l-0.49-2.55c-0.19-1-0.66-1.65-1.43-1.98c-0.17-0.08-0.3-0.22-0.36-0.4 c-0.04-0.11-0.08-0.24-0.11-0.36l-0.04-0.13c-0.19-0.67-0.48-1.68-1.25-2.49c-0.1-0.11-0.16-0.25-0.18-0.39 c-0.24-2.43-1.56-4.26-2.73-5.88c-0.65-0.9-1.26-1.74-1.63-2.61c-0.46-1.09-1.15-2.02-1.75-2.84c-0.23-0.31-0.45-0.62-0.67-0.94 l-1.44-2.18c-1.19-1.8-2.41-3.66-3.73-5.47c-0.77-1.06-1.64-1.96-2.61-2.95c-0.29-0.3-0.58-0.6-0.86-0.9 c-0.34-0.37-1.88-1.98-1.92-2.03c-0.54-0.58-1.07-1.16-1.59-1.75l-0.22-0.24c-0.11-0.12-0.21-0.23-0.28-0.34 c-0.6-1.01-1.2-2.04-1.83-3.14l-2.75-4.74l-0.17,0.34c-0.1,0.21-0.31,0.35-0.55,0.37c-0.02,0-0.04,0-0.05,0 c-0.22,0-0.42-0.11-0.55-0.28c-0.84-1.2-1.68-2.4-2.54-3.59c-0.31-0.43-0.74-0.73-1.29-0.89c-0.18-0.05-0.34-0.08-0.47-0.1 c-0.06-0.01-0.12-0.02-0.17-0.05c-0.33-0.14-0.72-0.28-1.09-0.41l-0.07-0.02c-0.13-0.05-0.29-0.1-0.43-0.15 c-0.16-0.06-0.29-0.18-0.36-0.33c-0.78-1.62-1.99-2.44-3.18-3.09c-0.12-0.07-0.22-0.17-0.28-0.3c-1.3-2.69-3.57-4.23-5.57-5.59 c-0.37-0.25-0.75-0.51-1.11-0.76c-1.83-1.3-3.35-2.39-4.87-3.52c-0.26-0.19-0.5-0.4-0.81-0.67l-0.07-0.06 c-0.44-0.39-0.95-0.84-1.55-1.24c-2.64-1.74-5.71-3.75-8.77-5.61c-1.85-1.13-4.02-2.41-6.34-3.43c-1.57-0.69-3.17-1.2-4.74-1.71 c-0.71-0.23-1.42-0.46-2.11-0.7l-0.14-0.04c-0.17-0.05-0.32-0.18-0.4-0.34c-0.67-1.35-1.74-2.28-3.09-2.67 c-0.51-0.15-1.07-0.23-1.66-0.23c-0.11,0-0.22,0-0.33,0.01c-0.01,0-0.02,0-0.03,0c-0.14,0-0.28-0.04-0.39-0.13 c-1.56-1.13-3.17-1.61-4.58-2.04c-1.01-0.3-1.89-0.56-2.46-0.93c-0.76-0.59-1.55-1-2.34-1.23l-0.21-0.06 c-0.4-0.1-0.78-0.11-1.03-0.11c-0.13,0-0.26,0-0.37,0.01c-0.01,0-0.01,0-0.02,0c-0.1,0-0.19-0.02-0.28-0.06 c-1.2-0.56-2.4-1.17-3.61-1.77l-0.14-0.07c-0.77-0.39-1.54-0.78-2.31-1.15c-0.15-0.07-0.31-0.13-0.47-0.18 c-0.34-0.1-0.63-0.12-0.74-0.12c-0.02,0-0.04,0-0.06,0c-0.03,0-0.07,0-0.1-0.01l-0.95-0.14l-0.71,0.65 c-0.52,0.47-0.81,1.05-0.86,1.72c-0.03,0.32-0.28,0.57-0.6,0.61L205,190.5l1.17,5.12c0,0,0.79-0.05,0.8-0.05 c0.19,0,0.36,0.08,0.49,0.21c0.13,0.14,0.19,0.33,0.17,0.51l2.46,0.37c0.12,0.02,0.24,0.07,0.33,0.15 c0.27,0.23,0.57,0.42,0.88,0.55c0.2,0.08,0.34,0.25,0.39,0.46c0.05,0.21-0.01,0.43-0.15,0.59l-4.06,4.67 c-0.04,0.04-0.08,0.08-0.13,0.11c-0.25,0.17-0.44,0.33-0.59,0.5c-3.62,4.1-7.32,8.6-11.97,14.59c-3.16,4.06-6.59,6.56-10.8,7.88 c-0.79,0.24-1.59,0.44-2.38,0.58c-1.11,0.2-2.24,0.3-3.36,0.3c-2.73,0-5.57-0.58-8.68-1.78c-0.28-0.11-0.45-0.38-0.42-0.68 l0.07-0.84c0.02-0.36-0.2-0.69-0.55-0.8c-0.33-0.11-0.63-0.19-0.97-0.29l-0.07-0.02c-0.23-0.07-0.44-0.13-0.63-0.19 c-0.28-0.09-0.46-0.35-0.46-0.64c0-0.09,0-0.19,0-0.27c-0.01-0.24-0.13-0.45-0.32-0.59c-0.13-0.1-0.29-0.15-0.46-0.15 c-0.05,0-0.09,0-0.14,0.01l-0.06,0.01c-0.14,0.04-0.27,0.07-0.42,0.1c-0.3,0.07-0.68,0.16-1.04,0.3c-0.27,0.1-0.54,0.18-0.8,0.23 c-0.21,0.04-0.42,0.06-0.63,0.06c-1.38,0-2.46-0.82-3.95-2.07c-0.2-0.17-0.4-0.34-0.61-0.5c-0.15-0.13-0.24-0.31-0.25-0.51 c0-0.13,0-0.27,0-0.4c0.01-0.34,0.01-0.71-0.02-1.11c-0.02-0.25-0.16-0.48-0.38-0.61c-0.41-0.25-0.89-0.5-1.4-0.76 c-1.24-0.64-2.65-1.37-3.72-2.41c-1.12-1.08-1.97-2.47-2.88-3.95c-0.22-0.37-0.46-0.74-0.69-1.11c-0.11-0.18-0.14-0.41-0.06-0.6 c0.46-1.14,0.81-2.64-0.56-4.15c-0.13-0.15-0.27-0.38-0.43-0.67c-0.24-0.42-0.5-0.9-0.94-1.33c-0.09-0.08-0.17-0.16-0.28-0.26 c-0.23-0.21-0.28-0.54-0.13-0.81c0.23-0.41,0.23-0.88-0.02-1.47l-0.28-0.87l-0.56-0.06c-0.25-0.03-0.46-0.19-0.55-0.41l-0.95-2.38 c-0.06-0.14-0.06-0.3-0.02-0.44c0.12-0.39,0.15-0.81,0.09-1.21c-0.15-0.93-0.75-1.76-1.84-2.53c-0.88-0.62-1.14-1.1-0.98-1.79 c0.18-0.71,0.47-1.9-0.24-2.75c-0.23-0.28-0.54-0.48-0.9-0.59c-0.1-0.03-0.2-0.05-0.31-0.07c-0.2-0.03-0.38-0.15-0.48-0.32 l-0.25-0.43c-0.67-1.14-1.37-2.32-2.36-3.27c-0.91-0.86-1.76-1.72-2.26-2.85c-0.77-1.74-2-3-3.18-4.22 c-0.48-0.5-0.98-1.01-1.44-1.56c-0.36-0.43-0.73-0.85-1.12-1.29c-0.79-0.88-1.53-1.72-2.07-2.63c-0.24-0.41-0.88-1.5-2.04-1.88 c-0.26-0.08-0.44-0.32-0.46-0.59c-0.06-0.86-0.41-1.53-1.04-1.98c-0.16-0.11-0.25-0.29-0.27-0.48c-0.03-0.35-0.15-0.66-0.34-0.93 c-0.22-0.32-0.52-0.54-0.89-0.68c-0.21-0.08-0.36-0.25-0.41-0.46c-0.13-0.52-0.4-0.91-0.8-1.17c-0.97-0.61-1.78-1.46-2.65-2.38 l-0.39-0.41l-0.71-0.73c-0.21-0.21-0.25-0.54-0.1-0.79l-1.57-2.06c-0.77-1.02-1.57-2.08-2.43-3.11c-0.35-0.42-0.79-0.7-1.13-0.92 c-0.06-0.04-0.13-0.08-0.18-0.11c-0.12-0.05-0.22-0.13-0.3-0.23c-0.32-0.45-0.59-0.97-0.89-1.56c-0.28-0.54-0.55-1.07-0.86-1.55 c-0.6-0.93-1.29-1.75-1.97-2.55c-1.02-1.2-1.98-2.34-2.5-3.73c-0.33-0.88-0.81-1.6-1.31-2.36c-0.44-0.67-0.86-1.3-1.05-1.91 c-1.1-3.54-2.08-7.29-3-11.49c-0.3-1.37-0.3-2.84-0.29-4.38l0-0.69c0-0.62,0.13-1.28,0.27-1.97c0.05-0.26,0.1-0.51,0.14-0.76 c0.04-0.22,0.09-0.44,0.17-0.75c0.13-0.49,0.27-1.03,0.29-1.64c0.02-0.54,0.26-1.16,0.5-1.83c0.34-0.91,0.76-2.04,0.67-3.28 c-0.01-0.18,0.05-0.35,0.16-0.49c0.12-0.13,0.28-0.22,0.46-0.23l0.16-0.01l-0.08-1.41c-0.02-0.36-0.08-0.74-0.14-1.15l-0.02-0.11 c-0.04-0.26-0.11-0.69-0.11-0.75c-0.01-0.11,0.01-0.22,0.05-0.32c0.55-1.31,0.86-2.67,1.17-3.99c0.2-0.86,0.42-1.77,0.71-2.65 c-0.9-1.14-1.51-2.15-1.95-3.22c-0.88-2.14-0.83-3.9-0.78-5.76c0.01-0.32,0.02-0.64,0.02-0.98c-0.05-0.11-0.1-0.23-0.16-0.35 c-0.09-0.2-0.18-0.4-0.24-0.57l-0.38-1.13l-3.22,0.51l-4.39,7.97l0.33,0.21c0.28,0.18,0.38,0.54,0.24,0.84 c-0.16,0.34-0.27,0.73-0.32,1.14c-0.02,0.19-0.12,0.36-0.27,0.46c-0.26,0.19-0.47,0.42-0.62,0.69c-0.12,0.22-0.2,0.46-0.23,0.71 c-0.03,0.2-0.14,0.38-0.32,0.49l-0.51,0.3c-0.79,0.47-1.19,1.22-1.26,2.37c-0.02,0.32-0.27,0.59-0.59,0.62l-1.94,0.22l1.68,2.01 c0.05,0.06,0.11,0.12,0.17,0.19c0.12,0.12,0.19,0.33,0.19,0.5l0.01,0.24c0.03,0.62,0.07,1.57,0.58,2.41 c0.18,0.29,0.1,0.68-0.17,0.88c-0.13,0.1-1.18,0.86-1.18,0.86l-1.67,1.24l1.78,1.08c0.46,0.28,0.73,0.57,0.87,0.76 c0.17,0.23,0.17,0.54,0.01,0.78l-0.25,0.36c-0.11,0.16-0.24,0.35-0.4,0.51c-0.36,0.38-0.75,0.73-1.3,1.23l-1.29,1.18l0.07,1.2 c0.08,1.76,0.19,4.18,2.18,5.75c0.14,0.11,0.23,0.26,0.25,0.44l0.18,1.38c0.02,0.18-0.03,0.35-0.13,0.5l-1.82,2.34l3.52,1.65 c0.25,0.12,0.4,0.37,0.38,0.64c-0.03,0.46,0.08,0.91,0.32,1.37c0.09,0.16,0.1,0.36,0.04,0.54c-0.06,0.18-0.19,0.32-0.37,0.39 l-0.49,0.21l2.06,2.23c0.17,0.18,0.22,0.45,0.13,0.68l-1.1,2.96l1.39-0.32c0.05-0.01,0.1-0.02,0.15-0.02c0.2,0,0.39,0.09,0.52,0.24 l0.17,0.21c0.15,0.18,0.29,0.38,0.44,0.57c0.58,0.78,1.3,1.75,2.44,2.19c0.29,0.11,0.46,0.4,0.42,0.71 c-0.08,0.66,0.01,1.41,0.26,2.13c0.06,0.17,0.13,0.34,0.19,0.5c0.13,0.31,0,0.68-0.29,0.84l-1.2,0.66l2.61,1.14 c0.12,0.05,0.22,0.14,0.29,0.25c0.36,0.55,1.47,2.26,1.75,2.69c0.67,1.01,1.43,2.16,2.11,3.3c0.36,0.6,0.67,1.19,1,1.83l0.05,0.09 c0.36,0.69,0.76,1.47,1.21,2.2c0.26,0.42,0.61,0.68,1.06,0.93c0.14,0.08,0.24,0.2,0.29,0.34c1.03,2.71,2.96,4.64,4.82,6.51 c0.79,0.79,1.54,1.55,2.22,2.36c1.94,2.33,4.1,4.52,6.21,6.64c0.81,0.82,1.62,1.64,2.42,2.47c0.29,0.3,0.6,0.57,0.98,0.9 c0.4,0.34,0.81,0.7,1.09,1.07c0.79,1.05,1.55,2.21,2.23,3.27l0.81,1.24l1.39,2.1c1.49,2.24,2.99,4.49,4.45,6.75l0.52,0.78 c0.64,0.96,1.3,1.95,1.71,2.95c0.65,1.61,1.32,3.35,2.16,5.65c0.06,0.17,0.05,0.36-0.03,0.53c-0.08,0.16-0.23,0.29-0.41,0.34 c-1.04,0.31-2.08,0.95-3.09,1.9c-0.48,0.46-0.91,0.97-1.32,1.46c-0.63,0.75-1.22,1.46-1.94,1.9c-2.58,1.59-2.04,3.73-1.17,5.62 c0.41,0.88,1.22,1.47,2,2.04c0.32,0.23,0.62,0.45,0.88,0.68c0.14,0.12,0.33,0.19,0.52,0.19c0.05,0,0.09,0,0.13-0.01 c0.04-0.01,0.08-0.02,0.12-0.03c0.08-0.03,0.15-0.07,0.22-0.12c0.12-0.09,0.26-0.13,0.4-0.13c0.16,0,0.31,0.05,0.43,0.16l0.29,0.25 c1.42,1.22,2.75,2.38,3.91,3.7c0.61,0.7,1.07,1.57,1.55,2.49c0.43,0.83,0.88,1.68,1.47,2.44c0.48,0.62,1.15,1.07,1.74,1.48 c0.62,0.42,1.2,0.82,1.46,1.3c1.48,2.7,3.84,4.18,6.15,5.62c0.82,0.51,1.6,1,2.34,1.55c0.35,0.26,0.74,0.37,1.14,0.48 c0.12,0.03,0.24,0.07,0.35,0.11c0.79,0.31,1.64,0.57,2.47,0.82c1.96,0.6,3.82,1.17,4.93,2.35c0.54,0.57,1.21,0.72,1.7,0.83 c0,0,0.17,0.04,0.17,0.04c0.21,0.05,0.39,0.21,0.47,0.41c0.1,0.26,0.33,0.45,0.6,0.5c0.05,0.01,0.09,0.01,0.14,0.01 c0.05,0,0.09,0,0.14-0.01c0.23-0.04,0.43-0.18,0.54-0.38c0.28-0.48,0.57-0.73,0.93-0.79c0.07-0.01,0.15-0.02,0.24-0.02 c0.43,0,0.96,0.18,1.43,0.34c0.33,0.11,0.67,0.22,1.01,0.29c2.61,0.55,5.19,0.82,7.88,0.82c2.46,0,5.04-0.24,7.66-0.7 c2.56-0.46,5.24-1.15,7.97-2.07c2.99-1,5.73-2.74,8.4-4.42c0.89-0.56,1.78-1.12,2.67-1.66c1.12-0.67,2.2-1.42,3.24-2.14 c1.29-0.9,2.51-1.75,3.83-2.47c4.69-2.58,7.81-6.65,10.48-10.68c1.42-2.14,2.77-4.37,4.08-6.55c0.68-1.13,1.36-2.26,2.05-3.37 c0.11-0.17,0.29-0.29,0.49-0.31c0.02,0,0.05,0,0.07,0c0.06,0,0.11,0.01,0.16,0.02c0.11-0.22,0.34-0.36,0.59-0.36 c0.03,0,0.07,0,0.1,0.01c0.19,0.03,0.39,0.06,0.6,0.1c0.68,0.11,1.46,0.24,2.29,0.24c0.13,0,0.27,0,0.41-0.01c0.01,0,0.02,0,0.04,0 c0.18,0,0.35,0.07,0.47,0.2c0.25,0.26,0.5,0.53,0.77,0.82l0.07,0.08c0.94,1.01,1.9,2.06,3.18,2.89c0.21,0.14,0.33,0.38,0.3,0.63 c-0.03,0.25-0.19,0.46-0.43,0.55l-0.08,0.03l8.33,5.05c0.09,0.05,0.16,0.12,0.22,0.21c0.35,0.55,0.78,0.89,1.31,1.04 c0.16,0.05,0.33,0.07,0.5,0.08c0.07,0,0.15,0.01,0.22,0.01c0.08,0,0.15,0,0.23-0.01c0.65-0.04,1.26-0.23,1.7-0.37 c0.07-0.02,0.13-0.03,0.2-0.03c0.25,0,0.49,0.14,0.6,0.38l0.38,0.82c0,0,0.73-0.04,0.74-0.04c0.01,0,0.03,0.01,0.04,0.01l-8.16,7.7 l-6.78,6.47l-7.15,5.25l-7.64,4.93l-10.48,6.17l-15.13,0.62l-8.92,4.32h-18.56l-12.92-4.93l-6.75-0.62l-9.87-0.62l-3.7-4.93 l-7.4-3.7l-19.14-16.44l-1.28,0.42c0.34-0.22,0.68-0.44,1.02-0.64c0.58-0.35,1.44-0.61,2.02-0.61c0.07,0,0.12,0,0.16,0.01 c0.1,0.01,0.2,0.04,0.28,0.09c1.26,0.77,2.52,1.14,3.84,1.14c1.23,0,2.56-0.33,4.04-1c0.21-0.09,0.36-0.27,0.43-0.49 c0.07-0.22,0.25-0.4,0.48-0.45l3.85-0.97c0.22-0.05,0.4-0.2,0.5-0.4c0.1-0.2,0.12-0.43,0.04-0.64c-0.17-0.45-0.36-0.91-0.53-1.31 l-0.13-0.3c-0.1-0.24-0.05-0.51,0.12-0.7c0.31-0.35,0.48-0.71,0.52-1.09c0.07-0.8-0.45-1.35-0.84-1.76c0,0-0.13-0.14-0.17-0.18 c-0.08-0.09-0.13-0.19-0.16-0.31c-0.03-0.16-0.12-0.31-0.24-0.42c-0.14-0.13-0.33-0.2-0.53-0.2c-0.04,0-0.08,0-0.12,0.01 l-2.86,0.45c-0.03,0.01-0.07,0.01-0.1,0.01c-0.15,0-0.3-0.05-0.41-0.14c-0.15-0.12-0.24-0.29-0.25-0.47 c-0.01-0.17-0.07-0.32-0.18-0.45l-1.92-2.3c-0.15-0.18-0.37-0.28-0.6-0.28c-0.1,0-0.2,0.02-0.3,0.06 c-1.52,0.63-2.37,0.89-2.93,0.89c-0.06,0-0.11,0-0.11,0c-0.16,0-0.32-0.06-0.44-0.16c-0.3-0.26-0.63-0.86-0.98-3.46 c-0.04-0.32-0.27-0.57-0.58-0.65c-0.07-0.02-0.13-0.03-0.2-0.03c-0.24,0-0.48,0.12-0.63,0.31l-0.99,1.3 c-0.61,0.8-1.08,1.42-1.55,2.04c-0.16,0.22-0.3,0.47-0.43,0.71l-0.1,0.19c-0.1,0.18-0.28,0.31-0.49,0.34 c-0.92,0.12-1.9,0.23-3.19,0.35c-0.02,0-0.04,0-0.06,0c-0.21,0-0.4-0.1-0.53-0.26c-0.14-0.18-0.17-0.43-0.09-0.64 c0.06-0.16,0.07-0.35,0.02-0.52c-0.1-0.33-0.4-0.55-0.75-0.55l-0.07,0c-3.33,0.28-4.66,0.47-5.39,1.4 c-0.37,0.47-0.51,1.06-0.46,1.93c0.01,0.18-0.05,0.36-0.17,0.49c-0.12,0.13-0.29,0.21-0.47,0.21l-0.6,0.01 c-1.7,0.03-3.46,0.06-5.01,0.72c-2.24,0.95-4.29,2.33-6.29,3.69c-0.78,0.52-1.55,1.05-2.34,1.54c-1.39,0.88-2.91,1.87-4.77,3.13 c-0.61,0.41-1.28,0.7-1.99,1c-1.59,0.69-3.23,1.39-4.42,3.46c-0.84,1.46-2.49,2.51-4.27,3.64c-0.83,0.53-1.7,1.08-2.47,1.68 c-0.83,0.65-1.63,1.3-2.23,2.12c-0.88,1.21-1.79,2.41-2.7,3.61c-2.42,3.19-4.92,6.48-6.92,10.02c-2.8,4.97-4.83,10.4-6.51,15.1 c-0.66,1.85-1.09,3.81-1.51,5.71c-0.65,2.97-1.27,5.77-2.68,8.13c-1.25,2.1-1.37,4.25-1.48,6.15c-0.08,1.43-0.16,2.77-0.65,4.07 c-0.64,1.68-0.73,4.02-0.27,7.14c0.24,1.6,0.39,3.24,0.54,4.82c0.27,2.94,0.55,5.98,1.37,8.85c1.04,3.68,2.85,7.16,4.59,10.53 l0.05,0.09c0.34,0.66,0.69,1.33,1.02,1.99c0.53,1.04,1.35,1.88,2.31,2.85c0.38,0.38,0.76,0.77,1.16,1.21 c0.09,0.09,0.14,0.21,0.17,0.34c0.06,0.38,0.19,0.68,0.19,0.68c0.2,0.47,0.51,0.64,0.74,0.7c1.13,0.31,1.27,0.89,1.5,2.31 l0.04,0.23c0.12,0.7,0.71,0.92,2.13,1.29c0.37,0.1,0.77,0.2,1.18,0.33c0.11,0.04,0.21,0.1,0.29,0.18c2.53,2.74,6.25,3.08,9.53,3.38 c1.37,0.13,2.66,0.25,3.87,0.51c0.06,0.01,0.12,0.02,0.17,0.02c0.32,0,0.6-0.19,0.73-0.49c0.18-0.44,0.32-0.84,0.45-1.22 c0.23-0.65,0.41-1.17,0.69-1.53c0.38-0.5,0.85-0.95,1.36-1.45c0.67-0.66,1.37-1.34,1.88-2.17c1-1.64,1.27-2.93,0.82-3.96 c-0.45-1.01-1.55-1.68-3.37-2.03c-1.45-0.28-2.92-0.47-4.39-0.65c-1.61-0.2-3.12-0.4-4.64-0.71c-7.19-1.49-12.28-5.66-15.13-12.41 c-1.5-3.55-1.82-7.52-1.82-10.23c0-4.03-0.01-8.21,1.34-12.11c0.12-0.33,0.06-0.64,0.01-0.92c-0.01-0.07-0.01-0.14,0-0.21 c0.23-1.51,0.41-3.05,0.59-4.55c0.12-1.01,0.25-2.03,0.39-3.06l2.73,1.26l26.24,20.62l6.22,2.07c-0.07,0.27-0.14,0.54-0.21,0.82 c-0.25,0.96-0.51,1.96-0.69,2.97c-0.12,0.65-0.04,1.27,0.04,1.89c0.05,0.39,0.09,0.76,0.08,1.1c-0.04,1.01-0.11,2.05-0.18,3.09 c-0.11,1.68-0.23,3.42-0.2,5.14c0.04,2.38,0.16,4.79,0.27,7.14c0.11,2.25,0.22,4.57,0.27,6.85c0.03,1.42-0.1,2.82-0.23,4.3 c-0.07,0.84-0.15,1.71-0.19,2.57c-0.02,0.43,0.16,0.78,0.32,1.1c0.04,0.07,0.07,0.15,0.1,0.22c0.3,0.83,0.69,1.65,1.06,2.45 c0.82,1.75,1.59,3.41,1.46,4.91c-0.14,1.56,0.6,2.83,1.25,3.95c0.92,1.59,1.4,2.55,0.49,3.92c-0.2,0.3-0.2,0.68,0.01,1.08 c0.3,0.58,0.61,1.16,0.94,1.77c0.66,1.22,1.28,2.37,1.81,3.58c1.69,3.83,3.6,8.17,8.22,10.94c1.43,0.86,2.87,1.36,4.26,1.85 c0.88,0.31,1.71,0.59,2.54,0.97c0.99,0.45,2.31,0.69,3.74,0.69c1.1,0,3.14-0.15,4.49-1.18c1.63-1.25,3.27-2.5,4.85-3.72l0.22-0.17 c0.12-0.09,0.26-0.14,0.41-0.14c0.04,0,0.07,0,0.11,0.01c0.18,0.03,0.34,0.13,0.44,0.28c1.86,2.76,6.71,6.06,10.42,6.36 c0.15,0.01,0.3,0.02,0.46,0.02c3.38,0,9.44-2.9,11.78-5.64c0.13-0.15,0.32-0.23,0.51-0.23c0.11,0,0.22,0.03,0.31,0.08 c0.24,0.13,0.49,0.26,0.73,0.39c1.33,0.69,2.7,1.41,3.32,2.43c2.13,3.5,5.37,4.3,8.51,5.06c0.85,0.21,1.77,0.3,2.9,0.3 c0.89,0,1.81-0.06,2.73-0.12c0.52-0.03,1.05-0.07,1.58-0.09c0.01,0,0.02,0,0.03,0c0.27,0,0.52,0.17,0.62,0.43 c0.19,0.48,0.39,1.03,0.59,1.58c0.62,1.76,1.24,3.51,1.86,5.27c1.27,3.61,2.59,7.34,3.93,11.04c0.1,0.28,0.2,0.57,0.31,0.86 c0.55,1.58,1.13,3.22,2.19,4.5c0.2,0.25,0.32,0.65,0.47,1.24c0.35,1.39,0.91,2.87,3.07,2.87c0.18,0,0.37-0.01,0.7-0.04 c0.8,0,1.84,0.64,3.01,1.41l0.39,0.26c0.23,0.15,2.32,1.47,3.94,1.47c0.43,0,0.81-0.1,1.11-0.29c1.64-1.03,3.14-2.26,4.6-3.45 l0.17-0.14c0.3-0.24,0.71-0.44,1.11-0.63c1.09-0.52,2.44-1.17,2.64-3.13c0.01-0.14,0.07-0.28,0.17-0.38 c0.18-0.2,0.5-0.45,0.83-0.71c0.23-0.18,0.46-0.35,0.65-0.52c0.18-0.16,0.42-0.31,0.71-0.5c0.55-0.35,1.18-0.74,1.48-1.4 c1.34-2.9,2.87-6.29,4.06-9.76c1.02-2.97,1.81-6.01,2.33-9.05c0.49-2.8,0.64-5.45,0.45-7.87c-0.07-0.92,0.05-1.84,0.18-2.82 c0.23-1.72,0.46-3.5-0.34-5.44c-0.22-0.53-0.12-1.25-0.01-2.08c0.12-0.89,0.27-2,0.01-3.15c-0.63-2.8-0.56-5.72-0.48-8.82 c0.03-1.15,0.06-2.34,0.05-3.53c-0.01-1.1,0.02-2.23,0.05-3.32c0.05-2.09,0.11-4.26-0.11-6.39c-0.2-1.91-0.56-3.83-0.91-5.69 c-0.47-2.48-0.92-4.83-1.02-7.23c-0.06-1.41-0.51-2.64-0.94-3.83c-0.33-0.91-0.63-1.78-0.77-2.7c4.67,0.2,12.32,0.5,18.5,0.65 c-0.12,2.3-0.54,4.56-1,6.95c-0.35,1.85-0.71,3.77-0.91,5.68c-0.22,2.13-0.16,4.3-0.11,6.39c0.03,1.03,0.06,2.2,0.05,3.32 c-0.01,1.16,0.02,2.35,0.05,3.53c0.08,3.1,0.15,6.02-0.48,8.82c-0.26,1.15-0.11,2.26,0.01,3.15c0.11,0.83,0.21,1.55-0.01,2.08 c-0.8,1.94-0.56,3.72-0.34,5.44c0.13,0.98,0.25,1.9,0.18,2.82c-0.19,2.42-0.04,5.07,0.45,7.87c0.53,3.04,1.31,6.08,2.33,9.05 c1.19,3.47,2.72,6.86,4.06,9.76c0.3,0.66,0.93,1.05,1.48,1.4c0.29,0.18,0.53,0.34,0.72,0.5c0.19,0.17,0.42,0.35,0.65,0.52 c0.34,0.26,0.65,0.51,0.83,0.71c0.1,0.11,0.15,0.24,0.17,0.38c0.19,1.96,1.55,2.61,2.64,3.13c0.42,0.2,0.81,0.39,1.11,0.63 l0.17,0.14c1.46,1.19,2.97,2.42,4.6,3.45c0.3,0.19,0.67,0.29,1.11,0.29c1.63,0,3.71-1.32,3.94-1.47l0.39-0.26 c1.17-0.77,2.21-1.4,3.07-1.4c0,0,0,0,0.01,0c0.27,0.03,0.46,0.04,0.64,0.04c2.16,0,2.72-1.48,3.07-2.88 c0.15-0.59,0.26-0.99,0.47-1.24c1.06-1.29,1.64-2.92,2.19-4.5c0.1-0.29,0.2-0.58,0.31-0.86c1.34-3.67,2.65-7.41,3.93-11.04 l0.11-0.32c0.58-1.65,1.16-3.3,1.75-4.95c0.19-0.55,0.4-1.09,0.59-1.58c0.1-0.26,0.35-0.43,0.62-0.43c0.01,0,0.02,0,0.03,0 c0.53,0.03,1.06,0.06,1.6,0.1c0.89,0.06,1.82,0.12,2.7,0.12c1.13,0,2.05-0.1,2.9-0.3c3.14-0.77,6.38-1.56,8.51-5.06 c0.62-1.02,2-1.74,3.33-2.44c0.24-0.13,0.48-0.25,0.73-0.38c0.1-0.05,0.21-0.08,0.31-0.08c0.19,0,0.38,0.08,0.51,0.23 c2.34,2.74,8.4,5.64,11.78,5.64c0.16,0,0.31-0.01,0.46-0.02c3.7-0.29,8.56-3.6,10.42-6.36c0.1-0.15,0.26-0.26,0.44-0.28 c0.04-0.01,0.07-0.01,0.11-0.01c0.15,0,0.29,0.05,0.41,0.14l0.22,0.17c1.59,1.22,3.22,2.47,4.85,3.72 c1.35,1.03,3.39,1.18,4.49,1.18c1.42,0,2.75-0.25,3.74-0.69c0.82-0.37,1.65-0.66,2.54-0.97c1.39-0.48,2.83-0.99,4.26-1.84 c4.62-2.77,6.53-7.11,8.22-10.94c0.54-1.22,1.16-2.37,1.83-3.6c0.31-0.58,0.63-1.16,0.93-1.74c0.2-0.39,0.21-0.77,0.01-1.07 c-0.91-1.37-0.43-2.33,0.49-3.92c0.65-1.12,1.39-2.39,1.25-3.95c-0.13-1.5,0.64-3.16,1.46-4.91c0.37-0.8,0.76-1.62,1.06-2.45 c0.03-0.07,0.06-0.15,0.12-0.26c0.14-0.28,0.32-0.64,0.3-1.06c-0.05-0.87-0.12-1.77-0.19-2.57c-0.13-1.48-0.25-2.88-0.23-4.3 c0.04-2.28,0.16-4.6,0.27-6.87c0.11-2.33,0.23-4.74,0.27-7.11c0.03-1.73-0.09-3.47-0.2-5.15c-0.07-1.01-0.14-2.05-0.18-3.08 c-0.01-0.35,0.04-0.74,0.08-1.11c0.08-0.61,0.15-1.23,0.04-1.88c-0.18-1.01-0.44-2.01-0.7-2.97c-0.37-1.42-0.72-2.76-0.85-4.13 c-0.3-3.11-0.97-4.89-1.93-7.39c-0.3-0.8-0.64-1.68-1-2.72c-0.16-0.46-0.32-0.93-0.48-1.42l-0.04-0.11 c-0.42-1.26-0.85-2.56-1.38-3.77c-0.21-0.47-0.36-0.97-0.52-1.49c-0.31-1-0.7-2.25-1.62-3.31c-0.17-0.2-0.21-0.48-0.1-0.72 l0.23-0.51c0.02-0.04,0.05-0.08,0.07-0.12l0.53-0.69l1.54-2.04c-0.13-0.09-0.22-0.23-0.26-0.38c-0.05-0.21,0-0.44,0.15-0.61 c0.1-0.11,0.19-0.22,0.28-0.33c0.5-0.6,0.86-1.24,1.23-1.92l0.24-0.44c0.25-0.44,0.48-0.9,0.71-1.36l1.23-2.39 c-0.17-0.06-0.31-0.18-0.39-0.34c-0.09-0.18-0.09-0.39-0.01-0.57c0.15-0.33,0.66-1.39,0.66-1.39c0.06-0.12,0.15-0.22,0.26-0.29 c1.07-0.64,2.19-1.97,1.39-4.7c-0.2-0.67-0.04-1.82,0.42-3.07c0.08-0.22,0.19-0.41,0.34-0.67l0.04-0.07 c0.48-0.85,1.21-2.14,0.66-3.89c-0.03-0.09-0.04-0.21-0.02-0.31l0.02-0.14c0.04-0.24,0.21-0.44,0.44-0.52l1-0.34l-0.02-0.09 c-0.04-0.19-0.08-0.38-0.13-0.61c-0.05-0.19-0.11-0.46-0.14-0.65c-0.06-0.32,0.13-0.63,0.43-0.74c0.04-0.02,1.47-0.53,2.46-0.89 l-0.59-0.66c-0.13-0.15-0.19-0.34-0.16-0.54l0.18-1.21c0.06-0.42,0.08-0.86,0.1-1.39l0.02-0.62c0.01-0.15,0.06-0.3,0.16-0.41 c0.79-0.91,1.27-1.9,1.44-2.93c0.03-0.19,0.15-0.36,0.31-0.46c0.1-0.06,0.22-0.1,0.34-0.1c0.01,0,0.02,0,0.03,0l0.03-2.3 c0-0.15-0.01-0.32-0.02-0.51c-0.01-0.18,0.04-0.35,0.16-0.49c0.46-0.54,0.84-1.12,1.12-1.74l0.03-0.06l-0.32-0.37 c-0.1-0.11-0.15-0.25-0.16-0.4l-0.3-6.12c-0.01-0.17,0.05-0.34,0.16-0.47l1.97-2.27l-0.01,0c-0.31-0.04-0.54-0.29-0.57-0.6 c-0.01-0.09-0.01-0.19-0.02-0.28c-0.01-0.2,0.07-0.39,0.22-0.52c0.12-0.11,0.28-0.17,0.45-0.17c0.03,0,0.06,0,0.09,0.01l1.02,0.15 l-0.65-1.22c-0.06-0.12-0.09-0.25-0.07-0.38l0.79-7.64c0.02-0.17,0.11-0.39,0.3-0.8c0.3-0.67,0.76-1.69,0.55-2.93 c-0.03-0.18,0.01-0.36,0.12-0.51c0.32-0.44,0.66-0.92,0.84-1.47c0.51-1.57,0.03-2.98-0.36-4.11c-0.42-1.25-0.56-1.82-0.2-2.43 c0.32-0.54,0.33-1.12,0.04-1.77c-0.11-0.24-0.06-0.52,0.11-0.71L348.58,192.3z M263.11,231.45l-0.05-0.02l-0.02-0.03 C263.07,231.41,263.09,231.43,263.11,231.45z M191.47,376.81c-0.32,0.95-0.26,1.99-0.21,2.92c0.04,0.69,0.08,1.35-0.03,1.95 c-0.74,4.41-2.46,8.58-4.12,12.6c-1.45,3.51-3.62,6.3-6.64,8.51c-0.12,0.08-0.25,0.13-0.39,0.13c-0.07,0-0.14-0.01-0.21-0.03 c-0.2-0.07-0.36-0.23-0.43-0.44c-0.09-0.29-0.17-0.58-0.26-0.87c-0.57-1.95-1.17-3.96-2.39-5.49c-2-2.49-2.63-5.36-3.29-8.41 c-0.33-1.52-0.67-3.1-1.21-4.62c-0.97-2.75-1.44-5.63-1.94-8.67c-0.24-1.44-0.48-2.93-0.79-4.41c-0.09-0.44-0.38-0.79-0.6-1.07l0,0 c-0.03-0.04-0.06-0.08-0.08-0.12c-0.06-0.12-0.08-0.25-0.07-0.38c0.08-0.59,0.05-1.17,0.03-1.74c-0.05-1.37-0.1-2.45,1.1-3.41 c0.95-0.76,1.27-2.59,1.31-3.45c0.04-0.86-0.12-1.46-0.49-1.81c-0.98-0.94-0.74-1.68-0.36-2.8c0.17-0.49,0.35-1.06,0.38-1.59 c0-0.05,0.01-0.09,0.02-0.14c0.05-0.2,0.19-0.41,0.47-0.83c0.39-0.57,0.79-1.15,0.72-1.87c-0.17-1.71,0.03-3.38,0.24-5.15 c0.32-2.71,0.66-5.51-0.36-8.53c-0.11-0.32-0.35-1.04-0.35-1.04c-0.84-2.56-1.72-5.21-3.78-7.27c-1.75-1.75-3.42-2.77-4.95-3.02 c-0.19-0.03-0.4-0.05-0.62-0.05c-1.59,0-3.77,0.85-4.48,2.11c-0.26,0.47-0.67,0.9-1.11,1.37c-1.06,1.13-2.38,2.54-1.86,4.98 c0.04,0.21,0.11,0.45,0.19,0.72c0.15,0.54,0.34,1.2,0.35,1.75l0.03,1.08c0.11,4.98,0.23,10.12,1.44,15.11 c0.13,0.55,0.5,1.03,0.83,1.46c0.06,0.08,0.14,0.19,0.21,0.29c0.12,0.16,0.15,0.37,0.1,0.56c-0.39,1.45-0.17,2.95,0.02,4.28 c0.29,2.06,0.55,3.83-0.94,5.48c-0.79,0.88-1.03,2.1-1.27,3.3c-0.09,0.47-0.18,0.92-0.3,1.33c-0.06,0.2-0.09,0.42-0.12,0.59 c-0.05,0.3-0.29,0.54-0.6,0.56c-0.09,0.01-0.17,0.01-0.25,0.01c-0.06,0-0.11,0-0.15,0c-0.15-0.01-0.3-0.07-0.41-0.18 c-1.29-1.22-2.38-2.52-3.25-3.86c-1.06-1.63-2.09-3.33-3.1-4.99c-1.34-2.21-2.73-4.49-4.22-6.66c-1.03-1.51-1.21-2.78-0.63-4.53 c0.66-1.99,1.39-4.31,1.78-6.7c0.78-4.79-0.91-9.05-2.86-12.95c-0.09-0.18-0.18-0.36-0.27-0.55c-0.39-0.82-0.84-1.74-1.5-2.47 c-0.84-0.91-1.66-1.36-2.51-1.36c-1.1,0-1.93,0.72-2.73,1.43c-0.35,0.31-0.72,0.63-1.09,0.86c-3.42,2.15-4.72,5-4.22,9.24 c0.16,1.35-0.03,2.77-0.23,4.27c-0.09,0.69-0.19,1.4-0.25,2.12c-0.01,0.17,0.03,0.34,0.12,0.49c0.51,0.8,0.63,1.93,0.76,3.13 c0.19,1.74,0.43,3.91,2.22,5.12c0.22,0.15,0.33,0.42,0.28,0.69l-2.57,12.49c-0.05,0.25-0.24,0.44-0.48,0.51 c-0.06,0.02-0.11,0.02-0.17,0.02c-0.19,0-0.37-0.08-0.5-0.22c-3.76-4.24-5.3-9.47-6.92-15.01c-0.22-0.75-0.44-1.51-0.67-2.26 c-0.32-1.05-0.3-2.42,0.05-3.59c1.35-4.56,1.97-9.38-2.66-13.7c-0.15-0.14-0.34-0.21-0.54-0.21c-0.16,0-0.31,0.05-0.44,0.13 c-0.63,0.42-1.22,0.91-1.82,1.39c-1.19,0.97-2.32,1.89-3.44,2.04c-2.92,0.39-2.91,2.08-2.89,3.35c0,0.24,0,0.49-0.01,0.74 c-0.03,0.48-0.24,1.09-0.45,1.68c-0.37,1.06-0.75,2.16-0.2,2.97c0.98,1.45,0.7,2.79,0.38,4.34c-0.14,0.66-0.28,1.34-0.32,2.05 c-0.08,1.49-0.23,3.01-0.37,4.49c-0.2,2-0.4,4.08-0.44,6.14c-0.06,2.84-1.25,4.35-3.73,4.76c-0.19,0.03-0.39,0.09-0.59,0.17 c-0.08,0.03-0.16,0.05-0.24,0.05c-0.19,0-0.37-0.08-0.5-0.23c-0.14-0.16-0.5-0.56-0.5-0.56c-0.8-0.9-1.56-1.75-1.94-2.69 c-1.82-4.46-3.5-9.08-5.15-13.59l-1.17-3.2c-0.27-0.73-0.47-1.6-0.63-2.65c-0.3-1.99-0.56-4.02-0.83-6.03l-0.25-1.92 c-0.11-0.82-0.25-1.65-0.39-2.48c-0.34-1.99-0.66-3.87-0.58-5.75c0.02-0.36,0.14-0.75,0.26-1.16c0.28-0.91,0.7-2.27-0.47-3.45 c-0.15-0.15-0.22-0.37-0.18-0.58c0.26-1.52,0.81-4.7,0.81-4.7c0.57-3.31,1.14-6.61,1.69-9.92c0.21-1.29,0.4-2.62,0.57-3.84 c0.25-1.8,0.52-3.66,0.86-5.46c0.1-0.53,0.38-1.12,0.66-1.7c0.47-1,0.96-2.03,0.73-3.07c-0.54-2.48,0.79-4.12,2.2-5.86 c0.62-0.76,1.25-1.54,1.72-2.39c1.98-3.63,5.92-5.99,10.12-8.28c3.46-1.89,7.16-3.5,10.74-5.05l0.11-0.05 c1.82-0.79,3.71-1.62,5.55-2.47c0.67-0.31,1.24-0.76,1.89-1.28c0.32-0.26,0.67-0.53,1.07-0.83c0.26-0.19,0.38-0.53,0.29-0.84 c-0.09-0.31-0.36-0.54-0.68-0.57c-1.15-0.11-2.22-0.14-3.26-0.17c-2-0.06-3.72-0.1-5.06-0.76c-1.17-0.57-2.39-0.85-3.74-0.85 c-1.37,0-2.67,0.28-3.95,0.56c-1.04,0.23-2.03,0.44-3.02,0.5c-1.53,0.09-2.93,0.96-4.28,1.8c-0.61,0.38-1.19,0.74-1.77,1.03 c-2.26,1.12-4.53,2.22-6.52,3.19L95,272.04c-0.13,0.06-0.25,0.17-0.32,0.29c-0.51,0.82-0.93,1.66-1.31,2.41 c-0.42,0.83-0.81,1.58-1.24,2.19l-1.28-0.64l-29.1-24.99l-3.41,0.76c2.91-3.63,6.68-7.59,11.63-10.23 c0.45-0.24,1.04-0.45,1.62-0.66c1.38-0.49,2.69-0.95,3.07-2.04c0.67-1.96,2.2-2.6,3.96-3.35c1.12-0.48,2.28-0.97,3.25-1.85 c1.69-1.54,4.07-2.34,6.6-3.2c1.07-0.36,2.18-0.74,3.24-1.18c0.32-0.13,0.65-0.25,1.01-0.38c0.07-0.03,0.15-0.04,0.22-0.04 c0.07,0,0.13,0.03,0.2,0.05l-4.66,1.54l3.72,8.7l8.02,3.7l17.26,13.56l12.95,4.32l11.71,2.71l14.12,3.24l-0.26,0.32 c-0.23,0.28-0.24,0.67-0.03,0.96c0.13,0.17,0.24,0.37,0.39,0.63c0.34,0.59,0.73,1.26,1.39,1.58c3.75,1.81,8.51,4.46,12.06,8.89 c0.41,0.51,0.89,0.94,1.35,1.36c0.4,0.36,0.81,0.72,1.14,1.12c0.79,0.95,1.63,1.87,2.45,2.77c2.03,2.22,3.95,4.31,5.08,6.79 l0.69,1.5c2.52,5.45,5.12,11.08,6.09,17.24c0.72,4.6,1.89,9.2,3.01,13.65c0.52,2.03,1.1,4.34,1.61,6.55 c0.37,1.59,0.67,3.03,0.71,4.46c0.02,0.73-0.08,1.48-0.19,2.27c-0.11,0.83-0.23,1.7-0.2,2.58c0.04,1.26,0.18,2.52,0.32,3.74 c0.14,1.29,0.28,2.5,0.31,3.74c0.04,1.59,0,3.21-0.04,4.78c-0.04,1.71-0.09,3.47-0.03,5.22c0.05,1.47,0.21,2.95,0.36,4.38 c0.2,1.87,0.39,3.64,0.37,5.44C192.81,369.89,192.62,373.39,191.47,376.81z M221.4,304.06c-0.09,0.16-0.2,0.33-0.3,0.49 c0.1-0.37,0.22-0.73,0.32-1.1c0,0.01,0.01,0.02,0.02,0.03C221.52,303.67,221.5,303.88,221.4,304.06z M325.53,316.24 c-1.17,1.17-0.75,2.54-0.47,3.44c0.13,0.41,0.25,0.8,0.26,1.16c0.08,1.88-0.24,3.75-0.58,5.75c-0.14,0.81-0.28,1.66-0.39,2.47 l-0.26,2c-0.26,1.95-0.52,3.97-0.82,5.95c-0.16,1.05-0.36,1.91-0.63,2.64l-1.18,3.22c-1.63,4.47-3.31,9.09-5.14,13.56 c-0.38,0.93-1.13,1.78-1.94,2.69c-0.16,0.18-0.33,0.37-0.5,0.56c-0.13,0.15-0.31,0.23-0.5,0.23c-0.08,0-0.16-0.01-0.24-0.05 c-0.21-0.08-0.4-0.14-0.59-0.17c-2.48-0.41-3.67-1.92-3.73-4.76c-0.05-2.06-0.25-4.14-0.44-6.16c-0.14-1.47-0.29-2.98-0.37-4.47 c-0.04-0.71-0.18-1.39-0.32-2.05c-0.33-1.55-0.61-2.89,0.38-4.34c0.55-0.81,0.17-1.91-0.2-2.97c-0.2-0.59-0.41-1.19-0.45-1.67 c-0.02-0.25-0.02-0.5-0.01-0.78c0.01-1.23,0.03-2.93-2.89-3.31c-1.12-0.15-2.24-1.06-3.44-2.04c-0.58-0.47-1.18-0.96-1.81-1.39 c-0.13-0.09-0.28-0.13-0.44-0.13c-0.2,0-0.39,0.08-0.54,0.21c-4.63,4.32-4.01,9.14-2.66,13.7c0.35,1.17,0.37,2.55,0.05,3.59 c-0.21,0.7-0.42,1.41-0.63,2.12l-0.04,0.14c-1.62,5.54-3.16,10.77-6.92,15.01c-0.13,0.14-0.31,0.22-0.5,0.22 c-0.06,0-0.11-0.01-0.17-0.02c-0.24-0.06-0.43-0.26-0.48-0.51l-2.57-12.49c-0.05-0.26,0.06-0.54,0.28-0.69 c1.79-1.21,2.03-3.38,2.22-5.12c0.13-1.19,0.25-2.32,0.76-3.12c0.09-0.14,0.13-0.32,0.12-0.49c-0.06-0.73-0.16-1.47-0.25-2.12 c-0.2-1.5-0.39-2.92-0.23-4.27c0.51-4.24-0.79-7.09-4.22-9.24c-0.37-0.23-0.72-0.54-1.09-0.86c-0.8-0.7-1.63-1.42-2.73-1.42 c-0.85,0-1.67,0.44-2.51,1.36c-0.66,0.72-1.11,1.65-1.52,2.52c-0.08,0.17-0.16,0.34-0.25,0.5c-1.94,3.89-3.64,8.16-2.86,12.95 c0.39,2.39,1.12,4.71,1.78,6.7c0.58,1.75,0.4,3.02-0.63,4.53c-1.49,2.18-2.88,4.46-4.22,6.66c-1,1.64-2.03,3.34-3.1,4.99 c-0.87,1.34-1.97,2.64-3.25,3.86c-0.12,0.11-0.27,0.17-0.43,0.18l-0.14,0c-0.08,0-0.16,0-0.25-0.01c-0.31-0.03-0.56-0.26-0.6-0.56 c-0.03-0.17-0.06-0.39-0.12-0.59c-0.12-0.41-0.21-0.86-0.3-1.34c-0.24-1.19-0.48-2.41-1.27-3.29c-1.49-1.65-1.24-3.43-0.94-5.48 c0.19-1.33,0.4-2.84,0.02-4.28c-0.05-0.19-0.01-0.4,0.1-0.56l0.21-0.29c0.32-0.43,0.69-0.92,0.83-1.46 c1.21-4.99,1.33-10.14,1.44-15.12l0.03-1.08c0.01-0.55,0.2-1.22,0.35-1.76c0.08-0.27,0.14-0.51,0.19-0.72 c0.52-2.44-0.8-3.85-1.86-4.98c-0.43-0.46-0.84-0.9-1.11-1.37c-0.71-1.26-2.89-2.11-4.48-2.11c-0.22,0-0.43,0.02-0.63,0.05 c-1.53,0.25-3.19,1.27-4.95,3.02c-2.06,2.06-2.93,4.7-3.78,7.27c0,0-0.24,0.74-0.35,1.04c-1.02,3.01-0.69,5.81-0.36,8.53 c0.21,1.77,0.41,3.45,0.24,5.15c-0.07,0.72,0.33,1.3,0.72,1.87c0.28,0.41,0.42,0.63,0.47,0.82c0.01,0.05,0.02,0.09,0.02,0.14 c0.03,0.53,0.22,1.09,0.38,1.59c0.37,1.12,0.62,1.85-0.36,2.8c-0.37,0.36-0.53,0.95-0.49,1.81c0.04,0.86,0.36,2.69,1.31,3.45 c1.2,0.96,1.15,2.04,1.1,3.41c-0.02,0.54-0.05,1.14,0.03,1.74c0.02,0.17-0.02,0.35-0.13,0.49c-0.01,0.01-0.02,0.02-0.03,0.03 c-0.23,0.28-0.5,0.63-0.59,1.05c-0.3,1.47-0.55,2.97-0.79,4.41c-0.5,3.04-0.98,5.92-1.94,8.67c-0.53,1.52-0.88,3.09-1.21,4.62 c-0.66,3.04-1.28,5.91-3.29,8.41c-1.23,1.53-1.82,3.54-2.39,5.49l-0.26,0.87c-0.06,0.21-0.22,0.37-0.43,0.44 c-0.07,0.02-0.14,0.03-0.21,0.03c-0.14,0-0.28-0.04-0.39-0.13c-3.02-2.21-5.19-4.99-6.64-8.51c-1.66-4.03-3.38-8.19-4.12-12.6 c-0.1-0.6-0.06-1.25-0.03-1.95c0.05-0.92,0.11-1.97-0.21-2.92c-1.15-3.42-1.34-6.91-1.38-9.88c-0.02-1.8,0.17-3.57,0.37-5.45 c0.15-1.43,0.31-2.9,0.36-4.38c0.06-1.74,0.02-3.51-0.03-5.22c-0.04-1.57-0.08-3.19-0.04-4.78c0.03-1.23,0.17-2.45,0.31-3.75 c0.14-1.21,0.28-2.47,0.32-3.73c0.03-0.88-0.09-1.74-0.21-2.59c-0.11-0.79-0.21-1.53-0.19-2.26c0.04-1.43,0.35-2.87,0.71-4.46 c0.51-2.22,1.09-4.52,1.61-6.55c1.12-4.45,2.29-9.04,3.01-13.65c0.97-6.15,3.57-11.79,6.09-17.24l0.69-1.49 c1.13-2.47,3.05-4.57,5.1-6.81c0.81-0.89,1.66-1.81,2.43-2.75c0.32-0.39,0.71-0.74,1.14-1.12c0.46-0.41,0.94-0.84,1.35-1.36 c3.55-4.43,8.31-7.08,12.06-8.89c0.67-0.32,1.05-0.99,1.39-1.58l0.03-0.06c0.11-0.2,0.23-0.4,0.36-0.57 c0.21-0.29,0.2-0.68-0.03-0.96l-0.5-0.61c-0.15-0.18-0.37-0.29-0.61-0.29c-0.09,0-0.17,0.01-0.26,0.04 c-1.01,0.35-2.05,0.67-3.07,0.97c-2.36,0.72-4.81,1.47-7.02,2.64c-2.95,1.57-5.91,3.53-7.62,7.24c-0.08,0.17-0.22,0.29-0.39,0.35 c-1.66,0.56-4.17,1.4-4.99,4.75c-0.14,0.56-0.73,1.08-1.62,1.82c-0.56,0.46-1.14,0.94-1.59,1.5l-0.24,0.3 c-1.09,1.37-2.21,2.78-3.11,4.31l-12.12,7.13l-22.99,0.94l-5.19,2.51c-0.52-1.12-1.03-2.25-1.58-3.35 c-0.98-1.96-2.37-3.7-3.72-5.38l-0.24-0.29c-0.45-0.57-1.03-1.04-1.6-1.51c-0.89-0.73-1.48-1.25-1.61-1.81 c-0.82-3.35-3.33-4.19-4.99-4.75c-0.17-0.06-0.32-0.19-0.39-0.35c-1.71-3.71-4.67-5.67-7.62-7.24c-0.74-0.39-1.51-0.72-2.28-1.04 l0.07,0.02h14.98l14.9-1.23c0,0,13.62,0.62,19.16,0.62s13.66-4.69,13.66-4.69l8.53-7.64l14.18-11.71l17.02-10.64l-1.68-0.84 c0.3,0.08,0.6,0.15,0.9,0.2c0.16,0.02,0.3,0.1,0.4,0.22l0.38,0.43c0.55,0.62,1.03,1.16,1.48,1.72c0.15,0.18,0.3,0.36,0.46,0.55 c0.44,0.52,0.76,0.91,0.88,1.21c0.8,2.2,2.05,3.56,3.71,4.05c0.27,0.08,0.56,0.14,0.85,0.17c0.3,0.03,0.53,0.26,0.58,0.55 c0.14,0.85,0.39,1.82,1.14,2.53c0.41,0.39,0.82,0.76,1.27,1.15c1.31,1.16,2.54,2.25,3.2,3.7c0.11,0.23,0.25,0.45,0.42,0.65 c0.21,0.23,0.22,0.58,0.04,0.83c-1.2,1.66-0.33,2.89,0.76,4.12l1.8,2.02l1.09-1.75c0.1-0.17,0.28-0.28,0.48-0.31 c0.03,0,0.06-0.01,0.09-0.01c0.17,0,0.33,0.06,0.45,0.18l0.43,0.4l0.98,0.32c0.24,0.08,0.42,0.29,0.45,0.54 c0.22,1.57,1.17,2.9,1.93,3.97l0.38,0.54c0.59,0.85,1.25,1.71,1.83,2.47c0.79,1.02,1.61,2.08,2.29,3.19 c1.35,2.21,2.56,4.62,3.72,6.95l0.28,0.55c0.17,0.34,0.29,0.74,0.43,1.2l0.03,0.09c0.34,1.12,0.72,2.38,1.77,3.3 c1.34,1.18,1.72,2.79,1.87,4.84c0.21,2.84,1.74,3.85,3.21,4.47c0.17,0.07,0.31,0.22,0.37,0.39c0.06,0.18,0.05,0.37-0.04,0.54 l-0.17,0.32c-0.28,0.53-0.57,1.07-0.9,1.59c-1.02,1.59-1.87,3.38-1.12,5.63l0.47,1.41l1.45-0.32c0.31-0.07,0.64-0.1,1.03-0.14 c1.08-0.12,2.31-0.25,3.18-1.15c1.78-1.85,3.33-3.94,4.61-6.21c0.15-0.27,0.29-0.54,0.43-0.81c0.5-1,0.71-1.33,1.28-1.47 c1.26-0.33,2-1.49,2.14-1.72c0.11-0.19,0.55-0.94,0.55-0.94c0.12-0.21,0.34-0.33,0.57-0.33c0.04,0,0.09,0,0.13,0.01 c0.28,0.06,0.49,0.28,0.53,0.57c0.07,0.57,0.05,1.13-0.07,1.7c-0.23,1.04,0.26,2.08,0.73,3.08c0.27,0.57,0.55,1.17,0.65,1.7 c0.35,1.8,0.61,3.65,0.87,5.51c0.18,1.24,0.36,2.53,0.56,3.79c0.55,3.31,1.12,6.62,1.69,9.92l0.81,4.7 C325.75,315.88,325.68,316.09,325.53,316.24z M223.53,297c1.01-2.7,2.16-5.3,3.47-7.78c-1.05,2.28-2.07,4.57-3.05,6.82L223.53,297z "/><path d="M110.75,49.88c0.19,1.59,1.62,2.37,2.18,2.67c0.16,0.09,0.51,0.6,0.72,0.91c0.22,0.33,0.45,0.66,0.7,0.96l1.32,1.61 l0.18-0.15l0.81,2.37l0.87-0.44l0.14,1.01l6.04,3.56c0.08,0.19,0.18,0.38,0.3,0.57c0.35,0.56,0.78,1.07,1.25,1.48 c0.6,0.52,1.17,0.91,1.76,1.19c0.43,0.2,0.85,0.31,1.19,0.39l0.06,0.01c0.76,1.03,1.77,1.52,2.52,1.89 c0.4,0.19,0.73,0.36,0.91,0.53c0.69,0.66,1.76,0.84,3.01,0.51c0.41-0.11,0.76-0.27,1.05-0.47c0.41-0.29,0.7-0.66,0.86-1.11 c0.09-0.26,0.24-0.44,0.52-0.63c0.04-0.03,0.08-0.05,0.12-0.08c0.54,0.69,1.21,1,2,0.93c0.02,0,0.04,0,0.06-0.01l0.38,0.21 l0.43,0.72l0.34-0.31l2.67,1.44l-1.27-2.68l0.76-0.67l1.73-0.87l-0.05-0.04c0.33-0.19,0.68-0.4,1.02-0.64 c0.82-0.57,1.56-1.15,2.33-1.76l2.19,2.34c0,0,0.73-2.83,0.92-3.53c0.4-0.2,0.69-0.35,0.99-0.46c0.56-0.2,1.13-0.45,1.69-0.69 c0.77-0.34,1.47-0.64,2.13-0.82c0.34-0.09,0.64-0.14,0.91-0.15c0.8-0.02,1.62-0.09,2.43-0.16c2.73-0.23,4.88-0.42,6.73,1.25 c0.81,0.73,1.79,1.04,2.65,1.31l0.36,0.12c0.28,0.5,0.68,1.15,1.21,1.74c0.52,0.57,1.09,1.06,1.59,1.49 c0.51,0.44,0.98,0.85,1.36,1.29c-0.01,0.02,0.04,0.25,0.08,0.41c0.1,0.38,0.21,0.82,0.43,1.27c0.66,1.4,1.3,2.54,1.99,3.55 c-0.07,0.93-0.07,2.91,1.81,4.14c0.23,2.2,0.45,4.32,0.63,6.45c0.04,0.49,0.04,0.99,0.04,1.48c0,0.59,0,1.06,0.02,1.53 c0.02,0.44,0.15,0.8,0.26,1.04c-0.09,0.63-0.2,1.26-0.3,1.89l-0.03,0.2c-0.12,0.7-0.24,1.4-0.33,2.1 c-0.08,0.57-0.14,1.15-0.19,1.73c-0.08,0.83-0.15,1.59-0.29,2.29c-0.25,1.23-0.58,2.33-0.99,3.27c-0.87,1.99-1.68,3.57-2.53,4.96 c-0.33,0.53-0.9,1.06-1.51,1.62c-0.11,0-0.22,0.01-0.32,0.03c-0.09,0.01-0.2,0.01-0.31,0.01c-0.4,0.01-0.84,0.02-1.31,0.14 c-0.32,0.09-0.61,0.22-0.86,0.39c-0.18,0.12-0.33,0.26-0.47,0.42l-0.35-0.17l-0.78,0.2c-0.26,0.07-0.48,0.17-0.69,0.32 c-0.24,0.16-0.44,0.37-0.61,0.57c-0.36,0.02-0.75,0.06-1.15,0.15c0.06-0.18,0.12-0.35,0.15-0.56l0.97-0.26l-0.26-1.03l0.32-0.43 l0.22-0.06l0.39-0.78l0.89-1.17l-0.6-0.61c0.15-0.77,0.32-1.7,0.01-2.7c-0.06-0.19-0.12-0.37-0.18-0.54c0-0.01-0.01-0.03-0.01-0.04 c0.72-0.81,1.28-2.02,0.9-3.26c-0.08-0.27-0.24-0.64-0.55-1c0.16-1.11-0.01-2.16-0.51-3.05c-0.05-0.08-0.09-0.16-0.15-0.24 l0.71-0.47l-1.6-1.78c-0.41-0.45-0.79-0.93-1.17-1.4l-0.1-0.13c-1.07-1.32-2.18-2.69-3.66-3.71c-1.87-1.28-4.42-1.48-6.23-1.42 c-0.96,0.03-1.89,0.16-2.75,0.39c-1.11,0.3-2.12,0.76-3.01,1.38c-0.89,0.62-1.67,1.4-2.32,2.32l-0.04,0.02 c-0.29,0.15-0.56,0.31-0.81,0.48c-1.37,0.95-2.18,2.32-2.39,4.07c-0.06,0.46-0.24,0.99-0.43,1.56c-0.25,0.73-0.53,1.56-0.64,2.49 c-0.15,1.35-0.01,2.89,0.39,4.57c0.3,1.22,0.83,2.27,1.34,3.29l0.21,0.42c0.33,0.66,0.84,1.06,1.18,1.32l0.19,0.15l0.09,0.09 l0.19,1.17c-1.14-0.18-2.19-0.39-2.88-0.85c-0.73-0.49-1.47-0.8-2.12-1.08c-0.63-0.27-1.21-0.52-1.65-0.86 c-1.9-1.51-3.98-2.73-6-3.92l-1.37-0.81c-1.93-1.16-2.89-3.07-3.74-5.6c-0.73-2.17-1.63-5.03-2.15-7.9 c-0.02-0.17,0.13-0.69,0.26-0.93c0.22-0.11,0.43-0.23,0.61-0.36c0.84-0.58,1.34-1.34,1.69-2.08l3.09,1.3l-1.1-4.1 c-0.03-0.1-0.04-0.19-0.06-0.27c-0.07-0.38-0.19-1-0.7-1.55c-0.42-0.46-0.92-0.74-1.32-0.94c0.15-0.26,0.34-0.53,0.54-0.8 c0.2-0.29,0.4-0.57,0.58-0.86c0.19-0.29,0.4-0.57,0.62-0.85l0.19-0.24c1.1-1.43,1-2.62,0.72-3.36c-0.28-0.73-0.96-1.67-2.65-2 c-0.72-0.14-1.69-0.27-2.71,0c-0.47,0.13-0.92,0.33-1.31,0.61c-0.41,0.28-0.78,0.64-1.09,1.07l-0.44,0.3 c-0.23,0.16-0.45,0.33-0.64,0.51l-0.19,0.17c-0.16,0.15-0.35,0.34-0.54,0.55c0.23,0.88,0.27,1.81-0.01,2.75 c-1.3,4.24-2.85,8.23-5.18,11.77c0.04,0.09,0.06,0.18,0.1,0.27c0.64,1.45,0.58,3.04,0.07,4.49l0.28,1.4 c0.23,1.19,0.48,2.53,0.88,3.89c0.29,0.97,0.88,1.7,1.35,2.29c0.14,0.17,0.27,0.33,0.39,0.5c0.15,0.22,0.34,0.42,0.53,0.62 c0.05,0.05,0.12,0.12,0.15,0.16c0.11,0.2,0.24,0.42,0.36,0.65l-0.37,0.2l0.91,2.03l0.82,1.88l0.78-0.34 c0.21,0.52,0.53,0.95,0.77,1.27c0.13,0.18,0.21,0.28,0.27,0.38l0.53,0.9l1.05,0.12c0.4,0.61,1.03,1.55,2.23,1.62 c0.04,0.05,0.09,0.11,0.12,0.16c0.12,0.15,0.24,0.31,0.38,0.47c1.11,1.28,2.55,2.47,4.18,3.47c1.85,1.13,3.8,2.05,5.67,2.93 l0.43,0.2c0.4,0.19,0.83,0.27,1.31,0.25c1.31,1.42,3.22,1.51,4.28,1.56c0.39,0.02,0.9,0.2,1.45,0.39c0.51,0.18,1.14,0.4,1.83,0.53 c0.51,0.1,1.03,0.22,1.56,0.34c1.82,0.42,3.68,0.86,5.61,0.52c0.71-0.12,1.5-0.09,2.34-0.05c1.24,0.06,2.52,0.11,3.91-0.26 c0.41-0.11,0.78-0.24,1.15-0.41c0.14-0.06,0.28-0.11,0.43-0.15c0.4-0.11,0.85-0.17,1.33-0.24c0.41-0.06,0.83-0.12,1.24-0.2 l1.81-0.36l-0.04-0.54c2.37-0.73,5.61-1.91,8.47-3.88c2.6-1.8,4.59-4.02,6.06-6.77c0.05-0.01,0.1-0.02,0.16-0.04 c0.28-0.07,0.52-0.19,0.74-0.33c0.95-0.66,0.98-1.8,0.93-2.53c0.16-0.17,0.33-0.3,0.45-0.4l0.19-0.16l2.03-1.79l-0.69-0.46 c0.59-0.79,0.6-1.57,0.54-2.02l0.15-2.27l0.72,0l0.05-0.29c-0.3-1-0.36-2.15-0.09-3.43c0.15-0.7,0.38-1.41,0.65-2.14 c-0.01-0.19,0-0.37-0.01-0.56c-0.01-0.15-0.01-0.31-0.02-0.46l0.38,0.11c0.42-1.04,0.89-2.09,1.27-3.1l-0.64-0.7 c-0.27-0.3-0.27-0.63,0.26-2.15l0.09-0.24c0.34-0.13,0.87-0.28,1.11-0.35c0-0.27-0.01-0.54-0.06-0.8 c-0.84-4.18-2.35-7.38-1.54-11.38l-0.24-0.12l-0.61-0.27l-0.12,0.26c-0.02-0.1-0.04-0.2-0.07-0.29c-0.24-1.01-0.47-2.02-0.81-3.03 c-0.26-0.76-0.78-1.25-1.26-1.58l0.05-0.07l-1.77-4.01c0.25-0.16,0.5-0.32,0.75-0.49c1.44-1,3.18-2.49,3.83-5.27c0,0,0,0,0.01,0 c0.03-0.02,0.15-0.17,0.24-0.28c0.23-0.3,0.51-0.65,0.73-1.09c0.32-0.62,0.52-1.23,0.73-1.82c0,0,0.18-0.53,0.19-0.56 c0.53-0.71,0.65-1.51,0.73-2c0.01-0.06,0.02-0.13,0.03-0.19c1.15-0.82,1.35-2.4,1.31-3.38l0.09,0l0.64-2.59 c1.46-1.9,1.21-4.14,1.05-5.11c0.02-0.03,0.04-0.07,0.06-0.1c0.23-0.11,0.43-0.23,0.61-0.36c2.09-1.45,1.37-3.68,1.13-4.41 c-0.04-0.11-0.09-0.25-0.11-0.36c0.14-0.55,0.12-1.09,0.03-1.57l0.05-0.01l-0.16-0.66l-0.37-1.24l-0.41-2.17l-1.25,0.42 c-0.73-0.65-1.6-0.68-2.13-0.65l-3.2-2.92l0.19,4.95c0,0.11-0.14,0.38-0.46,0.6c-0.14,0.1-0.29,0.17-0.44,0.21 c-0.1,0.03-0.21,0.04-0.3,0.04l-1.56-0.02l-1.15,3.85l-3.29,2.43l0.21,1.26c0.24,1.4,0.16,1.77-0.19,2.19 c-0.59,0.7-0.86,1.5-1.08,2.15c0,0-0.17,0.5-0.19,0.55c-1.33,0.94-1.6,2.37-1.76,3.24c-0.05,0.26-0.09,0.49-0.15,0.65 c-0.69,1.76-1.31,3.55-1.91,5.28c0,0-0.39,1.14-0.56,1.61l-0.6,0.02c-0.24,0.01-0.56,0.03-0.88,0.01 c-0.18-0.01-0.87-0.05-0.98-0.05c-0.45-0.55-1.29-1.15-2.76-0.88c-0.07-0.01-0.14-0.02-0.21-0.03c-0.65-1.01-2.04-1.23-3.39-1.45 c-0.59-0.09-1.19-0.13-1.8-0.17l-0.74-0.05l-4.92-0.44c-0.15-1.38-0.36-2.73-0.56-4.03l-0.03-0.17c-0.15-0.99-0.31-1.98-0.43-2.98 c-0.07-0.58-0.09-1.21-0.1-1.81c0.9-0.66,5.37-3.93,5.37-3.93l-5.6,0.3l0-0.15c-0.01-0.45-0.06-0.9-0.11-1.36 c-0.12-1.09-0.21-1.96,0.26-2.78l1.85-3.25l-2.56,0.1c-0.13-0.25-0.28-0.49-0.47-0.71c-1.13-1.34-2.96-1.56-4.24-1.61 c-0.21-0.01-0.55-0.09-0.88-0.18c-0.27-0.06-0.55-0.13-0.86-0.2l-1.53-0.32l-0.73,1.38c-0.11,0.2-0.23,0.41-0.35,0.62 c-0.7,1.18-1.68,2.84-1.32,4.89c-0.36,0.28-0.63,0.65-0.79,1.07c-0.15,0.39-0.2,0.81-0.15,1.24c-1.14,1.56-0.69,3.3-0.43,4.25 c0.01,0.03,0.02,0.07,0.03,0.1c-0.06,0.07-0.12,0.13-0.18,0.2l-0.98,1.16l0.79,1.27l-1.53,0.91l2.28,2.08 c-0.44,3.71,0.46,6.94,1.58,9.88l-3.07,1.81l-0.76-0.73l-1.35,2.19c-0.11,0.18-0.38,0.64-0.4,0.68l-1.1-0.2l-1.41,1.61l-1.79-1.41 l-0.73-0.57c-0.53-0.41-1.06-0.82-1.56-1.26c-0.41-0.36-0.78-0.77-1.16-1.17l-2.53-2.66c-1.65-1.74-3.31-3.48-4.99-5.19 c-0.51-0.52-1.1-0.8-1.52-1c-0.17-0.08-0.37-0.18-0.43-0.23c-0.94-0.73-1.86-1.49-2.89-2.34l-1.84-1.52l-0.5-0.1 c-0.14-0.07-0.52-0.58-0.78-0.92c-0.72-0.94-1.69-2.21-3.4-2.99l-0.41-0.18l-0.45,0c-0.31,0-0.62,0.04-0.92,0.12 c-0.43,0.12-0.84,0.31-1.22,0.57c-1.26,0.87-2.15,2.5-2.28,4.16l-0.02,0.23c-0.09,0.95-0.24,2.72,0.9,4.08 C110.25,49.48,110.49,49.7,110.75,49.88z"/><path d="M237.8,448c-0.13-2.67-0.61-5.13-2.92-6.94c-0.65-0.51-1.14-1.57-1.22-2.42c-0.3-3.26-0.53-4.07-2.45-6.64 c-0.2-0.27-0.44-0.7-0.36-0.95c0.4-1.15-0.44-1.97-0.63-2.94c-0.31-1.54-1.09-2.8-1.69-4.19c-0.71-1.64-0.99-3.48-1.41-5.05 c-2.3-0.73-5.05,0.18-5.62-3.2c-0.17,3.14-2.83,3.64-4.6,4.9c1.48,10.3,3.22,14.83,5.05,16.42c-0.18,0.26-0.52,0.54-0.5,0.79 c0.2,2.87,1.47,5.43,2.87,7.81c0.92,1.57,1.86,2.82,1.77,4.84c-0.12,2.74,1.33,3.93,3.71,3.61c0.22,0.44,0.45,0.9,0.72,1.43 c3.08-0.72,5.53,1.39,8.46,2.17c-0.04-2.09,0.13-3.81-0.75-5.58C237.64,450.94,237.86,449.38,237.8,448z"/><path d="M207.53,462.51c0.21-1.37,0.36-2.38-0.51-3.57c-0.52-0.71-1.18-1.73,0.31-2.65c0.47-0.29,0.08-1.99,0.08-3.04 c-0.43-0.07-0.83-0.14-1.32-0.23c-0.03-2.09,0.09-4.05-0.12-5.98c-0.18-1.61-0.74-3.18-1.13-4.77c-0.09-0.38-0.16-0.76-0.22-1.14 c-0.14-0.94-0.25-1.88-0.4-2.81c-0.28-1.72-0.47-3.47-0.89-5.16c-0.59-2.4-1.36-4.76-2.02-7.03c-1.95-0.12-3.5-0.21-5.2-0.31 c-0.84,1.62-0.71,3.58-0.51,5.45c0.4,3.82,1.01,7.62,1.54,11.42c0.15,1.11,0.52,2.23,0.44,3.32c-0.18,2.71,0.27,5.37,0.43,8.04 c0.05,0.85,0.1,1.74,0.13,2.62c0.07,2.56,1.4,5,0.52,7.66c-0.33,1-0.09,2.2-0.12,3.59c1.61-0.01,2.05,1.01,2.4,2.42 c0.45,1.84,1.31,3.58,1.97,5.31c1.87,0.01,0.54-1.91,1.7-2.31c1.66,1.17,2.09-1.17,3.5-1.3c-0.14-1.21,0-2.3-0.41-3.1 C206.57,466.8,207.21,464.61,207.53,462.51z"/><path d="M186.08,422.79c-1.06,2.22-2.12,4.45-3.05,6.72c-1.52,3.71-2.93,7.47-4.4,11.2c-0.12,0.32-0.41,0.57-0.54,0.89 c-1.6,3.86-3.21,7.71-4.75,11.59c-1.03,2.58-1.96,5.2-2.93,7.8c-0.46,1.25-0.91,2.5-1.49,4.09c2.05-0.93,2.84,0.1,3.48,1.29 c1.41-0.23,1.76-1.16,2.25-2.29c1.94-4.45,2.75-9.41,5.85-13.35c0.26-0.33,0.38-0.8,0.48-1.23c0.44-1.89,0.68-3.85,1.3-5.68 c0.89-2.64,2.08-5.17,3.08-7.78c0.9-2.35,1.69-4.74,2.54-7.11c0.71-1.96,1.25-4.03,2.25-5.83c0.56-1,1.67-1.67,1.25-3.04 C188.67,419.68,187.22,420.4,186.08,422.79z"/><path d="M228.03,455.33c0.39,0.41,0.63,0.68,0.91,0.91c0.03,0.02,0.46-0.32,0.43-0.38c-0.11-0.28-0.29-0.56-0.52-0.75 C228.76,455.03,228.46,455.2,228.03,455.33z"/><polygon points="108.19,224.23 110.39,223.51 107.94,224.02 "/></g></svg>