<svg xmlns="http://www.w3.org/2000/svg" x="0px" y="0px" viewBox="0 0 722.42 470.06" style="enable-background:new 0 0 722.42 470.06;"><style type="text/css"> .st0{fill:#FFFFFF;} </style><path d="M218,219.69l-3.38-1.57l3.15-2.56v-1.27l-5.3-2.54l2.77-3.81h-4.25l-0.21-2.75l1.01-1.14l-2.07-1.4h-2.37l-0.9-1.33 l1.63-2.92c0,0,2.25-0.44-0.72-2.97c-2.97-2.53-2.97-2.53-2.97-2.53l0.69-2.47h-5.93l1.55-1.19l0.36-2.71l-3.6-2.85l-1.98-0.03 l-3.1,0.03l0.31-2.96l0.97-3.72l-4.14-0.92l-1.09-0.97l1.21-2.56l-3.09-0.89l5.42-1.01l7.84,8.05l11.23,14.2l7.01,8.43l4.64,16.8 l3.18,13.34"/><g><path d="M331.02,378.82c-0.05-0.09-0.09-0.2-0.13-0.32c-0.1-0.4-0.2-0.8-0.3-1.2c-0.12-0.49-0.24-0.98-0.37-1.47 c-0.09-0.33-0.16-0.67-0.22-1.01c-0.15-0.74-0.29-1.44-0.61-1.93c-0.18-0.07-0.68-0.09-0.99-0.11c-0.31-0.02-0.63-0.03-0.92-0.07 c-0.02,0.04-0.04,0.08-0.06,0.12c-0.38,0.65-1.09,1.01-2.18,1.11c-0.09,0.01-0.19,0.01-0.28,0.02c-0.53,0.02-1.05-0.06-1.51-0.12 c-0.22-0.03-0.43-0.06-0.63-0.08l-0.51-0.05l-0.87-2.15c-0.18-0.03-0.36-0.08-0.53-0.13c0.27,2.16,0.01,4.48-1.66,6.73l-0.85,1.15 l-0.59-1.3c-0.3-0.67-0.76-1.68-1.24-1.67c-0.13,0-0.29,0.06-0.47,0.16c-0.55,0.3-1.01,0.98-1.45,1.64 c-0.23,0.34-0.46,0.67-0.69,0.97l-1.01,1.24l-1.63-5.59c-0.58,0.69-1.29,1.05-2.14,1.08c-0.71,0.02-1.39-0.19-2.04-0.39 c-0.45-0.14-0.87-0.27-1.24-0.3c-0.84-0.07-1.63-0.4-2.39-0.72c-0.24-0.1-0.49-0.2-0.75-0.3c-0.03,0.32-0.07,0.64-0.13,0.97 l-0.17,0.86l-2.46-0.59l0.19,1.21l-1.54,0.69l-1.26-2.12c-0.42,0.52-0.92,0.9-1.58,0.92c-0.54,0.02-1.04-0.21-1.57-0.61 c-0.33,0.54-0.81,0.83-1.42,0.85c-0.51,0.02-0.99-0.17-1.45-0.35c-0.26-0.1-0.51-0.2-0.71-0.24c-0.16-0.03-0.35-0.04-0.6-0.03 c-0.03,0-0.07,0-0.1,0l0.21,1.52l-2.43-0.38c-1.38-0.22-2.77-0.44-4.18-0.64c-0.03,0-0.12,0.01-0.28,0.07 c-0.47,0.17-0.95,0.27-1.42,0.28c-1.71,0.05-3.25-0.93-4.03-2.56c-0.12-0.24-0.29-0.48-0.49-0.73c-0.26,0.12-0.53,0.21-0.83,0.22 c-1.14,0.03-2.12-0.94-4.48-3.89l-0.58-0.73l1.02-0.66c-0.19-0.05-0.37-0.12-0.54-0.21c-0.55-0.26-1-0.66-1.36-0.98 c-0.13-0.11-0.25-0.22-0.37-0.32l-0.62-0.49l1.44-2.04c-0.08-0.1-0.15-0.21-0.22-0.3c-0.33-0.46-0.41-0.52-0.58-0.52 c-0.08,0-0.21,0.02-0.41,0.1c-0.13,0.05-0.27,0.08-0.41,0.08c-0.74,0.02-1.56-0.56-2.81-2.02l-1.48-1.71l2.23,0.33 c0.42,0.06,0.85,0.14,1.27,0.22c0.64,0.12,1.26,0.24,1.87,0.29c0.06-0.47,0.03-0.98,0-1.47c-0.02-0.4-0.05-0.85-0.01-1.3 l-0.61-0.39c-0.43-0.28-0.93-0.41-1.5-0.39c-1.84,0.05-4.07,1.74-4.33,4.07l-0.21,1.82l-1.24-1.35c-1.57-1.71-3.66-1.84-5.87-1.98 c-0.58-0.04-1.16-0.07-1.73-0.14c-0.92-0.1-1.7-0.22-2.13-0.59c0.62,1.06,0.62,2.23,0.62,3.21c0,0.96-0.01,1.79,0.47,2.44 l0.56,0.75l-7.62,4.47l0.06-2.49c-0.29,0.1-0.54,0.19-0.74,0.32c-0.55,0.34-1.03,0.85-1.54,1.4c-1,1.07-2.13,2.29-4.07,2.34 c-0.02,0-0.03,0-0.05,0c-1.49,2.24-3.82,2.49-5.87,2.7l-0.28,0.03c-0.5,0.05-1.01,0.08-1.52,0.11c-0.36,0.02-0.71,0.04-1.07,0.07 c-0.77,0.06-1.54,0.14-2.31,0.21l-0.99,0.1l-0.27,0.01l-1.03,0.99c0,0-1.28-1.26-1.62-1.59c-0.78-0.76-1.52-1.48-2.24-2.23 c-0.3-0.31-0.55-0.68-0.79-1.03c-0.25-0.37-0.63-0.92-0.84-0.97c-1.82-0.45-3.8-1.18-5.32-3.03l-0.47,2.29l-2.74-5.19l-0.39,0.24 l-1.88-1.57l-0.19,1.63l-1.24-1.33c-0.39-0.41-0.54-0.86-0.64-1.19c-0.04-0.13-0.09-0.27-0.13-0.34c-0.18-0.27-0.37-0.58-0.55-0.9 c-0.3-0.51-0.86-1.46-1.12-1.56c-0.66-0.06-1.47-0.21-1.92-0.84c-0.3-0.41-0.33-0.86-0.27-1.32c-0.23-0.06-0.46-0.09-0.65-0.09 c-0.06,0-0.19,0.01-0.24,0.06c-0.02,0.02-0.2,0.26-0.1,1.19c0.04,0.34-0.1,0.68-0.41,1.04c-0.28,0.32-0.92,0.88-1.54,0.9l-0.14,0 l-0.09-0.02c-0.87-0.16-1.64-0.54-2.39-0.92c0,0.01,0,0.03,0,0.04c0.01,0.16,0.02,0.31,0.02,0.47l0.02,0.76l-1.76,0.24l-0.36-1.52 l-2.79,1.81l-0.42-2.24c-0.32-0.35-0.54-0.35-0.65-0.34c-0.29,0.01-0.65,0.18-1.04,0.36c-0.47,0.22-1.01,0.48-1.6,0.49 c-0.29,0.01-0.56-0.04-0.82-0.14c-0.36,0.49-0.75,0.99-1.34,1.24c-0.16,0.07-0.35,0.11-0.54,0.11c-0.44,0.01-0.86-0.14-1.26-0.28 c-0.18-0.06-0.36-0.13-0.54-0.18l-0.62-0.15l-0.05-1.6c-0.06,0.01-0.12,0.02-0.18,0.04c-0.15,0.04-0.33,0.07-0.51,0.11 c-0.14,0.03-0.33,0.07-0.49,0.11c-0.13,0.67-0.45,1.63-1.41,1.66c-0.51,0.02-0.91-0.28-1.2-0.49c-0.01,0-0.01-0.01-0.02-0.01 l-2.33,1.44l-0.47-0.58c-0.48-0.61-1.62-2.02-2.17-2.01c-0.21,0.01-0.55,0.23-1.04,0.68l-1.27-1.08l0.25-0.38l-1.71,0.72 l-0.34-0.16c-0.47-0.22-0.8-0.66-1.11-1.07c-0.48-0.64-0.81-1.02-1.33-1.01c-0.15,0-0.33,0.04-0.52,0.11l-0.13,0.05l-0.14,0 c-0.32,0.01-0.59-0.15-0.82-0.51c-0.09-0.06-0.19-0.13-0.28-0.19c-0.32-0.22-0.63-0.43-0.91-0.53c-0.22-0.07-0.57-0.11-0.91-0.15 c-0.8-0.09-1.62-0.18-1.93-0.9c-0.18-0.4-0.28-0.4-0.39-0.4c-0.15,0-0.31,0.04-0.46,0.07c-0.22,0.05-0.48,0.1-0.75,0.11 c-0.1,0-0.2,0-0.34-0.01c-1.43-0.15-3.21-0.33-4.05-2.29c-0.12-0.27-0.23-0.55-0.34-0.83l-4.04,2.9l0.57-5.12 c-0.62-0.35-1.21-0.63-1.69-0.61c-0.28,0.01-0.71,0.11-1.24,0.92l-0.42-0.18l-0.43,0.17c-0.22,0.09-0.44,0.17-0.66,0.25 c-0.27,0.1-0.53,0.2-0.78,0.3l0.1,3.32l-1.52,0.22l0.03,0.96l3.86,3l-1.42,0.92c0.02,0.02,0.03,0.04,0.05,0.06 c0.41,0.57,0.8,1.1,1.06,1.74c0.31,0.76,0.47,1.55,0.59,2.18c0.04,0.21,0.08,0.4,0.12,0.56l0.09,0.39l-0.65,0.85l6.81,1.1 l0.19,0.41c0.16,0.35,0.21,0.68,0.19,0.98c0.36-0.12,0.7-0.14,0.8-0.14c0.5-0.01,0.85,0.14,1.05,0.46c0.41,0.66,0.43,1.49,0.4,1.92 c-0.02,0.27-0.11,0.53-0.22,0.77c0.3,0.21,0.63,0.41,0.82,0.41c0.77-0.02,1.55-0.21,2.37-0.4c0.36-0.08,0.72-0.17,1.07-0.24 l1.18-0.23l-0.55,3.48l-5.99,3.19l-0.08-0.41l-1.09,1.34l-0.53-0.14c-0.13-0.04-0.27-0.08-0.42-0.13c-0.31-0.1-0.62-0.2-0.86-0.19 c-0.12,0-0.32,0.01-0.56,0.5l-0.41,0.84c0,0-0.85-0.53-0.87-0.54c-0.02,0.51-0.1,1.61-1.17,1.7l-0.48,0.04l-1.01-1.44l-9.4,2.92 l-0.46,1.14l-1.3-0.19c-0.03,0.22-0.07,0.46-0.16,0.7l-2.95,0.18c-0.04-0.16-0.11-0.29-0.25-0.41c-0.06-0.05-0.17-0.11-0.29-0.17 c-0.13-0.07-0.27-0.14-0.39-0.22l-0.05,0.86l-4.48-1.87l-1.8,1.71l-2.09-0.05l-0.52-0.8l-1.62,0.74l-1.07-2.4l-0.74,2.16l-2.2-0.28 l-0.52-0.29l-0.14,0.21l-1-0.13c-0.2-0.16-0.37-0.31-0.54-0.45c-0.31-0.27-0.57-0.5-0.83-0.62c-0.1-0.05-0.37-0.07-0.65-0.08 c-0.15-0.01-0.32-0.02-0.5-0.04c-0.04,0.03-0.47,0.33-1.02,0.71l-1.7-0.23l0.61-1.29l-3.21,0.93l-0.04-1.07 c-0.04-1.11-1.15-2.04-2.42-2.03l-0.47,0.01c-1.54,0.03-3.41,0.07-4.59-1.62l-0.66,0.22l-4.95-2.24l0.04-0.21 c-0.14,0.02-0.28,0.04-0.42,0.04l-2.91-1.48c-0.53-0.49-0.99-0.91-1.52-0.94l-0.39-0.02l-0.23-0.3c-0.36-0.47-0.17-1.7-0.17-1.71 c0.06-0.29,0.19-0.52,0.3-0.71c0.04-0.07,0.09-0.17,0.1-0.17c0.11-1.64,0.21-3.39,0.22-5.1c0-1.26-0.04-2.56-0.09-3.81 c-0.02-0.56-0.04-1.11-0.06-1.67l0-0.09l0.02-0.09c0.1-0.54,0.42-0.98,0.73-1.4c0.22-0.31,0.46-0.63,0.53-0.91 c0.21-0.78,0.27-1.61,0.34-2.5c0.05-0.66,0.1-1.35,0.22-2.03c0.14-0.79,0.4-1.54,0.65-2.26c0.11-0.31,0.21-0.61,0.31-0.92 l0.25-0.78l2.03,0.59l-0.13,1.32l0.79-1.25l0.42-0.03c0.83-0.06,1.37-0.1,1.27-2.25l-0.02-0.42l-2.8-0.68l0.47-0.94 c0.57-1.14,1.51-1.74,2.78-1.78c0.74-0.02,1.5,0.13,2.31,0.3l3.01,0.61l-4.53,1.77l0.73,1.2c0.17,0.25,0.32,0.51,0.42,0.8 c0.37-0.63,0.75-1.27,1.16-1.9c0.3-0.45,0.81-0.5,1.22-0.53c0.13-0.01,0.27-0.02,0.41-0.05l1.35-0.25l-1.38,4.57l1.82,0.8 c0.11-0.74,0.21-1.44,0.43-2.12c0.21-0.66,0.92-0.77,1.44-0.86c0.11-0.02,0.2-0.03,0.28-0.05l2-0.57l-1.24,2.14 c0.05,0.02,0.11,0.04,0.17,0.07c0.43,0.19,0.97,0.53,1.06,1.1c0.1,0.61,0.25,0.74,0.29,0.74c0.21-0.01,0.57-0.15,0.88-0.28 c0.26-0.11,0.52-0.21,0.78-0.29l0.61-0.18l0.43,0.68l7.2-2.81l-1.74,3.24l4.06-1.81l-0.2,2.21c0.14-0.02,0.29-0.04,0.43-0.07 c0.9-0.14,1.84-0.29,2.77-0.31c1.3-0.04,2.38,0.15,3.42,0.6c0.42,0.18,0.82,0.26,1.24,0.25c1.08-0.03,2.13-0.71,3.27-1.53 c0.02-0.05,0.04-0.11,0.06-0.17c0.05-0.14,0.11-0.31,0.19-0.48l0.6-1.31l1.58,2.21l2.08-0.69l0.53,1.47 c0.22-0.13,0.47-0.35,0.75-0.71c0.37-0.47,0.86-0.79,1.3-1.06c0.15-0.09,0.3-0.19,0.44-0.29c1.38-0.98,2.21-3.16,2.04-4.47 c-0.27-0.11-0.55-0.21-0.82-0.31c-0.94-0.34-1.84-0.66-2.3-1.43c-0.29-0.47-0.45-0.56-0.45-0.57c-0.16,0.03-0.56,0.4-0.87,0.68 l-0.72,0.66l-0.54-0.81c-0.07-0.1-0.13-0.21-0.2-0.32c-0.07-0.11-0.15-0.27-0.2-0.31c-0.14-0.12-0.29-0.25-0.44-0.39 c-0.18-0.17-0.46-0.43-0.63-0.54c-0.37,0.12-0.63,0.3-0.7,0.48c-0.09,0.23,0.1,0.58,0.22,0.77l0.54,0.85l-2.13,0.86l-0.74-1.73 c-1.79-0.05-3.01-0.9-3.7-2.61c-0.08-0.2-0.28-0.41-0.54-0.65l-0.14,1.72l-5.51-2.15l-1.29,2.04l-0.71-1.13 c-0.25-0.39-0.47-0.84-0.68-1.26c-0.21-0.41-0.51-1.02-0.7-1.24c-0.54,0.04-1.19,0.42-1.89,0.82c-0.38,0.22-0.77,0.44-1.16,0.63 l-0.94,0.45l-0.64-2.75l-1.59,0.68l0.03,1.05l0.01,0.93l-1.79-0.14l-0.51-1.93c-0.4,0.44-0.84,0.82-1.42,0.91 c-1.33,0.21-1.82,0.75-2.01,2.19l-1.67-0.03l0-0.03l-0.53,0.69l-0.91-1.68l0.09,0.92l-3.38-0.88l-0.44,2.39l-1.73-0.37l-1.09-2.57 l-3.53,1.2l-0.74-1.73l-0.79,1.3l-2.74,0.68c0,0-0.25,0.47-0.25,0.47c-0.57,1.36-0.94,2.26-1.89,2.29 c-0.69,0.02-1.25-0.5-2.16-1.36l-0.53,6.54l-1.03-0.38c-0.36-0.13-0.69-0.28-0.99-0.41c-0.48-0.21-0.89-0.4-1.2-0.4 c-2.4-0.01-3.52-1.54-4.23-2.87c-0.07-0.13-0.14-0.26-0.22-0.39l-2.28,5.13l-1.88-0.67l0.4-1.96c-0.22-0.15-0.45-0.29-0.68-0.44 c-0.58-0.37-1.19-0.75-1.75-1.21c-0.29-0.23-0.47-0.54-0.62-0.79l-0.1,0.62l-2.36-0.28c0.04,0.18,0.07,0.4,0.11,0.63 c0.03,0.18,0.06,0.45,0.1,0.61c1.64,0.75,1.6,2.11,1.58,2.94c-0.01,0.22-0.01,0.44,0.01,0.59l0.2,1.18l-7.54-1.39l0.48,1.5 l-3.15,0.43l1.6,2.53l-5.16-0.13l0.16,1.46l-1.21,0.14l-0.41,2.23l-0.59,0.09c-4.1,0.61-4.1,1.01-4.07,3.19l0.01,1.11l-2.41-0.66 c-0.1,0.13-0.21,0.26-0.31,0.4c-0.65,0.86-1.45,1.93-3.02,1.97c-0.22,0.01-0.44-0.01-0.67-0.04c-0.15,0.09-0.42,0.34-0.62,0.62 c-0.33,0.47-0.59,1-0.87,1.56c-0.12,0.25-0.25,0.5-0.38,0.74l-0.42,0.79l-1.24-0.76l-0.88,1.75l-1.13-0.45l-1.28,1.94l-3.25-0.68 l0.73,1.46l-0.96,0.29c-0.19,0.06-0.38,0.13-0.57,0.21c-0.45,0.18-0.95,0.37-1.49,0.39c-0.09,0-0.18,0-0.27-0.01 c-0.15-0.01-0.3-0.02-0.44-0.01c-0.88,0.03-1.44,0.4-1.69,1.13l-0.23,0.67l-2.96-0.5c0.07,0.34,0.04,0.66-0.12,0.96 c-0.34,0.62-1.07,0.77-2,0.87c-0.31,0.8-0.14,1.69,0.05,2.71c0.26,1.34,0.55,2.85-0.36,4.31c-0.08,0.76-0.31,1.43-0.54,2.09 l-0.04,0.13c-0.05,0.13-0.1,0.27-0.16,0.4c-0.06,0.15-0.17,0.4-0.16,0.49c0.1,0.89,0.24,1.92,0.56,2.86l0.1,0.3 c0.44,1.32,0.78,2.21,1.6,2.58l0.16,2.41l-0.21-0.03l0.7,2.13l0.41-1.14l2.89,0.63l2.36-1l2.09-0.06l1.6-0.05l0.01,0 c0.22,0.04,0.5,0.06,0.86,0.08c0.22,0.01,0.44,0.03,0.67,0.05l-0.06-0.18l2.3-0.07l1.75-1.52l2.26,0.38l3.45,0.2l1.69-3.35 c0.6,0.75,1.23,1.52,1.8,1.5c0.08,0,0.16-0.02,0.25-0.05l-1.13-1.3l0.94-1.56l3.71,0.64c0.32-0.1,0.62-0.21,0.92-0.33 c0.57-0.21,1.05-0.4,1.54-0.41c0.25-0.01,0.48,0.03,0.69,0.12c0.48,0.19,0.95,0.28,1.45,0.27c0.84-0.03,1.69-0.34,2.59-0.67 l0.15-0.05c0.14-0.05,0.28-0.08,0.44-0.08c0.42-0.01,0.8,0.15,1.14,0.29c0.13,0.05,0.26,0.11,0.39,0.15l0.17,0.05l-0.96-1.77 c0.18-0.31,0.38-0.63,0.57-0.94l4.27-0.9l-0.26,0.4l1.89-1.21l-1.6,0.16l0.21-1.1c0.05-0.25,0.11-0.47,0.19-0.66l3.11-1.21 c0.33,0.14,0.67,0.33,1.02,0.6l0.28-1.37l0.94-0.56c0.24,0.04,0.47,0.08,0.71,0.13c0.01,0,0.02,0,0.02,0.01l-0.47-0.2l4.34-0.96 l1.53,1l1.51,0.48l0.19,0.44l0.74-0.15l3.89,1.24l0,0c-0.07,0.4-0.13,0.78-0.16,1.12l3.29-0.1l0.21,0.55 c0.36,0.92,0.37,1.66,0.03,2.26c-0.2,0.36-0.5,0.61-0.84,0.8l2.2,1.36l-1,0.59c0.61,0.21,1.22,0.43,1.82,0.66 c0.63,0.25,1.23,0.36,1.8,0.35c0.99-0.03,1.74-0.47,2.21-1.24l2.9,0.57l1.68,1.44c0.97-0.16,1.72-0.26,2.36-0.28 c0.04,0,0.08,0,0.12,0l2.58,0.86c0.63,0.56,1.13,1.39,1.67,2.48l2.12-1.55l0.52,1.15c0.25-0.06,0.53-0.15,0.81-0.25 c0.61-0.2,1.23-0.4,1.83-0.42c0.38-0.01,0.72,0.05,1.01,0.2c0.92,0.44,1.4,1.46,1.78,2.28c0.04,0.08,0.08,0.16,0.11,0.24l0.95-0.1 c-0.26-0.28-0.44-0.6-0.48-0.99c-0.02-0.27,0.02-0.53,0.14-0.79l1.02,0.44l1.82,0.89l-0.03,0.19l0.35-0.04l-0.18,1.24 c0.09,0.03,0.18,0.07,0.25,0.12l-0.04-1.37l6.32-1.61l0.29,0.08l0.07,0.83l0.73-1.19h0l2.79,0.13l0.02,0.53l3.16-0.35l0.11,0.16 l0.33-0.01l0.24,2.5l0.12-0.1c0.71-0.57,1.45-1.15,2.21-1.7c0.4-0.29,1.01-0.64,1.62-0.66c0.1,0,0.21,0,0.31,0.02 c0.38,0.06,0.73,0.32,1.01,0.64l0.2-0.75l0.74,0.64c0.21-0.55,0.59-0.9,1.13-1.13l2.59-0.44l0.43,1.59l-0.17,0.09l1.79,0.29 l0.79-1.45l1.8-0.49l0.06,0.37c0.03-0.14,0.07-0.28,0.1-0.42l2.71-0.74l1.22,0.97l3.09-2.14l2.3-0.44l-0.03-0.09l3.1-0.73 l4.24-0.74l1.49-0.65c0.14,0.03,0.29,0.07,0.48,0.07l0.11-0.33l1.95-0.85l3.95-0.49l3.31-2.6c1.5-0.2,2.74-0.75,3.73-2.21 l0.84-1.23l0.4,0.87l-0.03-1.1l4.15-2.03c0,0,0,0,0-0.01c0.17-0.61,0.61-1.04,0.97-1.39c0.11-0.1,0.21-0.21,0.3-0.3l1-1.18 l0.11,0.35l0-0.02l1.93-0.11l0.4,3.31c0.23,0,0.46,0.01,0.69,0.02c0.46,0.02,0.91,0.03,1.37,0.02c1.21-0.04,2.05-0.29,2.81-0.84 c0.19-0.14,0.43-0.22,0.69-0.22c0.36-0.01,0.74,0.11,1.13,0.24c0.02,0.01,0.05,0.02,0.07,0.02c0.44-0.55,0.94-0.7,1.32-0.71 c0.72-0.02,1.32,0.41,1.85,0.78c0.05,0.04,0.1,0.07,0.15,0.11l3.55-3.31l0.07,2.37c0.26-0.1,0.53-0.16,0.82-0.17 c0.8-0.02,1.51,0.33,2.15,0.65c0.16,0.08,0.31,0.16,0.47,0.22c0.92,0.41,1.78,0.93,2.68,1.48c0.21,0.13,0.42,0.26,0.65,0.39 l2.13-2.89l0.35,4.32l3.74-0.43l-1.83,2.52l3.51,1.54l0.1,0.71l0.85-0.68l0.44,0.16c0.26,0.09,0.5,0.18,0.73,0.25 c0.54,0.18,1.05,0.36,1.54,0.6c0.39,0.19,0.63,0.52,0.82,0.78c0.06,0.08,0.11,0.15,0.17,0.22l0.67,0.76l-0.87,0.52 c-0.09,0.05-0.18,0.12-0.27,0.18c-0.28,0.2-0.63,0.45-1.07,0.52c-0.23,0.04-0.45,0.07-0.68,0.09c1.34,0.06,2.85-0.07,3.85,0.21 c0.14,0.04,0.27,0.09,0.41,0.14c0.32-0.4,0.65-0.81,0.99-1.22l0.63-0.77l0.65,0.76c0.6,0.69,0.87,1.33,0.83,1.95l1.11-1.2 l0.55,0.25c0.35,0.16,0.68,0.34,0.99,0.52c0.37,0.21,0.82,0.47,0.95,0.48c0.13-0.08,0.39-0.49,0.55-0.74 c0.16-0.25,0.31-0.5,0.48-0.7l0.65-0.82l0.66,0.82c0.12,0.14,0.23,0.3,0.35,0.46c0.22,0.31,0.45,0.64,0.71,0.83 c0.2,0.15,0.53,0.26,1.03,0.43c0.31,0.1,0.67,0.22,1.1,0.39l2.22,0.85l-2.26,0.73c-0.56,0.18-0.92,0.37-1.15,0.58 c0.47,0.22,0.93,0.46,1.39,0.7l0.12-0.05l0,0.11c1.08,0.57,2.14,1.19,3.18,1.84l0.25-0.13l-0.03,0.27c0.31,0.2,0.63,0.39,0.94,0.59 c1.85,1.2,2.7,2.11,3.43,3.42c1.34,0.32,2.46,0.68,3.88,1.69c1.68,1.2,3.35,2.39,4.71,3.96c2.41,2.77,2.85,5.69,2.56,8.96 c0.1,0.34,0.38,1.56-0.29,2.21c-0.01,0.05-0.01,0.09-0.02,0.14c-0.02,0.1-0.02,0.19-0.03,0.29c0.37,0.02,0.89,0.05,0.89,0.05 l-0.65,2.43c1.05,2.71,4.66,3.34,7.73,2.69c4.55-0.97,8.6-2.81,13.3-3.28c3.01-0.3,5.84-0.36,8.54-1.85 c0.66-0.36,1.29-0.77,1.92-1.19l-0.36-1.71l1.34,1.04c1.14-0.79,2.27-1.59,3.48-2.26c2.02-1.11,3.89-1.39,6.12-1.78 c0.87-0.15,1.63-0.41,2.33-0.73l0.05-0.06l0,0.04c1.51-0.7,2.75-1.72,4.21-2.84c1.83-1.41,3.69-2.28,5.64-2.88l-0.16-0.12 l0.38-0.69l0.04-0.09c0.13-0.28,0.38-0.8,0.91-0.99c0.33-0.12,0.64-0.18,0.94-0.19c1-0.03,1.6,0.52,1.99,1.15 c0.32-0.05,0.65-0.11,0.97-0.16l0.05-0.33l4-0.4c0.36-0.11,0.71-0.23,1.04-0.37l-0.04-0.06c-0.75,0.3-1.23,0.46-1.67,0.47 c-1.23,0.04-1.6-0.97-2.12-2.36l-0.63-1.71c0,0,3.9,1.45,4.76,1.77c0.93-0.15,1.86-0.29,2.86-0.45c-0.21-1.79,1.16-2.44,2.03-2.86 c0.48-0.23,0.94-0.45,1.09-0.76l0.55-1.11l0.72,0.8l0.01-0.06c0.24-1.46,0.47-2.94,0.69-4.42c0.06-0.38,0.15-0.79,0.25-1.2 c0.16-0.69,0.39-1.63,0.2-1.96C331.08,382.08,330.46,380.65,331.02,378.82z M263.85,382.48l-0.52,1.11l-5.38-5.67l2.12,0.12 c1.73,0.1,3.08,0.76,3.71,1.82C264.24,380.66,264.27,381.59,263.85,382.48z M268.35,387.14l-0.49-1.43 c-0.46-1.33-0.71-2.06-0.28-2.73c0.45-0.7,1.27-0.78,3.08-0.95l1.99-0.19L268.35,387.14z"/><path d="M630.48,416.72c0.47,0.08,0.8,0.3,1.03,0.57c0.03-0.79,0.09-2.19,1.58-2.66l0.39-1.68l-2.71,1.59L630.48,416.72z"/><path d="M674.21,379.19c0.04,0.01,0.1,0.02,0.21,0.01c1.07-0.03,2.58-0.99,2.71-1.35c0.05-0.33,0.11-0.67,0.17-1l-4.18,2.17 C673.47,379.06,673.84,379.12,674.21,379.19z"/><path d="M521.06,383.1l0.09-0.03c-0.06-0.07-0.12-0.15-0.18-0.22L521.06,383.1z"/><path d="M473.07,381.07c0,0,0.03,0,0.08-0.02l-0.59-0.41C472.74,380.83,472.97,381.07,473.07,381.07z"/><path d="M578.86,301.5l-0.07,0.08c0.04,0,0.07,0,0.11,0L578.86,301.5z"/><path d="M151.57,310.48c0.04,0.4,0.15,0.95,0.29,1.31c0.11,0.08,0.37,0.2,0.56,0.29c0.28,0.13,0.57,0.27,0.86,0.44l1.24,0.73 l-0.24,0.68l-1.07,0.53c-0.8,0.4-1.18,0.68-1.35,0.84c0.17,0.15,0.42,0.33,0.6,0.46c0.28,0.2,0.62,0.44,0.92,0.73l-0.37,1.05 c0,0-1.7-4.74,0.04,1.2c0.09,0.3,0.17,0.58,0.25,0.85l-1.72,1.18c0.01,0.41,0.21,0.95,0.41,1.47c0.4,1.06,1.03,2.74-0.31,3.94 c0.06,0.63,0.15,1.25,0.23,1.86c0.22,1.62,0.43,3.17,0.24,4.69l0.19,0c0.38,0,0.76,0.02,1.14,0.04l0.09,2.76 c-0.59-0.08-1.21-0.24-1.75-0.66c-0.03,0.61,0.06,0.9,0.17,1.04c0.19,0.23,0.78,0.34,1.61,0.32c0.12,0,0.25-0.01,0.39-0.02 c0.1-0.01,0.2-0.03,0.32-0.05l0.99-0.15l-0.04-1.24l0.47-2.01c0.73-0.12,1.25-0.43,1.61-1.21l-1.05-1.17l0.56-2.38l4.39-5.91 l0.38-5.33c0.63-0.22,0.83-0.44,0.85-0.5c0-0.01,0.08-0.32-0.72-1.37l0.01-1.37l0.81-1.12l-0.11-3.8l0.9-3.48 c0.05-0.04,0.09-0.07,0.14-0.11c0.57-0.44,1.21-0.93,1.68-1.5c0.37-0.46,0.66-1.06,0.96-1.7l-1.82-0.39l0.78-1.33 c0.22-0.37,0.49-0.74,0.75-1.1c0.34-0.46,0.81-1.1,0.8-1.38c-0.07-1.65,0.39-2.78,1.46-3.49l-0.29-1.03l0.41-1.15l2.16-4.31l0,0 l0.18,0.3l0.08-0.25c0.1-0.3,0.19-0.6,0.28-0.89c0.06-0.2,0.12-0.41,0.19-0.62l1.39-2.78c0.44-0.6,0.96-1.07,1.63-1.22 c0.91-0.2,1.03-0.63,1.26-1.86c0.12-0.67,0.26-1.42,0.67-2.09c-0.1-0.25-0.29-0.62-0.42-0.86c-0.19-0.38-0.39-0.76-0.52-1.1 l-0.31-0.78l4.58-3.54l0.96,0.63c0-0.3,0.01-0.58,0.02-0.86c0.06-1.47-0.01-1.98-1.01-2.39l0.56-2.13l1.28,0.16l2.61-3.19 l0.57,0.39c-0.26-2.05,0.76-3.36,1.9-4.44c0.04-0.07,0.1-0.31,0.14-0.46c0.03-0.11,0.05-0.21,0.08-0.32l-0.21-1.62l2.47-4.93 l0.49,0.05l-0.6-0.42l1-1.19l3.52-1.57c0.05,0.04,0.12,0.08,0.16,0.11c0.07-0.1,0.13-0.18,0.2-0.27l2.46-1.1l-1.15-0.72 c0.08-0.12,0.17-0.23,0.25-0.35c-0.3-0.31-0.43-0.43-1.09-0.17l-0.05-0.03l1.26-0.98c0.16-0.12,0.3-0.22,0.43-0.32 c0.16-0.11,0.29-0.2,0.39-0.31c1.03-1.1,2.42-1.58,3.76-2.04c2.21-0.76,3.47-1.29,3.62-3.48l0.06-0.85l0.84-0.16 c1.02-0.2,1.32-0.86,1.84-2.21c0.17-0.45,0.36-0.93,0.62-1.41l-1.41-3.64l0.24-0.25c0.19-0.2,0.4-0.4,0.61-0.6 c0.4-0.39,0.79-0.75,1.04-1.14c0.04-0.07,0.08-0.13,0.12-0.21c-0.55,0.12-1.12,0.21-1.7,0.23c-0.11,0-0.21,0-0.31,0 c-0.34-0.01-0.67-0.16-0.92-0.42l-0.78-3.05c0-0.08,0-0.17,0-0.23l0.07-1.61l-0.66-0.47l-2,0.89l0.04,0.08l-2.91,1.44l-0.31-0.58 c-0.85,0.32-1.06,0.56-1.11,0.69c-0.03,0.09,0,0.28,0.12,0.54l-0.63,0.31l-5.2,9.15l-2.64,5.41l-1.94,4.63l-1.66,2.83 c-0.43,0.05-1.14,0.14-1.27,0.21c-0.3,0.42-0.61,0.77-0.93,1.06l1.63-0.05l-0.73,1.57l-1.73,3.93l-3.6,1.97l0.09-0.29 c-1,0.5-1.94,1.06-2.76,1.74l0,0v0c-0.83,0.69-1.54,1.53-2.06,2.58l-0.76,1.54l-1.09-1.33c-0.08-0.09-0.16-0.19-0.24-0.29 l-0.02,0.05c-0.12,0.4-0.22,0.79-0.32,1.16c-0.24,0.92-0.47,1.79-0.87,2.63c-0.12,0.25-0.27,0.47-0.44,0.66 c0.28,0.09,0.55,0.18,0.82,0.28c0.29,0.1,0.57,0.24,0.85,0.39l0.28,0.14l0.62,0.3l0,0.02c-0.57,0.98-1.11,1.92-1.53,2.66l-0.25-0.2 c-0.73-0.58-1.41-0.84-2.13-0.82c-0.81,0.02-1.65,0.4-2.54,0.79c-0.4,0.18-0.81,0.36-1.23,0.51l0.79,1.57l-1.04,0.67l2.5,0.46 l-6.13,5.51l2.78-0.6l0.68,1.51l0.4,0.98l-3,1.54c0.31,1.88-0.77,2.83-1.9,3.4l0.84-0.03l0.09,0.97l1.72-0.5 c-0.28,0.45-0.55,0.85-0.79,1.2l-0.9-0.33l0.13,1.42l-3.01,3.38l-0.12,1.08l-1.93,0.78l1.7,1.14l-0.03,0.23l-0.57,0.77 c-0.33,0.46-0.51,1.16-0.7,1.9c-0.18,0.72-0.41,1.6-0.88,2.38l1.98-0.28l0.16,1.45c-0.4,2.32-1.83,3.73-4.35,4.33l-0.11,0.03 c-0.2,0.05-0.49,0.12-0.68,0.19c0.02,0.06,0.06,0.14,0.11,0.24c0.5,0.96,0.9,1.99,0.51,3.03 C152.66,309.64,152.22,310.11,151.57,310.48z"/><polygon points="156.94,289.4 156.82,290.34 160.22,288.58 "/><path d="M156.08,338.04c0.11,0,0.26-0.01,0.41-0.26l-0.79,0.23C155.85,338.04,155.97,338.05,156.08,338.04z"/><path d="M206.44,226.4l-0.18-0.13c0.04,0.06,0.09,0.13,0.13,0.19C206.41,226.44,206.42,226.42,206.44,226.4z"/><path d="M359.62,360.76l-4.81,4.65l-2.07-0.94l-3.78-0.24l-0.97-0.06l-2.7,0.63l-3.41-1.02l-4.76,0.42l-2.86-1.97h-1.69l-0.65-0.6 l-5.64-2.99l-2.32,2.43c-2.18-0.57-4.55-1.12-5.26-1.01c-1.4,0.23-3.19-2.83-3.19-2.83h-1.4l-5.38,0.32h-4.19l-3.59-2.51h-1.2 c0,0-3.99,2.79-4.39,2.18c-0.4-0.61-2.39-2.18-2.39-2.18l-2.59,1l-2.62,1.79c-0.64-0.3-1.22-0.53-1.57-0.59 c-1.2-0.2-3.59,2.39-3.59,2.39l1.9,0.43h0l3.09,0.7l4.59,2.46l3.32,1.75c0.31,0.16,0.64,0.31,0.97,0.42l8.07,2.82l13.76-3.59l1,1.8 l8.58,1.79h2.99l8.02,2.87l5.11-1.32l0.98,0.1l9.42,2.21l6.56-2.39l2.44-3.19l0.19-3l-3.02-2.67L359.62,360.76z M302.14,362.03 l-0.01-0.12l0.41,0.04L302.14,362.03z"/><path d="M687.03,358.48l-0.13-0.04l-5.05,4.13l-0.43-1.06c-0.11-0.27-0.17-0.51-0.21-0.74c0.25-0.56,0.45-1.17,0.58-1.89 c0.37-0.36,0.84-0.58,1.19-0.74l-1.08,0.04c0.06-0.42,0.12-0.82,0.17-1.24l0.39-0.31c0.24-0.18,0.46-0.34,0.7-0.51 c1.43-1.02,1.5-1.25,1.2-1.76l-0.38-0.67l1.51-1.06l-1.27,0.32l-0.15-0.88c-0.13-0.7-0.02-1.27,0.29-1.69 c0.15-0.2,0.33-0.34,0.52-0.45l-0.93-3.8l0.9-0.38c-0.5-0.38-0.96-0.81-1.21-1.38c-0.18-0.42-0.19-0.84-0.12-1.26l-1.8,0.69 c-0.08-0.5-0.18-0.92-0.29-1.28l0.36-0.43c1.49-1.8,1.66-2.24,1.45-2.89l-1.21-0.26l-1.49,1.14c-0.21-0.75-0.17-1.59,0.54-3.35 c0.68-0.51,0.95-0.71,0.77-1.21l-0.43,0.07c0.64-3.01-1.8-3.63-2.6-5.48c-0.04-0.08-0.07-0.18-0.11-0.27h-0.01 c-0.05-0.14-0.11-0.3-0.18-0.44c-0.83-1.93-2.1-4.1-3.76-6.04l-1.2,1.13l-1.32-1.13l0.51-1.25l-1.91-0.25l-0.1-3l-1.44-1.82 l-2.95,0.37l1.03-2.64l-3.06,0.1c-0.07-0.12-0.14-0.25-0.23-0.38l-0.04-0.4c-0.17-1.77-0.63-1.89-1.39-1.87 c-1.34-2.07-2.38-3.17-3.17-3.72c0.04-0.05,0.06-0.1,0.1-0.13l-1.42-0.84l-0.56,0.75c-0.29,0.23-0.39,0.53-0.39,0.53l-1.74-0.83 l0.15-1.56c-0.36,0.31-0.7,0.63-1.07,0.92l-0.14,0.12l-1.49-0.73c-0.07-0.1-0.11-0.17-0.11-0.17l-0.24-0.49l0.33-0.42 c0.14-0.18,0.29-0.34,0.44-0.51l-1.37,0.05l-0.38-1.32c-0.05,0.01-0.1,0.01-0.12,0.01c-0.46,0.01-1.37-0.15-1.81-0.84 c-0.21-0.33-0.38-0.87-0.07-1.63c-0.02-0.06-0.06-0.14-0.11-0.21c-1.3-2-2.76-3.09-4.58-3.44c-1-0.19-1.82-0.71-2.29-1.47 c-0.25-0.39-0.39-0.83-0.43-1.28l-2.19-0.4l0.04,1.45l-2.34,0.37c-0.4-0.39-0.97-0.64-1.68-0.8l0.31-0.43 c0.68-0.94,0.64-1.2,0.64-1.22c-0.05-0.2-0.88-0.67-1.2-0.84c-0.3-0.17-0.69-0.29-1.12-0.42c-0.94-0.29-2.18-0.67-2.82-1.9 l-0.21,0.01c-0.31,0-0.62,0.01-0.92,0.01c-0.31,0.01-0.61,0.01-0.9,0.02c-0.42,0.01-0.83,0.04-1.25,0.07 c-0.06,0.01-0.14,0.04-0.21,0.06l0.94,1.52l-6.14,2.32l0.01,0.02l-4.33,1.17l-0.19-0.86c-0.01-0.07-0.04-0.15-0.06-0.25 c-0.11-0.38-0.31-1.12,0.39-1.41c0.68-0.29,1.37-0.55,2.05-0.78l1.21-0.45l0.86,2.41l1.49-1.99l1.32-1.75l-0.5-0.24 c-0.17,0.54-0.4,1-1.01,1.02c-1.01,0.01-2-0.06-2.88-0.12l-1.39-0.08l-0.12-0.69c-0.32,0.74-0.93,1.25-1.43,1.66 c-0.84,0.69-1.2,1.03-0.94,1.9l0.4,1.32l-2.57-0.48l-0.2-0.51c-0.12,0.33-0.29,0.63-0.54,0.89c-0.88,0.93-1.95,1.65-2.97,2.37 c-0.04,0.02-0.08,0.06-0.12,0.08c0.13,0.14,0.25,0.31,0.33,0.49c0.39,0.83-0.01,1.69-0.31,2.32c-0.08,0.18-0.17,0.34-0.23,0.51 c-0.33,1.01-1.06,1.9-2.26,2.84l-2.33,1.78l0.88-2.34c-0.54,0.61-1.05,1.22-1.56,1.85c-0.39,0.48-0.94,0.67-1.39,0.82 c-0.69,0.24-0.69,0.26-0.64,0.63l0.13,1.06l3.66-0.69l-4.78,2.58c-0.07-0.02-0.13-0.05-0.2-0.07l-2.58-1.09l3.73-0.69l-0.93-0.15 c-0.13-0.02-0.26-0.04-0.38-0.04c-0.45-0.02-1-0.06-1.43-0.43c-0.25-0.21-0.43-0.46-0.57-0.73l-2.69,2.38l1.2-3.95l-0.34-0.43 l-1.46,3.94l-1.39-1.83c-0.4,0.29-0.76,0.52-1.12,0.73c-0.15,0.1-0.33,0.15-0.5,0.2c-0.37,1.41-1.61,1.65-2.39,1.81 c-0.2,0.04-0.42,0.07-0.62,0.14c-0.06,0.01-0.14,0.08-0.24,0.15l1.2,1.3l-0.95,0.51c-0.8,0.44-1.53,0.65-2.25,0.68 c-0.69,0.02-1.33-0.15-1.93-0.5c-0.4,0.86-1.12,1.55-1.97,1.93l-3.82-0.24l-1.13-0.65l1.51-1.07c0.29-0.2,0.56-0.4,0.84-0.59 c0.17-0.12,0.34-0.24,0.52-0.36l-0.24-0.2l0.82-1.44c0.07,0.02,0.15,0.05,0.24,0.06l-3.08-4.72l1.62,0.06 c0.37,0.01,0.71,0.06,1.05,0.1c0.31,0.04,0.58,0.07,0.8,0.06c0.13,0,0.2-0.02,0.24-0.04c1.2-0.56,2.37-1.24,3.59-1.95 c0.2-0.12,0.42-0.24,0.63-0.36c-0.65-0.92-0.69-1.74-0.48-2.45l-3.29,2.34l-1.14-1.2l1.62-2.03l-0.25-0.02l-0.48-1.91l3.52-1.08 l-2.38-2.03l4.47-2.22l-0.82-0.32l0.92-1.32l-0.8-0.17l-0.02-1.64l4.13-1.03l-0.77-2.83l-2.75,2.93l-0.12-4.11l-1.2,0.04 l-0.42-1.58l4.04-2.08v-0.04c-0.04-0.13-0.08-0.27-0.12-0.4c-0.15-0.49-0.34-1.08-0.1-1.65c0.25-0.58,0.89-0.8,1.43-0.95 c-0.33-0.3-0.57-0.64-0.71-1.02c-0.24-0.61-0.23-1.3,0.05-2.08c-0.58-0.2-1.21-0.58-1.44-1.27c-0.25-0.71,0.05-1.41,0.42-1.96 l-1.49-0.74l0.96-0.65l-2.03-0.24l0.5-0.74l-0.55,0.45l-0.4-0.1c-1.02-0.24-1.85-0.44-2.51-0.57l0.31,1.53l-0.81,0.17 c-1.06,0.23-1.74,0.62-2.03,1.18c-0.29,0.52-0.25,1.27,0.12,2.22l0.23,0.59l-0.99,0.73l0.33,1.43c1,4.4,0.68,5.43-2.29,7.35 c-0.46,0.31-0.9,0.46-1.34,0.48c-0.84,0.02-1.4-0.49-1.81-0.86c-0.15-0.14-0.31-0.27-0.43-0.34c-0.14-0.1-0.39-0.3-0.45-0.71 c-0.07-0.44,0.07-1.32,0.49-1.77c0.2-0.23,0.51-0.36,0.89-0.37c0.12,0,0.24,0.01,0.36,0.02l-0.52-0.37l0.63-1.78l1.75,0.07 l1.52-2.5l-1.14,0.83l-2.59-1.76l1.56-2.28c-0.14,0.01-0.29,0.01-0.43,0.02c-0.01,0-0.01,0-0.02,0c-0.76,0-0.86-0.69-0.96-1.38 c-0.02-0.14-0.05-0.29-0.06-0.39l-0.15-0.83l2.45-0.43l-0.71-1.47l1.05-3.19l-1.33,0.14l-0.49-1.57l0.13-0.07 c-0.68-0.81-0.48-1.88-0.36-2.56c0.11-0.59,0.15-0.96-0.01-1.13l-0.71-0.69l0.8-0.58c0.19-0.15,0.3-0.26,0.37-0.33 c-0.08-0.07-0.21-0.17-0.3-0.24c-0.38-0.3-0.86-0.67-0.95-1.3l-0.02-0.17l0.18-0.64c0.39-1.39,0.77-2.71,0.73-3.98 c-0.01-0.17-0.01-0.33-0.01-0.51c-0.02-1.71-0.17-2.37-1.53-2.45l-2.2-0.14l1.74-1.36c0.69-0.55,0.64-0.94,0.38-1.96 c-0.01-0.05-0.02-0.11-0.05-0.15l-1.95,1.4l-1.24-1.06l0.58-1.18l-1.31,0.95l1.4-5.41l-4.42-3.34l0.38-0.63 c-0.01,0-0.34,0.08-0.34,0.08c-0.12,0.04-0.25,0.07-0.38,0.11c-0.42,0.12-0.86,0.25-1.25,0.26c-0.51,0.01-0.8-0.19-0.96-0.37 c-0.65-0.75-0.97-1.75-1.21-2.63c-0.02-0.1-0.04-0.19-0.05-0.29c-0.26,0.05-0.52,0.08-0.78,0.1c-0.2,0-0.4-0.01-0.59-0.04 c-0.5-0.08-0.93-0.27-1.39-0.52l0.25,2.47l-1.26-0.46c-2.1-0.77-2.07-2.35-2.06-3.29c0.01-0.34,0.02-0.68-0.06-0.88l-0.5-1.22 l1.61,0.08c-0.46-0.77-0.86-1.46-1.19-2.19c-0.23-0.51-0.71-1.81-0.23-2.69l0.2-0.38c0.63-1.12,0.77-1.43,0.04-2.06 c-0.48-0.42-0.31-1.02-0.21-1.34c0.02-0.07,0.05-0.18,0.06-0.24c-0.42-1.76-0.9-3.77-1.47-5.71c-0.08-0.05-0.21-0.11-0.3-0.14 c-0.2-0.1-0.39-0.19-0.55-0.3c-0.27-0.17-0.54-0.34-0.78-0.52l-0.94-0.63l0.34-0.67c0.65-1.24,0.76-2.43,0.3-3.35 c-0.44-0.88-1.39-1.49-2.68-1.7l-0.71-0.12l0.01-0.73c0.01-0.32,0.05-0.67,0.1-1.01c0.06-0.51,0.14-1.17-0.01-1.41 c-0.1-0.18-0.56-0.36-0.99-0.52l0.17,1.46l-3.72-0.18l-0.14-0.07c-0.46-0.21-0.76-0.31-0.99-0.3c-0.45,0.01-1.07,0.67-2.16,2.35 l-0.49,0.74l-2.62-1.94l-1.49,0.43l1.4,3.23l-2.21-1.27c-0.82-0.48-1.58-0.71-2.26-0.69c-0.9,0.02-1.72,0.48-2.6,1.43l-0.57,0.63 l-0.62-0.58c-0.68-0.64-1.27-0.86-1.59-0.84c-0.06,0-0.11,0-0.14,0.02l2.09,3.59l-2.43-1.12c-0.4-0.19-0.77-0.38-1.13-0.56 c0.02,0.71-0.05,2.08-1.81,2.35c-0.11,0.13-0.3,0.46-0.43,0.69c-0.18,0.3-0.37,0.63-0.58,0.93l-0.29,0.39l-3.56-0.3l0.68-1.15 c0.18-0.29,0.34-0.58,0.51-0.89c0.42-0.75,0.84-1.53,1.42-2.25c0.34-0.43,0.8-0.73,1.26-0.97c-0.3-0.06-0.65-0.07-1.08-0.06 c-0.34,0.01-0.71,0.04-1.08,0.07c-0.2,0.01-0.42,0.04-0.62,0.05l-0.21,0.8l-1.64-0.14c-0.11-1.37-0.5-1.36-0.92-1.34 c-0.24,0-0.5,0.05-0.78,0.1c-0.19,0.02-0.38,0.06-0.58,0.07l-1.12,3.39l-1.44-1.61l-1.06,2.15l-3.76-2.33 c-0.86,1.3-2.1,2.06-3.54,2.09c-0.04,0-0.06,0.01-0.08,0.01c-0.18,1.11-0.36,2.16-0.63,3.2l-0.19,0.62l-0.62,0.01 c-0.18,0.01-0.43-0.02-1.06-0.14c-0.06,0.34-0.12,0.7-0.18,1.06c-0.26,1.51-0.54,3.07-0.61,4.61c-0.02,0.64-0.23,1.28-0.42,1.89 c-0.5,1.56-0.73,2.27,1,2.9l1.25,0.46l-0.95,0.93c-0.83,0.81-1.03,2.37-0.93,2.87l0.25,0.13l0.23,7.82l-0.65,0.15 c-0.19,0.05-0.31,0.1-0.39,0.13c0.08,0.17,0.25,0.4,0.37,0.58c0.34,0.51,0.77,1.14,0.92,1.89l0.39,2.06l-1.7-1.21 c-0.36-0.26-0.73-0.48-1.08-0.68c-0.84-0.49-1.57-0.9-1.7-1.69c-0.07-0.45-0.17-0.92-0.26-1.38c-0.45-2.32-0.93-4.71,0.15-7.1 c-0.5-0.44-0.87-0.64-1.09-0.64c-0.24,0.01-0.62,0.24-1.09,0.54c-0.3,0.19-0.64,0.4-1.05,0.63c-0.56,0.3-1.17,0.44-1.56,0.54 c-0.1,0.02-0.17,0.04-0.24,0.06l-1.72,0.81l1.95,0.42l-0.57,1c-0.84,1.5-2.12,1.76-2.79,1.78c-0.69,0.01-1.4-0.19-1.89-0.56 c-0.37-0.26-0.69-0.39-0.99-0.38c-0.33,0.01-0.65,0.18-0.99,0.36c-0.06,0.02-0.13,0.06-0.19,0.1c0.01,0.17,0.02,0.34,0.04,0.51 c0.06,0.94,0.11,1.83-0.06,2.72c-0.18,0.86-1.2,0.99-2.85,1.09c-0.62,0.04-1.24,0.07-1.87,0.08c-0.43,0.01-1.49,0.04-1.58,0.04 c0.21,0.92,0.24,1.5-0.12,1.97c-0.26,0.34-0.67,0.52-1.2,0.55c-0.4,0.01-0.89-0.06-1.7-0.2c-0.9-0.15-1.8-0.3-2.68-0.43l-0.44-0.07 l-1.28,3.92l-1.64-3.16c-1.27,0.3-1.8,1.11-1.83,2.72l-0.06,2.32l-2.66-3.35c-0.94,1.26-2.16,1.47-3.08,1.5 c-0.48,0.01-0.96-0.02-1.43-0.06c-0.25-0.02-0.49-0.04-0.71-0.05c0.06,0.31,0.04,0.57-0.11,0.84c-0.27,0.5-0.76,0.61-1.49,0.75 c-0.02,0.02-0.06,0.06-0.06,0.08c-0.18,0.51-0.38,1.02-0.58,1.55c-0.5,1.25-0.96,2.44-1.06,3.63c-0.08,0.83-0.18,1.66-0.26,2.5 c-0.4,3.57-0.78,6.93,0.36,10.28c0.06,0.17,0.11,0.34,0.15,0.51c0.05,0.19,0.1,0.37,0.17,0.55c0.18,0.42,0.44,0.86,0.71,1.33 c0.67,1.15,1.36,2.35,1.07,3.51c-0.34,1.39,0.19,2.28,0.7,3.13c0.15,0.26,0.3,0.5,0.4,0.74l0.12,0.25l-0.05,0.27 c-0.52,2.65,0,4.97,0.5,7.22c0.24,1.05,0.45,2.05,0.58,3.07l0.11,0.87l-5.22,0.48c-0.1,0.01-0.2,0.02-0.31,0.04 c-0.38,0.01-0.71-0.11-1.01-0.2c-0.17-0.05-0.36-0.11-0.46-0.11c-2.21,0.25-4.46,0.63-6.63,1l-0.57,0.11 c-0.23,0.04-0.48,0.12-0.74,0.21c-0.42,0.14-0.88,0.31-1.38,0.32h-0.24c-0.67-0.05-1.3-0.19-1.9-0.33 c-0.71-0.15-1.38-0.31-2.03-0.29c-1.09,0.02-2.22,0.25-3.42,0.48c-0.57,0.12-1.15,0.23-1.77,0.33l-0.11,0.02l-8.04-0.83l-0.27,0.76 l-0.54,0.05c-0.5,0.05-0.98,0.1-1.44,0.14c-0.99,0.11-1.9,0.2-2.84,0.25c-1.59,0.07-3.19,0.13-4.78,0.2 c-2.18,0.08-4.42,0.17-6.63,0.3c-1.8,0.1-3.63,0.26-5.4,0.4c-1.24,0.11-2.47,0.23-3.8,0.31c-0.32,0.01-0.61-0.06-0.86-0.12 c-0.15-0.04-0.31-0.08-0.4-0.08c-0.27,0.01-0.61,0.01-0.95,0c-0.34-0.01-0.71-0.01-1.03,0c-0.17,0-0.29,0.01-0.37,0.02 c-0.69,1.59-1.99,1.82-2.93,1.84c-0.2,0.01-0.4,0.01-0.59,0c-0.18,0-0.36,0-0.52,0.01c-0.36,0.01-0.61,0.05-0.78,0.13 c-0.26,0.11-0.55,0.18-0.88,0.18c-0.3,0.01-0.58-0.02-0.87-0.05c-0.21-0.02-0.44-0.06-0.65-0.05c-0.1,0-0.17,0.01-0.24,0.02 c-0.74,0.21-1.47,0.43-2.21,0.65c-2.03,0.62-4.13,1.25-6.34,1.56c-1.83,0.26-3.69,0.69-5.48,1.11c-1.17,0.27-2.38,0.56-3.58,0.78 c-0.18,0.04-0.36,0.06-0.55,0.06c-0.38,0.01-0.76-0.02-1.12-0.07c-0.26-0.04-0.55-0.07-0.86-0.06c-0.26,0-0.46,0.07-0.54,0.12 c-0.63,0.44-1.25,0.93-1.9,1.44c-0.27,0.23-1.72,1.33-1.72,1.33l-1.51-3.53c-0.15-0.01-0.31-0.01-0.46-0.02 c-0.71-0.05-1.38-0.08-2.05-0.21c-0.43-0.07-0.81-0.23-1.18-0.39c-0.01,0.04-0.02,0.07-0.04,0.1c-0.11,0.25-0.25,0.62-0.33,0.86 c0.5,0.5,1,1.17,0.87,1.91c-0.17,0.89-1.05,1.24-1.69,1.5c-0.19,0.08-0.38,0.15-0.55,0.24c-0.56,0.32-1.13,0.59-1.7,0.86 c-0.52,0.24-1.02,0.48-1.5,0.74c-0.11,0.06-0.24,0.2-0.37,0.36c-0.17,0.18-0.34,0.39-0.58,0.56c-0.14,0.11-0.29,0.23-0.43,0.34 c-0.52,0.44-1.12,0.94-1.81,0.96c-0.08,0-0.17,0-0.25-0.01c-1.17-0.18-2.26-0.54-3.42-0.92c-0.44-0.14-0.88-0.29-1.33-0.43 l-0.58-0.17l-0.04-1.12c-3.1,0.23-5.54-0.99-8.03-2.73c-1.26-0.9-2.39-1.9-3.88-2.34h-0.05l-0.21-0.02l-0.13-0.07 c-0.01,0-0.01-0.01-0.02-0.01c-0.05-0.01-0.08-0.02-0.13-0.04c-1.95-0.37-4.21,0.01-6.18,0.1h-0.44c-0.49,0.17-0.96,0.32-1.44,0.49 l-0.11,1.02l-0.57-0.78c-1.3,0.44-2.58,0.87-3.89,1.25l-0.01,0.76l-0.43,0.12c-0.56,0.14-1.12,0.29-1.71,0.31h-0.08 c-0.49,0-0.94-0.1-1.34-0.27c-0.43,0.08-0.86,0.15-1.28,0.24l-0.11,1.43l-1.22-0.89c-0.13-0.11-0.24-0.19-0.37-0.29 c-0.23,0.04-0.45,0.07-0.69,0.1c-1.69,0.18-3.13,0.43-4.48,0.98l0.08,0.1l-0.73,0.19c-0.75,0.36-1.47,0.81-2.21,1.41 c-0.21,0.18-0.43,0.34-0.64,0.51l-0.82,0.83c0.34,0.32,0.67,0.76,0.95,1.33l0.77,1.55l-6.17-1.27l-0.37,0.65l-0.23-0.77l-1.75-0.37 l0.7-0.25c-3.19-0.96-5.22-4.01-6.92-6.93l-1.38,1.34l-0.55-0.94c-0.19-0.33-0.33-0.7-0.46-1.02c-0.33-0.87-0.45-0.99-0.67-0.99 c-0.11,0-0.29,0.04-0.57,0.15l-1.38,0.56l0.23-1.47c0.06-0.37,0.17-0.74,0.26-1.11c0.13-0.48,0.33-1.2,0.21-1.43 c-0.4-0.78-0.5-1.45-0.31-2.03c0.27-0.82,1.05-1.19,1.72-1.51l0.11-0.06c0.11-0.05,0.19-0.1,0.29-0.14 c-0.94-0.88-1.46-2.19-1.09-3.82c1.02-4.65-0.37-4.65-3.39-7.81c-1.4-1.46-2.68-3.06-3.88-4.71l-0.61,0.08l0.26-0.58 c-0.14-0.2-0.29-0.39-0.42-0.59l-1.14-1.31l0.12-0.23c-0.86-1.32-1.66-2.68-2.45-4.03l-6-0.51l0.55-0.49l-0.7,0.25l1.02-1.76 c-0.1,0.01-0.2,0.02-0.3,0.04c-0.5,0.01-1.12-0.19-1.52-1.09l-1.12,0.98l-1.41-0.98l0.51-2.14l-0.88-0.15l-0.32,1.41l-2.46-3.26 l1.32-2.26l-0.81,0.11l0.02-0.99c0.01-0.44,0.05-0.88,0.07-1.31c0.06-0.87,0.12-1.69,0-2.43c-0.14-0.93-0.44-1.83-0.76-2.78 l-0.01-0.01l-1.39,0.69l-0.3,0.2l0.01-0.06l-2.05,1.02l1-8.54c-0.58-0.42-1.28-0.65-2.08-0.69l-0.27-1.62l1.58-0.68l-1.94-3.39 l1.43-0.08l-0.42-1.97c-0.11-0.46-0.4-1.89-2.01-2.47c-1.51-0.54-1.88-2.03-2.2-3.92c-0.26-1.58-0.18-3.27-0.07-5.09 c0.04-0.81,0.08-1.62,0.1-2.43l-0.57-0.01l0.59-0.15c0.07-0.4,0.18-1.15-0.24-1.87c-0.1-0.18-0.13-0.24,0.38-0.88 c0.21-0.26,0.32-0.52,0.34-0.56l0.43-0.82l2.16,0.45l-2.62-6.08l-5.51-0.06l-0.52,0.75c-0.08,0.12-0.17,0.23-0.26,0.34 c-0.26,0.34-0.58,0.77-0.82,1.28l-0.2,0.43c-0.4,0.82-0.84,1.75-0.96,2.82c-0.08,0.8,0.08,1.52,0.2,2.12 c0.08,0.36,0.15,0.7,0.15,0.96c-0.01,1.07-0.01,2.19-0.32,2.98c-0.14,0.38-0.25,0.75-0.31,1.13h-0.56c-0.57,0.04-1.07,0.29-1.4,0.7 c-0.36,0.45-0.7,0.89-1.02,1.32l-0.04-0.4l-1.74,0.59l-1.03-1.7l-0.29,0.55l-1.78-0.27l0.06-2.2l-2.26,0.88l-0.73-1.44 c-0.3-0.58-0.61-1.19-0.93-1.78c-0.04-0.06-0.07-0.12-0.11-0.18c-0.1,2.41-1.78,3.21-3.04,3.6l-0.18,0.05l1.11,1.99 c0.99,1.78,0.89,3.46-0.25,4.63c-0.13,0.25-0.26,0.49-0.38,0.74c-0.38,0.73-0.76,1.47-1.32,2.12c-0.36,0.42-0.87,0.55-1.37,0.61 l0.29,0.99l2.73,0.05l0.13,1.24l2.56-0.9l0.89,1.45l1.42-1.03l0.3,1.63l0.46,0.02c0.11,0,0.21,0,0.32,0.01v0.02l1.31,1.25 c0.26-0.21,0.59-0.44,0.96-0.59c0.18-0.07,0.37-0.12,0.57-0.12c0.29-0.01,0.57,0.05,0.78,0.1c0.1,0.02,0.18,0.04,0.25,0.05 l0.24,0.02l2.69,2.06l1.26-0.3l6.11,8.82l-0.18,0.43c-0.06,0.14-0.11,0.26-0.14,0.37c0.15-0.04,0.32-0.07,0.49-0.11 c0.37-0.08,0.76-0.17,1.12-0.18c0.9-0.04,1.27,0.46,1.41,0.75l0.3,0.64l-1.66,1.18l4.04,2.41l-2.7,0.67l4.34,1l-1.24,1.05 c-0.11,0.12-0.34,0.38-0.73,0.46c-0.56,0.13-1.12,0.2-1.65,0.26c-0.58,0.08-1.27,0.5-1.68,1.05c-0.23,0.3-0.25,0.5-0.24,0.55 c0.11,0.65,0.15,1.31,0.2,2.02c0.25,0.23,0.48,0.48,0.69,0.78c0.24,0.34,0.46,0.7,0.67,1.05l2.28,1.08l-0.94,0.25l-0.34,0.82 c0.38,0.98,0.67,2,0.92,3.04l1.47,0.43l-1.19,0.9c0.02,0.15,0.06,0.32,0.1,0.49c0.55,2.78,1.63,4.95,2.81,7.48 c1.33,0.11,2.31,0.77,2.91,1.7l2.35-1.47l-0.12,3.07l3.04,3.19l-6.35,1.4l-0.02-0.13c-0.06,0.04-0.12,0.07-0.18,0.11l-0.81,3.12 l-0.02-0.02c-0.17,1.06-0.33,2.12-0.48,3.2c-0.26,1.91-2.27,2.97-3.96,3.2c-2.81,0.37-1.96,0.68-2.78,3.35 c-0.76,2.5-1.84,4.84-3.78,6.65c-4.26,3.97-11.08,4.83-16.65,4.46c-1.82-0.12-3.1-1.06-3.75-2.29c-2.19,0.39-4.08,0.99-5.48,3.07 l-0.67,0.99l-0.7-0.96c-0.43-0.57-0.87-1.11-1.3-1.63c-1-1.21-1.95-2.35-2.49-3.72c-0.52-1.32-0.57-2.77-0.64-4.29 c-0.01-0.56-0.04-1.12-0.08-1.7l-5.05-2.85l1.89-1.05l-2.2-2.97l-0.2,0.58l-0.75-0.19c-0.27-0.07-0.51-0.19-0.69-0.34l0.34,0.87 l-3.03-1.45c0.55,1.01,1.11,2.07,1.15,3.22c0.06,1.14-0.45,2.22-0.9,3.16c-0.1,0.19-0.18,0.38-0.26,0.56l1.57,2.25l-1.37,0.93 l1.01,0.55l-1.06,3.98l-0.27,0.18l-0.27,0.14l-0.23,0.01c-0.37,0.01-0.67-0.17-0.92-0.38l-0.01,0.13l-2.03,0.23l0.29,0.14 l-0.61,0.8c-0.02,0.04-0.05,0.08-0.07,0.12c-0.12,0.19-0.3,0.46-0.62,0.64c-0.68,0.37-1.37,0.73-2.05,1.08 c-0.83,0.43-1.65,0.86-2.47,1.3c-0.05,0.17-0.13,0.38-0.29,0.58c-1.74,2.18-4.03,3.47-6.28,3.54c-0.86,0.02-1.7-0.13-2.49-0.46 c-3.48-1.45-6.11-3.9-7.4-6.9c-0.26-0.62-0.48-1.31-0.05-1.82c0.39-0.49,0.57-0.89,0.51-1.2c-0.06-0.37-0.46-0.77-1.2-1.22 l0.54-1.55l0.8,0.08c-0.64-1.03-0.86-2.2,0.15-3.76c0.1-0.17,0.24-0.34,0.38-0.54c0.33-0.44,0.76-1,0.7-1.39 c-0.05-0.31-0.37-0.59-0.64-0.78l-1.46-1.05l3.17-0.81c-0.29-0.43-0.44-0.88-0.44-1.33c-0.01-0.69,0.31-1.36,0.94-1.99l0.59-0.58 l1.44,1.44l0.34-1.2c-1.32-1.32-1.33-2.82-0.06-4.68c0.21-0.31,0.26-0.82,0.32-1.37c0.12-1.05,0.29-2.47,1.75-3.33l0.64-0.37 l0.1,0.13l0.32-0.65l-0.58,0.34l-0.77-4.92l1.9,0.62c0.43,0.14,0.87,0.29,1.3,0.43l-0.08-0.57l2.34-0.33c0,0,0-0.01,0.01-0.01 c0.55-0.39,1.31-1,2.03-1.37c-0.94-1.87-0.44-4.34,1.47-5.49c1.01-0.61,2.6-1.08,3.77-1.8l0.14-3.01l1.52,0.88 c0.2-0.57,0.34-1.18,0.59-1.69c1.02-2.12,2.54-3.92,4.92-4.44c0.29-0.06,0.57-0.1,0.86-0.13l-0.06-1.87l1.08,1.81 c1.03-0.01,2.06,0.08,3.08,0.13c-0.02-0.14-0.05-0.27-0.1-0.43l-0.43-1.57l2.44,0.88l0.62,1.01c0.33-0.06,0.68-0.13,1.01-0.24 c2.08-0.63,3.98-1.56,6.18-0.84c1.27,0.42,2.09,1.09,2.77,1.91l0.99-1.08l0.92,3.01h0.11c0.87-0.04,1.34,0.61,1.66,1.02 c0.1,0.13,0.21,0.29,0.3,0.36l1.18,0.51l0.14,0.3c0.3,0.64,0.74,1,1.28,1.24c0.32,0.04,0.65,0.07,1.01,0.12 c0.81,0.11,1.55,0.26,2.22,0.45l1.26-2.02l1.72,0.8l-0.56,2.41c0.06,0.04,0.11,0.08,0.17,0.13c0.51-0.68,1.3-0.99,1.89-1.21 c0.88-0.34,1.21-0.52,1.31-1.05l0.04-0.13c-0.25-0.46-0.5-0.93-0.65-1.4c-0.3-0.89-0.29-1.88-0.26-2.81c0.01-0.51,0-0.98,0-1.37 c-0.76-0.19-1.55-0.56-2.1-1.08c-0.3-0.29-0.52-0.59-0.73-0.92c-1.47-0.27-2.81-1.22-3.16-2.82c-0.06-0.25-0.1-0.57-0.13-0.89 l-0.15-0.02l0.04-0.04c-0.29-0.11-0.55-0.23-0.81-0.37c-1.22,0.87-2.88,0.88-4.24,0.32l-0.2,0.52l-1.62-0.21 c-0.06-0.71-0.12-1.3-0.13-1.8c-0.61-0.86-0.84-1.96-0.4-3.2c-0.13-0.11-0.25-0.21-0.38-0.33c-0.76-0.01-1.74-0.07-1.99-0.13 c-0.57-0.15-1.02-0.4-1.44-0.73c-1.12,0.26-2.14,0.81-3.29,1.17c-1.37,0.42-2.63,0.12-3.61-0.62c-0.21,0.18-0.43,0.36-0.63,0.51 c-1.31,1.07-2.66,1.72-4.36,1.64c-1.76-0.1-2.87-0.84-4-1.93c-0.07-0.02-0.15-0.05-0.23-0.07c-0.44,0.61-2.25,1.44-2.79,1.7 c-0.5,0.25-0.99,0.42-1.47,0.5c-0.59,1.41-1.91,2.49-3.33,2.79l-0.18,0.32l-0.02-0.29c-1.3,0.23-2.63-0.21-3.54-1.59 c-0.37,0.1-0.78,0.15-1.27,0.19c-0.25,0.02-0.5,0.05-0.76,0.08l0.37,1.05l-1.12,1.27l-1.84-1.06l-1.51,1.08l1.74-0.05l-0.62,1.25 c-0.29,0.56-0.54,1.14-0.77,1.71c-0.56,1.34-1.09,2.6-2.02,3.63c-1.62,1.76-2.73,3.54-3.52,5.62c-0.25,0.63-0.76,1.08-1.26,1.51 c-0.08,0.07-0.18,0.15-0.27,0.23c0.21,0.75,0.3,1.47-0.08,2.02c-0.23,0.32-0.56,0.52-0.99,0.62c0.02,0.04,0.06,0.06,0.1,0.08 c0.65,0.56,2.02,1.72,0.69,3.53l-0.43,0.58l-1-0.52l-1.08,2.53l1.02,1.31l0.46,0.65l-1.43,1.22l-0.95-0.73 c-0.02,0.07-0.06,0.14-0.1,0.2c-0.34,0.78-0.64,1.47-0.7,2.13c-0.07,0.71,0.07,1.49,0.25,2.38c0.08,0.45,0.18,0.92,0.24,1.4 l0.2,1.38l-2.72-0.99c0.12,1.7-0.8,2.84-1.68,3.7c0.58,0.18,0.96,0.43,0.95,1c-0.04,1.15-0.18,2.29-0.33,3.5l-0.14,1.11l-0.2,1.77 l-0.61-0.63l0.94,1.69l-1.82,1.63l0.54,2.68l-1.55-0.71c-0.02,0.37-0.04,0.73-0.05,1.08c0,0.13,0,0.21,0.01,0.26 c1.52,1.76,0.36,3.29-0.42,4.32c-0.27,0.37-0.46,0.93-0.46,1.03c0.12,0.24,0.38,0.5,0.65,0.77c0.65,0.63,1.82,1.75,0.84,3.41 c0.04,0.08,0.07,0.15,0.11,0.25c0.32,1.08,0.64,2.16,0.94,3.17l0.21,0.77l4.93,5.87l-0.04-0.97l3.61,3.72 c1.05,0.2,1.81,0.89,2.4,1.41c0.27,0.25,0.52,0.48,0.75,0.62l0.39,0.23l0.05,1.52l1.08-0.26l-0.01-0.02l3.1-2.54l2.59,3.26 l-0.61,1.03c0.07-0.04,0.14-0.07,0.21-0.12c0.32-0.2,0.67-0.5,1.02-0.81c0.8-0.68,1.62-1.39,2.6-1.41h0.26 c1.19-0.04,1.62-0.62,2.33-1.58c0.14-0.2,0.29-0.39,0.44-0.59c0.65-0.83,1.56-1.41,2.43-1.97c0.34-0.23,0.7-0.45,1.02-0.69 l0.21-0.15l0.38-1.71l1.09,1.19c0.37,0.4,0.52,0.84,0.63,1.17c0.04,0.11,0.1,0.27,0.13,0.31c0.11,0.13,0.45,0.29,0.64,0.27 c0.7-0.06,1.42-0.2,2.25-0.38c0.11-0.02,0.2-0.05,0.31-0.07l-2.95-1.36l0.88-0.86c0.81-0.77,1.74-1.5,3-1.53 c0.45-0.01,0.94,0.06,1.43,0.24c0.46,0.15,1.3,0.45,1.52,1.14h0.01l0.81,0.44l0.64,0.43c0.1,0.07,0.21,0.14,0.32,0.2 c0.19,0.11,0.39,0.24,0.58,0.39c-1.61,9.26,4.74,21,10.25,23.34l0.25,0.11l0.69,1.18c0.32,0.55,0.57,0.98,0.83,1.41 c0.48,0.77,1.33,1.13,2.33,1.53c1.18,0.49,2.47,1.02,3.22,2.38h0.07l0.13,0.04c0.43,0.13,0.89,0.21,1.38,0.3 c1.44,0.25,3.07,0.54,4.2,2.2c0.11,0.05,0.4,0.11,0.83,0.1c0.1,0,0.18-0.01,0.26-0.01c0.39-0.06,0.77-0.26,1.22-0.5 c0.61-0.34,1.31-0.71,2.21-0.75c0.36-0.01,0.71,0.04,1.08,0.14c1.11,0.32,2.1,0.81,2.2,2.03c0.01-0.04,0.02-0.07,0.02-0.11 c0.06-0.19,0.11-0.38,0.14-0.57l0.2-0.73l1.9,0.13l0.2,0.59c0.4-0.57,0.89-1.19,1.63-1.41l-1.11-1.57l-2.71-1.45l5.67-3.28 c-0.45-0.37-1.11-0.59-1.83-0.83c-1.38-0.48-3.23-1.11-3.48-3.25l-2.25-1.22l-0.25,0.56l-1.59-0.5l0.1-1.21 c-0.42-0.05-0.69-0.24-0.86-0.39c-0.25-0.24-0.37-0.52-0.44-0.8h-0.01c-1.01-0.04-2.05-0.08-3.08-0.21 c-0.69-0.1-0.77-0.61-0.78-1.51l-1.57,1.19l-1.2-2.77c-0.46,0.12-1.06,0.26-1.65,0.33l-0.1,0.01c-0.62,0.01-1.01-0.51-1.32-0.93 l-0.14-0.18c-0.15-0.18-0.2-0.38-0.24-0.56c-0.51-0.44-1.02-0.87-1.53-1.31c-1.09-0.93-2.22-1.88-3.27-2.91 c-1.41-1.4-2.82-2.97-4.41-4.97c-0.42-0.51-0.8-1.03-1.17-1.57l2.82-1.34l-0.45,2.01l0.95,1.26l1.46-2.46l0.77,0.8 c0.2,0.23,0.39,0.45,0.58,0.68c0.32,0.39,0.61,0.73,0.92,0.89c0.43,0.25,0.8,0.37,1.07,0.36c0.68-0.02,1.3-0.86,2.32-2.62 l-0.57,0.25c-0.18,0.08-0.37,0.17-0.55,0.26c-0.55,0.25-1.12,0.52-1.75,0.65l-0.08,0.02h-0.08c-0.44,0.01-0.75-0.3-0.86-0.4 c-0.02-0.04-0.77-0.8-0.73-1.57c0.04-0.62,0.24-1.19,0.43-1.7c0.07-0.18,0.14-0.37,0.2-0.56l0.26-0.84l2.41,0.9l-0.52,0.94 l1.44,0.32l0.48,1.59c0-0.01,0.74-1.26,0.74-1.26l0.93,1.59c0.2-0.34,0.45-0.64,0.8-0.8l-1.66-1.01l1.77-0.56 c0.33-0.1,0.64-0.2,0.95-0.32c0.77-0.26,1.56-0.54,2.39-0.63l-0.18-0.07l0.24-1.62c1.02-0.08,1.76-0.14,2.34-0.17 c1.8-0.05,2.24,0.4,2.95,1.62l0.34,0.58c0,0-0.57,0.54-0.61,0.56l0.2-0.06l0.39,1.66l4.26-2.89l0.84,1.61 c0.39,0.76,0.82,1.57,1.27,2.37c0.04,0.05,0.11,0.12,0.15,0.17c2.73,0.13,3.66,2.05,4.16,3.7c0.07,0.2,0.49,0.5,0.83,0.75 c0.37,0.26,0.77,0.55,1.09,0.92c0.77,0.89,1.53,1.81,2.28,2.72c1.13,1.37,2.31,2.78,3.53,4.09c0.64,0.68,1.46,1.21,2.27,1.74 c0.18,0.12,0.37,0.24,0.54,0.34l3.79-2.69l1.56,1.26l-0.33,0.62c-0.14,0.24-0.29,0.49-0.43,0.73c-0.31,0.51-0.59,1-0.77,1.5 c-0.3,0.89-0.26,1.37-0.2,1.5c0.4,0.81,1,1.57,1.46,2.19c0.08,0.11,0.17,0.2,0.24,0.3c0.32,0.01,0.61,0.02,0.89,0.04 c0.78,0.02,1.46,0.05,2.14,0.15c1.32,0.21,2.64,0.48,3.91,0.73c0.52,0.11,1.05,0.21,1.56,0.31l1.28,0.25l-0.75,1.06 c-0.44,0.62-0.23,1,0.87,2.19c0.1,0.1,0.18,0.19,0.26,0.29l2.12-1.46c-0.08-0.65-0.08-1.11,0.25-1.5c0.37-0.44,0.92-0.45,1.13-0.46 c0.29,0,0.63,0.02,1.11,0.06l0.57,0.04c0.11,0.01,0.21,0.01,0.32,0c0.82-0.02,1.81-0.31,3.02-0.87c0.56-0.26,1.06-0.74,1.61-1.24 c0.26-0.25,0.53-0.49,0.81-0.71l0.65-0.55l0.54,0.67c0.15,0.19,0.29,0.4,0.4,0.58c0.04,0.06,0.07,0.12,0.11,0.17 c1-0.36,3.31-2.53,3.39-3.26l0.19-1.76l1.95,1.96c0.33-0.44,0.8-0.83,1.44-0.86c0.76-0.02,1.36,0.5,1.78,1.02l1.19-0.19l-0.74-0.97 l1.06-0.39c0.06-0.02,0.11-0.05,0.17-0.06c0.14-0.07,0.31-0.14,0.5-0.14l0.42-0.01l0.26,0.3c0.39,0.44,0.83,0.59,1.61,0.57 c0.26,0,0.52-0.02,0.78-0.05c0.3-0.04,0.58-0.06,0.88-0.07h0.2c0.1-0.19,0.21-0.48,0.31-0.68c0.13-0.31,0.27-0.63,0.4-0.88 l0.63-1.19l0.8,1.09c0.39,0.55,0.64,0.55,0.73,0.54c0.34,0,0.86-0.33,1.34-0.64c0.36-0.24,0.73-0.48,1.13-0.67l0.76-0.36l0.63,1.32 c1.09-0.2,2.15-0.37,3.27-0.39c0.92-0.04,1.77,0.04,2.6,0.2c0.31,0.07,0.65,0.1,1.06,0.08c0.51-0.01,1.05-0.08,1.62-0.17 c0.58-0.07,1.2-0.15,1.82-0.18h0.38c0.75,0.01,1.41,0.29,2.07,0.56c0.25,0.1,0.49,0.2,0.74,0.27l0.26,0.1l1.97-1.11l0.62,0.81 l1.69-2.58l1.55,0.8l-0.2,0.68c-0.05,0.14-0.1,0.29-0.14,0.43c-0.08,0.26-0.18,0.54-0.24,0.81c-0.07,0.33-0.04,0.5-0.02,0.52 c0,0,0.06,0.04,0.23,0.02c0.08,0,0.15-0.01,0.24-0.02l0.59-0.11c0.71-0.14,1.46-0.29,2.22-0.31c0.92-0.02,1.74,0.12,2.54,0.46 c0.18-0.01,0.48-0.11,0.76-0.2c0.31-0.1,0.62-0.2,0.95-0.25c0.17-0.02,0.33-0.04,0.51-0.05c0.29-0.01,0.58,0.01,0.9,0.06 c0.43,0.06,0.88,0.1,1.32,0.13c1.19,0.1,2.4,0.19,3.51,0.69c0.37,0.17,0.88,0.15,1.42,0.14c1.08-0.02,2.71-0.06,3.51,1.8 c0.38,0.89,0.75,2.03,0.26,3.06c-0.18,0.37-0.45,0.69-0.82,0.96h-6.02l-10.12,2.77l6.15,1.58l5.02-0.39l4.78,0.51l5.24,0.58 l0.52,0.06l-1.33,1.93l-2.81-0.1l-4.63,1.2l-1.2,0.31l-3.04,1.62l-4.45,0.33l-6.17,2.43l-3.77,3.73l2.22-0.99l2.08-0.68l4.42,3.54 c0,0,0.06-1.39,2.85-2.53l4.08-0.93l12.08-1.47l7.12-4.74l1.89-3.95l-0.75-2.9l-0.48-0.15c0.01-0.11,0.04-0.2,0.05-0.32 c0.37-2.21,0.42-2.5,1.15-2.52h0.06l0.06,0.01c0.12,0.01,0.24,0.01,0.34,0.01c0.87-0.02,1.33-0.55,2.08-1.45 c0.2-0.25,0.43-0.51,0.67-0.77l-3.01-2.15l2.08-0.17c0.02-0.39,0.05-0.84-0.05-1.03c-0.25-0.46-0.61-0.9-0.97-1.37 c-0.5-0.62-1.01-1.26-1.33-2.05c-0.4-0.95-0.14-2.78,0.73-3.48c0.87-0.71,1.89-1.17,2.89-1.59c0.39-0.17,0.78-0.34,1.17-0.54 l0.64-0.31l0.27,0.39c0.5-0.58,1.25-0.82,1.76-0.98c0.8-0.25,0.92-0.34,0.93-0.56l0.07-0.84l1.97,0.18l0.56,2.24l3.25,1.18 l4.19-0.87l-0.77-1.64l4.82-1.77l-1.45,2.27l2.01,1.58l3.75-1.22l0.59,1.62l4.43-0.77l2.29-3.76l0.14,4.59 c0.25,0.02,0.51,0.04,0.76,0.06c0.99,0.08,1.84,0.15,2.7,0.19c1.38,0.06,2.78,0.06,4.15,0.06h0.56c0.27,0,0.54,0,0.81-0.01 l1.5-0.05l0.55-0.71l0.64,0.39c0.24,0.14,0.45,0.3,0.65,0.44c0.26,0.19,0.54,0.39,0.7,0.42c0.7,0.1,1.44,0.1,2.22,0.11h0.29 l0.17-1.21l3.65-0.81l-0.1,1.56c0.05,0,0.19,0.01,0.19,0.01l5.15-0.15l-0.7,1.28c-1.71,3.14-1.37,6.02,0.9,7.7l0.73,0.54 l-0.58,0.69c-1.95,2.28-2.34,4.82-1.2,7.74c0.17,0.44,0.26,0.96,0.26,1.45c-0.01,1.72,0.21,2.77,1.47,3.41l0.84,0.43l-0.54,0.81 l1.51-0.12l0.18,2.18l0.25-0.76l0.96,0.93c0.64,0.62,0.82,1.28,0.96,1.83l0.05,0.19c0.07,0.26,0.13,0.58,0.19,0.89 c0.06,0.32,0.15,0.83,0.25,1.03c1.89,0.86,3,2.08,3.45,3.8c0.07,0,0.14-0.01,0.2-0.04c0.3-0.07,0.59-0.11,0.89-0.12 c1.03-0.04,1.95,0.36,2.53,1.07c0.57,0.7,0.75,1.64,0.5,2.65c-0.12,0.49-0.14,0.77-0.14,0.93c0.26-0.04,0.63-0.17,0.86-0.25 l0.63-0.23l1.88,2.89l2.02-1.64l2.18,4.54c0.9-0.54,1.87-0.82,2.89-0.86c0.87-0.02,1.78,0.14,2.71,0.49l0.42,0.15l0.77,3.2 l2.37-0.21l0.07,0.83l0.11,1.01l-1.11,0.37l1.33,0.77l0.36-1.5l1.03,0.82c0.36,0.29,0.7,0.59,1.02,0.9 c0.65,0.61,1.26,1.18,1.87,1.32c0.05,0.01,0.11,0.02,0.15,0.05l0.75-0.61c0.02-0.02,0.07-0.07,0.12-0.11 c0.3-0.29,0.56-0.52,0.95-0.54h0.29l0.21,0.14c1.2,0.8,2.4,1.65,3.91,2.72l0.51,0.36l0.89-0.82l-1.46-1.47l6.93-0.2l-0.93,1.36 c-0.2,0.3-0.3,0.5-0.34,0.62c0.13,0.04,0.31,0.07,0.44,0.1c0.49,0.08,1.06,0.19,1.47,0.57l0.18,0.17l-0.13-1.12l3.98,0.34 l0.46,1.25c0.2,0.51,0.37,0.99,0.57,1.45c0.13,0.32,0.24,0.49,0.3,0.58c0.1-0.07,0.26-0.21,0.51-0.52 c0.59-0.74,1.39-1.26,2.08-1.71c0.26-0.17,0.51-0.33,0.73-0.5l0.67-0.5l0.51,0.67c0.14,0.2,0.29,0.39,0.42,0.58 c0.27,0.38,0.51,0.71,0.77,0.99c0.42,0.44,0.86,0.84,1.33,1.27l1.85-2.21l3.04,1.91l0.77-2.5l5.68,2.13l1.56-1.85l0.63,0.49 c0.06,0.05,0.17,0.1,0.43,0.1c0.21-0.01,0.46-0.06,0.74-0.11c0.32-0.06,0.65-0.12,1-0.13c0.77-0.02,1.39,0.24,1.83,0.77l1.07-0.73 l1.96,0.14c0,0,3.91-0.7,7.37-1.87l0.39,0.86c0.01-0.02,0.02-0.05,0.04-0.06c0.26-0.43,0.51-0.84,0.81-1.24 c1.58-0.62,2.95-1.33,3.58-2.13c1.03-0.04,1.82,0.48,2.45,0.89c0.08,0.06,0.17,0.11,0.25,0.17l-0.8-1.32l-0.01,0.7l-1.72-0.62 c2.31-2.46,10.23-2.54,11.63-2.89c1.97-0.42,3.03-0.71,3.54-2.19c0.25-0.73,1.05-0.81,1.97-0.92c0.15-0.01,0.31-0.02,0.48-0.05 c0.13-0.29,0.36-0.56,0.7-0.67c0.51-0.15,0.97-0.54,1.47-0.95c0.77-0.64,1.65-1.38,2.97-1.43c0.11,0,0.23,0,0.34,0.01 c0.08-0.04,0.25-0.12,0.36-0.21c-0.17-2.24,1.53-2.53,2.37-2.68c0.19-0.04,0.38-0.06,0.54-0.11c0.37-0.59,0.84-1.09,1.47-1.57 c0.26-0.2,0.58-0.36,0.86-0.49c0.14-0.07,0.36-0.17,0.46-0.24c0.48-2.19,1.97-2.52,3.23-2.56h1.21c0.34-0.01,1.07-0.52,1.31-0.98 c0.31-0.61,0.44-1.39,0.56-2.14c0.01-0.04,0.01-0.08,0.02-0.12l-2.95-0.34c0,0,2.88-2.57,3.03-2.7l0.5-1.47 c0.13-0.39,0.26-0.77,0.38-1.17c1.06-3.26,2.15-6.63,6.56-7.42l0.51-0.1l0.31,0.43c0.09,0.12,0.2,0.25,0.3,0.38 c0.26,0.33,0.56,0.7,0.78,1.14c0.55,1.05,0.81,1.15,0.89,1.15c0.17-0.01,0.52-0.15,1.33-0.82l0.55-0.45l4.72,4.14l-0.53,0.63 c-0.1,0.12-0.15,0.2-0.18,0.26c0.08,0.05,0.25,0.11,0.55,0.15c0.39,0.06,0.78,0.1,1.18,0.13c0.55,0.06,1.13,0.12,1.7,0.23 c0.12,0.02,0.25,0.05,0.39,0.07c0.88,0.15,1.88,0.32,2.27,1.08c0.32,0.61,0.54,0.82,0.63,0.89c0.26-0.18,0.73-0.97,0.94-1.33 l1.39-2.37l0.17,2.75c0.13,2.05,0.82,2.02,1.27,2.01c0.2,0,0.44-0.04,0.7-0.11l0.92-0.23l0.12,0.93c0.04,0.3,0.06,0.57,0.08,0.84 c0.04,0.5,0.07,0.93,0.21,1.24c0.13,0.32,0.52,0.64,0.69,0.68c0.19,0.04,0.42,0.05,0.67,0.05c0.2,0.93,0.33,1.75,0.33,2.32 c0,0.93,1.15,1.9,2.56,2.75v0.31c-0.01,0.21-0.02,0.58,0.04,0.67l4.67,1.24l-1.8,2.13c0.23,0.06,0.43,0.1,0.62,0.11 c0.62,0.04,1.21,0.21,1.8,0.38c0.57,0.18,1.12,0.33,1.58,0.32c0.44-0.01,0.95-0.17,1.51-1.18c0.44-0.81,1.07-0.95,1.4-0.96 c0.86-0.02,1.69,0.67,2.29,1.89l0.34,0.69l-0.99,0.61l2.33,1.06l2.77-0.52l-0.07,0.54c0.1-0.12,0.19-0.23,0.29-0.32 c0.21-0.23,0.39-0.59,0.57-0.99l-2.1-1.11l1.11-0.8c0.93-0.67,1.94-1.01,3.06-1.05c0.92-0.02,1.77,0.17,2.51,0.33 c0.19,0.04,0.37,0.07,0.53,0.11l2.58,0.52l-4.08,1.81l-0.09,2.98l2.75,0.75l-1.06-2.09l2.34-1.37c-0.01-0.12,0.01-0.25,0.07-0.4 l1.34-3.89l0.95,1.28c0.12,0.17,0.25,0.37,0.37,0.58c0.07,0.12,0.18,0.31,0.25,0.43h0.59c0.49-0.02,0.99-0.07,1.44-0.12l-0.32-0.95 l-1.77-2.47h-0.01c-0.39,0.08-0.77,0.15-1.17,0.24c-0.84,0.15-1.72,0.33-2.57,0.55c-0.82,0.2-1.63,0.45-2.58,0.74 c-0.44,0.14-0.92,0.29-1.43,0.44l-1.68,0.5l0.21-0.52l1.46,0.02l2.83-3.73l5.17-0.15l0.48,1.09l0.43-0.26 c0.4-0.26,0.82-0.51,1.21-0.78c0.23-0.15,0.45-0.31,0.69-0.46c0.61-0.39,1.19-0.77,1.57-1.24c0-0.08-0.01-0.24-0.04-0.39l-2.98,2.4 l-1.51-1.45l1.44-2.03l-0.39-0.55l-0.33-0.55l0.05-0.06c-0.92-1.94,0.14-3.83,0.8-4.99l0.05-0.07l-0.57,0.01l2.34-5.11l-0.76,0.4 l-2.1-3.22l1.59-1.33l-0.92-0.04l0.05-0.5c-1.38,1.64-1.89,2.01-2.78,2.03c-0.2,0.01-0.42-0.01-0.68-0.04l-1.5-0.15l2.48-3.23 l-1.07,0.39l-1.85-3l-0.04,2.07l-4.04-1.19c-0.01,0.04-2.24,2.72-2.24,2.72h0.64l-0.29,2.49c-1.12-0.08-2.07-0.1-2.07-0.1 l-0.31-2.4h0.67l-0.34-0.51c-0.27-0.39-0.53-0.78-0.83-1.17c-0.06-0.08-0.19-0.18-0.33-0.29c-0.1-0.07-0.2-0.14-0.3-0.23 l-0.06-0.05l-0.64,2.34c0.76,0.54,1.08,1.01,1.08,1.84l-3.58-1.55c-0.02-0.62,0.25-1.25,0.82-1.85l-0.17-0.7 c-0.12-0.51-0.2-1-0.27-1.43c-0.04-0.21-0.08-0.45-0.12-0.64c-0.31,0.01-0.65,0.1-1.02,0.19c-0.29,0.06-0.56,0.13-0.84,0.18 l-0.15,0.02c-0.25,0.05-0.54,0.1-0.83,0.11c-0.13,0-0.26-0.01-0.39-0.02c-0.94-0.11-1.87-0.24-2.79-0.37l-1.26-0.18l-0.18-0.13 c-0.93-0.69-1.96-1.27-3.04-1.89c-0.61-0.33-1.2-0.67-1.78-1.02c-1.17-0.71-2.27-1.5-3.44-2.33c-0.38-0.27-0.77-0.55-1.18-0.83 c-0.25,0.18-0.49,0.38-0.73,0.58l-0.36,0.29l-0.82,0.67l-0.46-0.94c-0.06-0.12-0.13-0.24-0.2-0.36c-0.23-0.37-0.49-0.8-0.52-1.31 c-0.01-0.21-0.04-0.34-0.06-0.43c-0.1,0.02-0.24,0.07-0.48,0.19c-0.36,0.17-0.73,0.26-1.14,0.38c-0.2,0.05-0.42,0.11-0.65,0.18 l-1.34,0.4c-0.07-0.31-0.14-0.65-0.21-1.02l1.83-1.97l-1.31-0.07l-0.57-1.76l0.78-0.43l-1.06-0.32c0.05-0.45,0.11-0.89,0.2-1.31 c0.86-3.56,3.39-3.21,3.39-3.21l5.53-0.83l0.54,0.77l-0.96,0.11c0.58,0.98,1.01,0.96,1.15,0.96c0.42-0.01,0.94-0.36,1.4-0.65 c0.54-0.34,1.05-0.68,1.62-0.71c0.18-0.17,0.33-0.33,0.48-0.48c0.19-0.18,0.36-0.36,0.54-0.5l-1.83,0.05l3.79-2.32l3.35-0.5 l-1.06,1.24l-0.77-0.37l-0.07,0.7c0.44-0.12,1.87-0.45,2.13-0.52c0-0.07,0.01-0.14,0.01-0.21c0.04-0.33,0.08-0.67,0.12-1l2.2-1.06 c0.19,0.08,0.37,0.18,0.56,0.25c0.23,0.1,0.45,0.19,0.69,0.27c0.07-0.55,0.26-1.01,0.56-1.39l4.33-2.12v0.1 c0.05-0.01,0.08-0.01,0.13-0.02c0.2-0.06,0.45-0.12,0.7-0.12c0.12-0.01,0.23,0,0.33,0.02l0.69-0.89l0.8-0.39 c0,0,7.42-3.41,12.43-5.29l4.54-0.51c0.04,0.02,0.07,0.06,0.12,0.08l-0.32,0.42l0.46-0.31c0.38,0.3,0.73,0.64,1.37,0.83 c1.84,0.52,5.71,2.29,5.71,2.29l-1.01,1.7c0.74,0.11,1.5,0.24,2.18,0.63l0.15,0.07c0.92,0.51,1.7,0.95,2.47,0.93 c0.57-0.01,1.15-0.31,1.76-0.9l1.45,1.22l0.11,3.59l2.96-1l1.02,1.69l-2.01,1.28c0.3,0.17,0.53,0.4,0.65,0.75 c0.4,1.2,1.27,1.77,2.64,2.35c0.36,0.14,0.56,0.43,0.71,0.63c0.04,0.05,0.08,0.11,0.12,0.15l0.73,0.8l-0.99,0.54l1.07,0.88 l-1.85,1.27l2.94,2.89l-0.25,0.54c-0.77,1.66,0.45,2.94,2.28,4.54l0.32,0.29c0.83,0.71,1.43,1.24,1.45,2.88 c0.01,0.69,0.82,1.84,1.83,2.63c0.19,0.14,0.34,0.25,0.48,0.34c1.24,0.89,1.02,1.49,0.21,2.64c-0.08,0.12-0.17,0.27-0.24,0.43 c0.4,0.3,0.8,0.5,1.14,0.58c0.14,0.04,0.32,0.06,0.56,0.05c0.2,0,0.4-0.02,0.62-0.05c0.26-0.01,0.55-0.04,0.84-0.05l1.74-0.06 l0.01,0.05l-1.05,1.36c-1,1.3-1.5,2.9-1.3,4.17c0.07,0.45,0.26,1.06,0.77,1.41l2.24,1.53v0.1l-1.93-0.07l-0.26,5.23l-0.49,0.2 c-0.95,0.42-1.77,1.85-1.91,3.09l1.01-0.59l1.53,0.94l-1.68,3.91l-2.05-0.36c-1.01,1.84-1.87,3.66-2.22,5.72 c0,0-1.34,3.1-2.51,5.65c-0.07,0.11-0.14,0.23-0.2,0.34c-0.3,0.5-0.54,1.09-0.74,1.61c-0.2,0.42-0.34,0.95-0.44,1.57 c-0.14,0.39-0.34,0.77-0.69,1.06c-2.01,1.63-2.98,2.91-2.45,4.99c0.08,0.31,0.12,0.63,0.14,0.83l0.02,0.15l0.08,0.54l-5.73,3.67 l-0.63-0.42l-4.09,4.48l-0.73-0.56c-0.33,0.14-0.65,0.27-0.96,0.42c-1.05,0.45-1.96,0.86-2.85,1.31c-0.18,0.1-0.37,0.32-0.58,0.57 c0,0.01,0,0.01-0.01,0.02l0.57,1.27l-0.9,0.15l-3.56-1.08l-1.36,2c-0.92,0.25-2.19,0.63-3.4,1.13l-0.68-0.56 c-0.38,0.48-0.94,0.76-1.61,0.78c-0.14,0-0.27,0-0.42-0.02l-0.77,2.24c-0.18,0.5-0.68,1.01-1.34,1.5l-0.39-1.01 c-0.14-0.39-0.29-0.84-0.42-1.26c-0.08-0.3-0.21-0.7-0.31-0.95h-0.68c-1.02,0.04-2.05,0.15-2.95,0.26 c-0.02,0.01-0.06,0.01-0.1,0.01c0.06,0.15,0.11,0.31,0.17,0.46c0.42,1.17,0.81,2.27,1.03,3.4c0.1,0.45-0.1,0.84-0.38,1.19 c-1.36,0.56-2.45,0.92-2.45,0.92c-0.36-0.27-0.86-0.64-0.78-1.27c0.12-1.01,0.31-2.01,0.48-2.82l0.05-0.29l-1.45-1.76l-1.25,0.04 l-0.13-2.03l3.61-0.4l-0.62-0.71c-0.21,0.18-0.42,0.29-0.67,0.29l-0.31,0.01l-0.24-0.18c-0.39-0.31-0.65-0.33-0.82-0.33 c-0.4,0.01-0.86,0.3-1.33,0.61c-0.36,0.23-0.73,0.46-1.13,0.63l-0.26,0.11c-0.44,0.18-0.88,0.37-1.38,0.38 c-1.26,0.05-1.84-1.11-2.01-1.46c-0.18-0.19-1.03-0.36-1.5-0.45h-0.01c-0.04,0.1-0.06,0.18-0.08,0.26 c-0.08,0.21-0.17,0.44-0.24,0.62l-0.76,1.93l-0.69-1.68l-5.09,1.85l-0.92-1.34l0.43-0.49l-1-0.14l-0.42,2.45l-4.48-1.9l1.24-0.89 l-3.7-0.4l0.37,0.43l-1.17,0.4l-3.26-1.4c-0.04-0.24-0.01-0.48,0.05-0.7l-4.32-1.39l0.1-1.4c-0.45-0.12-0.88-0.18-1.27-0.17 c-0.71,0.02-1.37,0.26-1.99,0.73c-0.69-0.68-1.52-1.52-2.29-2.35l0.24-0.87c-0.53-1.49-1.46-2.82-2.68-3.86 c-0.01-0.01-0.01-0.01-0.01-0.01l-0.45-6.06c0,0-1.93-4.76-0.59-7.17c0.54-0.96,0.36-2.43-0.02-3.83l1.13-2.58l-1.74,0.05 l-1.05-1.49l1.42-1.09l-1.52,0.12l1.78-1.55l-1.82-2.44c-0.06,0.07-0.13,0.14-0.19,0.21c-0.61,0.68-1.09,1.21-1.53,1.77 c-0.1,0.13-0.19,0.31-0.25,0.44c0.36,0.55,0.5,1.05,0.4,1.55c-0.13,0.74-0.71,1.15-1.15,1.43l1.57,3.25l-3.16,2.83l-0.51-0.25 c-0.25-0.12-0.46-0.24-0.67-0.36c-0.05-0.04-0.11-0.06-0.15-0.1l2.02,2.07l-1.56,0.29c-0.49,0.08-0.62,0.32-0.88,1.21 c-0.15,0.5-0.33,1.11-0.74,1.59c0.11-0.01,0.21-0.02,0.31-0.02l0.43-0.01l1.53,1.97l-1.45,0.19c-0.58,0.08-0.74,0.39-1.01,1.59 c-0.2,0.87-0.46,2.02-1.43,2.72l3.77,1.95l-1.18,0.8c-0.45,0.3-0.94,0.57-1.36,0.81c-0.33,0.19-0.75,0.43-1,0.61 c0.17,0.42,0.52,0.89,0.88,1.34c0.21,0.29,0.43,0.57,0.62,0.86l0.33,0.5l-0.37,0.48c-0.89,1.15-1.21,2.5-1.07,3.21 c0.04,0.2,0.11,0.36,0.2,0.4l1.2,0.71l-1.13,0.69c2.85,2.19,2.4,5.18,1.82,8.13l4.86-2.71l-1.52,3.02l1.68,4.66l2.53,1.12 l-0.75,1.75c0.01,0,0.02,0.01,0.04,0.01c0.52,0.05,1.37,0.14,1.84,0.69l2.38-0.84l0.43,0.96l0.06,0.68 c0.05,0.49,0.08,0.98,0.14,1.46c0.17,1.25,0.34,2.5,0.52,3.8l0.18,1.28c0.43-0.75,0.9-1.47,1.36-2.16 c0.21-0.33,0.44-0.68,0.65-1.01l0.57-0.92l1.27,1.33l0.02,0.98l0.43,0.43l0.15-1.88l1.87,0.51l0.36,3.33l1.82-0.96l-0.26,3.77 l2.14-1.26l-0.05-0.07l1.15-0.33c0.17-0.05,0.32-0.1,0.49-0.15c0.4-0.13,0.81-0.26,1.26-0.32l0.57-0.08 c0.68-0.1,1.37-0.2,2.07-0.23c0.25-0.01,0.51,0,0.77,0.01c1.83,0.13,1.95,1.63,2.01,2.35c0.02,0.21,0.05,0.49,0.1,0.63l1.72-2.39 l1.81,1l1.59-1.77l0.14,1.57c0.19-0.38,0.39-0.76,0.64-1.13l0.44-0.65l2.39,1.38c0.45-0.29,0.93-0.49,1.46-0.5l0.27-0.01 c2.26-0.06,3.53-0.77,4.35-2.46l0.48-0.98h0.08l2.56,2.46c0.17-0.27,0.36-0.52,0.52-0.75c0.01-0.01,0.02-0.02,0.04-0.05 c-0.21-0.74-0.13-1.31,0.1-1.76l5.32-0.17l2.66-1.21l4.28,1.83c-0.01-0.32-0.01-0.59,0.02-0.82l-1.08-0.1l-0.01-0.74 c-0.01-0.26-0.01-0.52,0-0.78c0.01-0.3,0-0.58-0.01-0.86l4.15-1.89c0,0,0.78-0.51,1.78-1.21h0.04l0.01-0.04 c0.14-0.11,0.29-0.2,0.43-0.31l0.34,0.39l0.75,0.06l-0.46,0.27l0.17,0.19c0.12,0.13,0.21,0.26,0.3,0.38 c0.18-0.05,0.36-0.1,0.54-0.14c1.25-0.32,2.54-0.65,3.94-0.69c0.54-0.01,1.06,0.01,1.57,0.08c0.05,0,0.1,0.01,0.14,0 c0.52-0.01,1.26-0.44,2.05-0.89c0.39-0.23,0.81-0.46,1.25-0.69c0.01-0.08,0.02-0.17,0.04-0.26c0.15-1,0.39-2.69,2.26-3.44 l0.42-0.17l0.05-0.07c0.14-0.27,0.26-0.54,0.38-0.78c0.26-0.56,0.51-1.08,0.93-1.53c0.64-0.69,1.36-1.31,2.05-1.9 c0.29-0.25,0.57-0.5,0.86-0.76l0.62-0.56l0.56,0.62c0.08,0.07,0.15,0.15,0.24,0.23l1.03-2.85c1.43-0.77,2.35-1.26,2.35-1.26 l3.04-2.24l0.78,0.64l-0.89,2.35c0.13,0.02,0.25,0.04,0.36,0.02c0.25,0,0.51-0.01,0.61-0.93l0.01-0.14l-0.05-0.01l0.08-0.7 c0.13-1.13,0.25-2.09,1.58-2.13c0.21-0.01,0.48,0,0.82,0.02l0.29,0.04c0.11-0.04,0.33-0.24,0.52-0.4l-0.86-0.76l0.21-0.54 c0.43-1.13,1.17-1.39,1.7-1.4c0.3-0.01,0.58,0.06,0.84,0.14c0.05-0.52,0.14-1.03,0.53-1.41c0.24-0.24,0.5-0.44,0.75-0.64 l-0.95,0.13l0.68-2.43l-1.62-0.9l1.31-2.12l3.95,2.38l-0.37-3.75l1.14-0.13l-0.57-0.13l1.81-1.13l-1.07-0.4l-0.69-0.27l0.48-2.08 l0.76,0.1c0.25,0.04,1.17,0.14,1.38,0.17l-1.12-1.66l0.42-0.49c0.07-0.08,0.13-0.18,0.2-0.29c0.27-0.4,0.62-0.9,1.26-0.92h0.17 c0.83-0.04,1.34-0.23,1.93-1.26c0.46-0.81,1.49-1.03,2.47-1.25c0.36-0.07,0.7-0.14,0.97-0.24l0.2-0.07l-2.51-0.73l-0.52-0.19 l-0.33-1.91l0.71-0.21c0.25-0.08,0.56-0.21,0.87-0.34c0.62-0.27,1.2-0.52,1.75-0.54c0.32-0.01,0.61,0.06,0.84,0.21 c0.26,0.18,0.44,0.26,0.55,0.3c0.05-0.17,0.11-0.45,0.14-0.64l0.19-0.98l0.71,0.04c0.29,0.01,0.55,0.01,0.81,0.01 c1.08-0.04,1.85-0.25,2.26-0.63h-0.02c-0.31,0.01-0.61-0.04-0.9-0.07c-0.25-0.04-0.49-0.06-0.68-0.06c-0.08,0-0.14,0.01-0.19,0.02 l-2.81,0.84l4.97-5.66l0.23,0.1c-0.42-0.58-0.67-1.15-0.52-1.76C685.36,359.74,686.16,359.11,687.03,358.48z M348.97,314.7 l1.52,2.93l-1.81,1.15l-0.75-0.92c-1.3,1.24-0.96,2.76-0.34,4.99c0.08,0.32,0.18,0.63,0.25,0.94l0.23,0.87l-1.87,0.36l-2.29-2.66 l-0.12,2.51l-1.39-1.78c-0.19-0.25-0.36-0.5-0.51-0.75c-0.2-0.31-0.45-0.69-0.59-0.75c-0.31-0.13-0.56-0.33-0.77-0.51 c-0.18-0.14-0.38-0.31-0.49-0.31c-0.02,0-0.14,0.02-0.38,0.2c-0.31,0.24-0.69,0.37-1.09,0.38c-1.52,0.05-3.46-1.55-3.78-3.09 c-0.04-0.17-0.1-0.33-0.17-0.51c-0.26,0.34-0.52,0.73-0.82,1.14L333.7,319c0.21,0.12,0.44,0.25,0.63,0.44 c0.57,0.54,1.08,1.11,1.58,1.68c0.2,0.23,0.4,0.45,0.61,0.67l0.62,0.68l-1.76,1.33l-4.57-3.67l0.7-1c0,0-0.05-0.07-0.05-0.08 l-4.91,2.83l-0.44-0.31c-0.43-0.3-0.68-0.73-0.87-1.18h-0.01c-0.73,0.02-1.36-0.12-1.89-0.37c-0.71-0.05-1.32-0.26-1.82-0.57 l-1.21,2.68l-0.07-0.07c-0.5,1.4-1.71,2.52-3.65,2.58c-1.15,0.04-2.07-0.32-2.73-0.89c-0.63,0.5-1.44,0.82-2.46,0.86 c-1.85,0.05-3.1-0.9-3.72-2.19c-0.3,0.08-0.61,0.13-0.93,0.13h-0.2c-0.75,0.02-1.46-0.14-2.13-0.51c-0.3-0.2-0.58-0.42-0.87-0.63 c-0.13-0.12-0.25-0.25-0.37-0.39c0.02,0.13,0.04,0.26,0.05,0.42l0.04,0.95l-6.93-0.62l1.05-1.93c-0.73,0.18-1.45,0.37-2.09,0.58 c-0.08,0.07-0.24,0.34-0.34,0.55c-0.14,0.25-0.31,0.52-0.5,0.8l-0.13,0.19l-0.2,0.1c-0.29,0.13-0.62,0.2-1.02,0.21 c-0.27,0-0.56-0.01-0.87-0.04c-0.26-0.02-0.54-0.05-0.81-0.04c-0.39,0.01-0.75,0.08-1.07,0.33l1.56,0.75l-1.18,2.24l-0.68-0.24 c-0.27-0.1-0.55-0.21-0.81-0.33c-0.42-0.19-0.84-0.38-1.13-0.37h-0.05c-0.18,0.02-0.34,0.07-0.51,0.11 c-0.25,0.07-0.51,0.14-0.8,0.14c-1.05,0.04-1.64-0.75-1.99-1.34c-0.65-1.12-2.43-1.76-3.85-2.28l-0.48-0.18l-0.5-3.51 c-0.08,0.01-0.18,0.01-0.26,0.01c-0.17,0.01-0.34,0-0.51-0.01c-0.3-0.04-1.75-0.26-1.82-1.22c-0.02-0.45-0.02-0.46-0.81-0.58 c-0.14-0.02-0.29-0.05-0.49-0.08c-0.55-0.11-1.46-0.29-1.85-1.09c-0.23-0.48-0.19-1.05,0.1-1.7c-0.11-0.2-0.36-0.54-0.51-0.74 c-0.1-0.13-0.19-0.26-0.27-0.38l-2.12,0.15l4.71-6.55l-1.58,0.05l0.64-1.26c0.05-0.1,0.1-0.19,0.13-0.27 c0.12-0.29,0.33-0.76,0.9-0.77h0.09c0.12,0.01,0.24,0.01,0.36,0.01c1.32-0.04,2.13-0.98,3.07-2.06c0.21-0.24,0.42-0.49,0.64-0.73 c0.48-0.51,1.03-1.11,1.72-1.44l-3.67-2.94l4.53-6.37l-0.31,9.11c0.15-0.04,0.31-0.06,0.46-0.06c0.67-0.02,1.32,0.24,1.95,0.78 c0.76,0.64,1.18,1.52,1.19,2.47c0,0.59-0.15,1.2-0.46,1.77l4.52,2.83l0.01,0.45c0.01,0.37,0,0.74-0.02,1.11 c-0.04,0.7-0.07,1.36,0.13,1.75c0.11,0.2,0.7,0.46,1.19,0.68c0.36,0.15,0.77,0.33,1.18,0.55l0.71,0.39l-0.06,0.13l1.28-0.61l0.24,1 c0.18,0.68,0.36,0.9,0.43,0.9c0.06,0,0.37-0.04,1.02-0.59l2.05-1.77l-0.81,3.1l1.31-0.82l0.3,0.51c0.52-1.01,1.18-1.65,1.94-2.06 c0.15-0.17,0.32-0.33,0.45-0.51c0.89-1.02,2.15-1.34,3.39-1.2c1.25-0.14,2.6,0.29,3.53,1.07c1.2,0.02,2.29,0.14,3.26,0.64 c0.12,0.01,0.23,0.02,0.33,0.05c0.44,0.14,0.88,0.3,1.32,0.48c-0.7-0.3-0.54-0.54,0.51-0.69c0.83-0.33,1.8-0.26,2.68,0.07 c1.02-0.48,2.05-0.92,3.2-1.02c0.67-0.06,1.32-0.05,1.97,0.06c0.12-0.12,0.24-0.25,0.37-0.37c1.18-1.18,2.9-1.56,4.38-1.09 c0.29-0.37,0.57-0.69,0.9-0.92c2.06-1.47,4.13-0.7,5.29,0.87c1.65-0.32,3.29-0.52,4.73-0.68c0.32-0.04,0.65-0.06,0.97-0.06 c0.36-0.01,0.71-0.01,1.07-0.01c0.33,0,0.68,0,1.01-0.01h0.1c0.05-0.14,0.11-0.27,0.17-0.38l0.43-0.86l9.49,6.43L348.97,314.7z M356.67,328.04l-3.71-2.95l2.38-3.47l1.59,0.73L356.67,328.04z M377.84,323.57c0.04,0.73,0.06,1.53-0.54,2 c-0.7,0.54-1.52,0.83-2.31,1.12c-0.29,0.11-0.58,0.21-0.86,0.32l-0.68,0.29l-0.89-1.49l0.75-3.52l1.32,1.49l1.49-1.94l1.76,0.39 l-0.05,0.73C377.83,323.13,377.84,323.36,377.84,323.57z M554.43,244.26l1.09-2.88l3,3.97l4.28-2.69l3.89,0.2l0.86,1.39l1.55-0.5 l-1.55,1.59l3.45,1.11l1.08,1.69l0.8,3.29l2,3.27l-1.89,4.41l-0.7,1.69l-6.18,0.86l-4.39,0.44l-1.7,1.8h-0.69l-1.4,0.5l-0.42-1.3 l-1.57-0.59l-0.4-1.4l0.2-1.3l-0.2-2.69l-1.59-1.8l1.2-1.2l0.49-1.59l-1.3-4.48l-0.59-2.89L554.43,244.26z M515.74,232.25 c1.06-0.67,2.07-1.39,3.14-2.16c0.4-0.29,0.81-0.57,1.21-0.87l1.81-4.92l0.92,0.77c2.4,2.02,4.82,2.97,7.36,2.89 c0.14,0,0.27-0.01,0.4-0.01c0.08-0.02,0.44-0.27,0.88-1.12l0.15-0.29l4.26-1.5l-0.08,1.19l2.21-1.06c0.45-0.21,0.87-0.62,1.32-1.05 c0.76-0.73,1.62-1.53,2.85-1.57c0.39-0.01,0.8,0.05,1.2,0.2l0.42,0.15l0.38,1.51l0.23-0.83h0.64c3.2-0.02,5.08,1.63,5.46,4.74 l0.07,0.63l-2.09,0.9l1.66,1.19l0.07,0.3c0.21,0.82-0.02,1.37-0.26,1.69c-0.3,0.4-0.75,0.63-1.24,0.77l1.39,1.4l-1.3,0.42 c-0.24,0.08-0.48,0.17-0.71,0.25c-0.58,0.23-1.19,0.45-1.85,0.55c-0.38,0.06-0.77,0.1-1.3,0.11c-0.3,0.01-0.62,0.01-0.96,0.02 c-0.34,0-0.71,0-1.13,0.01l-3.01,1.38l-3.58,1.05l-0.54-0.65c-1.3,0.96-2.32,1.41-3.25,1.45c-0.73,0.01-1.39-0.23-2.01-0.73 c-0.57,0.62-1.21,0.75-1.62,0.76c-0.57,0.01-1.17-0.18-1.78-0.56c-0.32-0.2-0.42-0.2-0.43-0.2c-0.05,0-0.18,0.05-0.59,0.37 c-0.63,0.48-1.43,0.57-2.19,0.59h-0.56c-0.18,0.01-0.34,0.01-0.52,0.01c-0.18,0.01-0.37,0.01-0.53,0.04 c-0.13,0.01-0.26,0.02-0.39,0.04c-0.19,0.01-0.52,0.04-0.61,0.1c-1.15,0.75-2.18,1.13-3.16,1.15c-1.2,0.04-2.31-0.48-3.29-1.51 l-0.37-0.39l0.4-1.01l-0.39-0.87C513.11,234.75,513.36,233.75,515.74,232.25z M512.24,262.88c0.56-0.38,0.87-0.71,0.93-1.01 c0.05-0.26-0.1-0.64-0.43-1.13c-0.29-0.39-0.3-0.86-0.24-1.31v-5.4h7.72l3.59-1.5l2.2-0.1l3.64,2.27l1.74-1.88l1.87-0.19 c0,0,0.63-0.7,0.63,0.39s-0.2,2.54,0.11,1.68c0.3-0.88,0.8-2.27,0.8-2.27l0.89-0.02h0.7l0.39,0.42v0.8l2.09-2.19l0.9,1.39 l3.19,1.11l2.9,1.19l1.09,3.89l3.29,2.65l0.32,4.43l0.48,2.39l2.49,4.09l0.61,1.89l0.19,1.59l0.61-0.55l0.45,0.25 c0-0.08,0-0.18,0.01-0.26v-1.31l1.97-0.2l-0.89-0.04l0.15-1.94l0.45-0.2c1.07-0.48,1.96-0.73,2.71-0.75 c1.43-0.04,2.39,0.76,2.58,2.15l0.02,0.15l0.42,0.64c0.07-0.43,0.26-0.87,0.43-1.27c0.11-0.25,0.21-0.5,0.29-0.74l0.21-0.67 l2.26,0.27l-0.08,2.24l1.63,1.01l-1.17,2.28l-0.75-0.38c-0.21-0.11-0.48-0.2-0.73-0.3c-0.23-0.1-0.46-0.18-0.69-0.29l0.67,1.02 l-0.93,1.36l-1.83-0.71l-0.43,2.12l-0.88-0.26c-0.56-0.18-0.87-0.57-1.06-0.99c-0.15,0.04-0.31,0.08-0.46,0.13 c-0.37,0.11-0.78,0.24-1.22,0.25c-0.15,0-0.31-0.01-0.46-0.04c-0.24-0.05-0.45-0.11-0.64-0.18l0.53,1.47l-2.56-0.06l-0.08,0.1 c-0.06-0.05-0.11-0.07-0.17-0.11l-3.14-0.07c-0.38,0.1-0.77,0.19-1.15,0.26c-0.64,0.12-1.25,0.14-1.77,0.17l-1.27,0.02 c-0.29,0.01-0.57,0.02-0.84,0.05c-0.29,0.02-0.61,0.12-0.94,0.21c-0.25,0.07-0.51,0.14-0.77,0.19l-0.19,0.05 c-0.21,0.05-0.46,0.11-0.73,0.12c-0.29,0.01-0.55-0.05-0.76-0.18c-0.76-0.43-1.53-0.63-2.35-0.61c-0.74,0.02-1.53,0.23-2.41,0.62 c-0.58,0.26-1.09,0.39-1.56,0.42c-1.25,0.04-2.51,0.02-3.73,0.01c-1.25-0.01-2.53-0.01-3.78,0.02c-1.52,0.05-2.78,0.15-3.95,0.33 c-0.76,0.12-1.57,0.19-2.54,0.21c-0.71,0.02-1.43,0.02-2.14,0.01c-0.69,0-1.38,0-2.07,0.02c-1.45,0.04-2.54,0.18-3.57,0.45 c-0.17,0.05-0.33,0.07-0.51,0.07c-0.94,0.04-2.03-0.5-2.79-1.33c-0.56-0.63-0.83-1.32-0.75-1.95c0.17-1.3,0.51-2.56,0.84-3.77 c0.14-0.54,0.29-1.07,0.42-1.62c0.14-0.58,0.27-1.17,0.4-1.74l0.52-2.32c-0.55-0.69-1.03-1.43-0.86-2.27 c0.06-0.29,0.18-0.55,0.38-0.78l-2.09-1.68l2.08-0.81c-0.04,0-2.1-0.42-2.1-0.42L512.24,262.88z M472.45,283.13 c0.68-2.2,0.82-4.45,0.97-6.84c0.08-1.34,0.18-2.73,0.37-4.11c0.14-0.98,0.12-1.99,0.1-3.06c-0.01-1.03-0.04-2.12,0.11-3.19 c0.17-1.31,0.96-2.49,1.7-3.59c0.17-0.25,0.45-0.39,0.77-0.4c0.33-0.01,0.71,0.12,1.3,0.32c0.14,0.05,0.27,0.1,0.4,0.13l3.27-0.68 l0.78-3.44l2.51,0.5l-0.34,1.83l0.13,0.02c0.1-1.59,1.09-2.66,3.01-3.21c0.18-0.05,0.68-0.19,0.78-0.31 c0.63-0.83,1.27-1.25,1.96-1.27c0.62-0.01,1.18,0.27,1.66,0.87c0.43-0.17,0.86-0.33,1.27-0.49c1.44-0.57,2.79-1.11,4.24-1.44 c0.21-0.05,0.43-0.07,0.64-0.07c2.27-0.07,4.59,2.31,4.68,4.79v0.15c0.06,1.36,0.12,2.89,0.7,3.89c0.96,1.65,0.89,3.34,0.82,4.82 c-0.04,0.82-0.06,1.59,0.06,2.34c0.31,1.83,0.55,3.86,0.75,6.19c0.17,1.95,0.24,3.84,0.2,5.62c0,0.61-0.4,1.07-0.73,1.45 c-0.09,0.12-0.19,0.23-0.27,0.34l-0.5,0.74l-1.3-1.01l-0.57,1.17l-1.27-0.94l-0.04,0.02c-0.74,0.71-1.47,1.08-2.26,1.11 c-0.83,0.02-1.65-0.34-2.53-1.12c-0.37-0.33-0.95-0.73-1.58-0.7c-0.38,0.01-0.77,0.18-1.17,0.49c-0.33,0.27-0.84,0.44-1.38,0.45 c-0.23,0.01-0.44-0.01-0.63-0.05c-1.02-0.25-2.07-0.34-3.19-0.31c-0.9,0.02-1.87,0.14-2.95,0.36c-1.46,0.3-2.94,0.39-4.7,0.44 l-1.82,0.05c-0.43,0.01-0.86,0.04-1.27,0.05c-0.49,0.04-0.96,0.05-1.45,0.06l-3.34,0.1l0.01-0.88c0-0.04,0-0.08-0.01-0.14 C472.36,283.93,472.33,283.54,472.45,283.13z M519.54,380.46c-0.13-0.24-0.94-1.72-0.94-1.72l5.09-1.37L519.54,380.46z M532.1,375.45l-4.92,1.13l0.3-0.61c0.58-1.21,1.83-1.97,3.33-2.02c0.96-0.02,1.93,0.25,2.79,0.75L532.1,375.45z M542.08,372.88 l-3.76,0.06l-1.78,0.29l0.38-0.27l1.4-0.01l3.83-0.63L542.08,372.88z M566.9,345.59l-0.29-0.38c0.18-0.15,0.34-0.31,0.52-0.45 L566.9,345.59z M578.4,315.28c-0.5,0.5-1.11,0.82-1.69,1.13c-0.21,0.11-0.42,0.23-0.62,0.34c-0.32,0.19-0.64,0.38-1,0.59 l-0.99,0.61l-0.07-0.05c-0.01,0.05-0.01,0.1-0.02,0.14c-0.04,0.13-0.1,0.25-0.17,0.36l2.25,1.34l-0.87,0.99 c-1.07,0.52-1.76,1.46-2.5,2.45c-0.93,1.24-1.96,2.64-3.85,3.17c-0.07,0.49-0.14,0.98-0.23,1.46c-0.24,1.58-0.48,3.21-0.83,4.8 c-0.15,0.73-0.86,1.09-1.46,1.41c-0.13,0.07-0.26,0.14-0.38,0.2c-0.24,0.15-0.49,0.27-0.73,0.38c0.07,0.15,0.15,0.3,0.24,0.42 c0.17,0.23,0.39,0.44,0.65,0.69c0.13,0.13,0.27,0.26,0.42,0.4l1.12,1.14L563,338.1l0.01,0.29c0.18,2.31-1.08,3.71-2.4,4.88 l2.25-0.32l0.38,2.03l-0.5,0.48l-3.61,0.83c-0.23,0.06-0.46,0.1-0.7,0.12c-0.13,0.02-0.3,0.05-0.44,0.07 c0.07,0.12,0.19,0.27,0.37,0.49c0.5,0.56,0.15,1.56,0.04,1.85c-0.18,0.45-0.46,0.69-0.84,0.73c-0.81,0.07-1.25,0.59-1.9,1.43 c-0.62,0.8-1.32,1.7-2.59,2.02l-0.75,0.14l-0.26-0.69c-0.24,0.29-0.48,0.57-0.71,0.86c-1.3,1.58-2.64,3.21-4.61,4.21 c0.32-0.01,0.62,0.06,1.01,0.14c0.26,0.06,0.56,0.13,0.93,0.19l0.3,0.05l-1.89,3.29c-0.11,0.07-0.21,0.14-0.32,0.2 c-0.14,0.07-0.3,0.11-0.44,0.11c-0.44,0.01-0.96-0.26-1.14-1.06c-0.07-0.29-0.1-0.63-0.06-1c-2.58,1.25-4.35,2.79-5.41,4.72 l-0.01,0.01l-0.11,0.23c-0.15,0.31-0.3,0.62-0.42,0.95l-0.1,0.23l-6.96,2.58c-0.02-0.13-0.1-0.38-0.1-0.38l-0.21,0.45l-4.01,0.94 l-4.8-1.34l-2.51,2.29c-0.06-0.01-0.11-0.01-0.17-0.02c-0.51-0.06-1.01-0.11-1.47-0.1c-0.1,0-0.18,0.01-0.27,0.01 c-0.56,0.06-1.13,0.19-1.74,0.32c-0.76,0.18-1.55,0.36-2.34,0.38c-0.27,0.01-0.55,0-0.8-0.04c-0.46-0.05-0.95-0.07-1.46-0.06 c-1.26,0.05-2.5,0.29-3.8,0.54c-1.3,0.25-2.65,0.51-4.04,0.55c-0.25,0.01-0.5,0.01-0.75,0h-0.24c-0.64,0.02-1.31,0.18-2.01,0.36 c-0.38,0.1-0.76,0.18-1.14,0.25c-0.13,0.02-0.25,0.06-0.38,0.1c-0.27,0.08-0.57,0.17-0.89,0.18c-0.44,0.01-1.18-0.12-1.59-1.03 h-0.26l0.12,1.52l-1.64,0.77l-0.37-0.71c-0.08-0.15-0.15-0.33-0.21-0.5c-0.05-0.12-0.11-0.29-0.15-0.37l-0.21-0.12 c-0.43-0.24-1.14-0.63-1.46-0.62c-0.45,0.15-0.89,0.25-1.36,0.26c-0.86,0.02-1.59-0.19-2.31-0.4c-0.39-0.12-0.77-0.23-1.14-0.3 c-0.61-0.1-1.25-0.1-1.94-0.1c-0.49,0-0.99,0-1.5-0.04h-0.1c-0.19,0.01-0.42,0.05-0.65,0.1c-0.3,0.07-0.61,0.13-0.94,0.14 c-0.65,0.01-1.5-0.2-2-1.24c-0.25,0.04-0.52,0.06-0.78,0.07c-1.57,0.05-2.91-0.55-4.21-1.12c-0.68-0.3-1.33-0.58-2-0.77 c-0.48-0.13-0.97-0.21-1.44-0.21h-0.08c-0.14,0-0.29,0.01-0.42,0.04c-0.19,0.01-0.37,0.04-0.55,0.04c-0.99,0.04-1.69-0.4-2.09-1.28 c-0.04-0.02-0.07-0.05-0.11-0.07c-0.44,0.23-0.86,0.33-1.26,0.34c-1.24,0.04-1.95-0.86-2.53-1.56c-0.15-0.2-0.32-0.4-0.5-0.59 c-0.37-0.38-0.9-0.67-1.47-0.97c-0.29-0.15-0.57-0.31-0.77-0.43c-0.11-0.05-0.42-0.15-0.57-0.51c-0.63-1.39-1.59-1.95-3.33-1.91 c-0.88,0.02-1.32-0.88-1.83-1.91c-0.15-0.31-0.3-0.62-0.45-0.86c-0.08-0.13-0.15-0.29-0.23-0.44c-0.02-0.07-0.07-0.15-0.1-0.21 c-0.86-0.37-1.71-0.73-2.57-1.07c-0.87-0.34-1.75-0.7-2.6-1.07c-0.5-0.23-0.75-0.7-0.94-1.06c-0.04-0.06-0.07-0.13-0.1-0.19 c-0.14-0.23-0.24-0.48-0.33-0.73c-0.05-0.13-0.12-0.31-0.18-0.42c-2.89-0.89-2.97-3.36-3.02-5.17c-0.01-0.23-0.01-0.44-0.02-0.65 c-0.07-1.27-0.57-2.15-1.44-2.54l-0.54-0.25l0.06-0.58c0.06-0.86,0.12-1.69,0.18-2.51c0.13-1.93,0.25-3.75,0.54-5.56 c0.18-1.12,0.61-2.18,1.02-3.21c0.18-0.46,0.37-0.93,0.54-1.4l0.17-0.48l5.34-0.82l1.17,1.37c0.06-0.99,0.12-2,0.3-3 c0.31-1.77,1.81-2.2,2.79-2.5c0.27-0.07,0.53-0.14,0.77-0.25c0.21-0.08,0.45-0.29,0.71-0.49c0.52-0.42,1.18-0.93,2.05-0.95h0.1 l-0.29-1l2.84-1.87l0.36,1.11l1.58-2.4l1.21,1.43l-0.05-1.59l3.15,1.4l1.14-3.95l0.45-1.37l3.9,4.14l2.89-2.76l0.32,1.06l8.74-2.59 l0.2,0.26l0.45-1.14l1.72-0.25l0.33,1.95c0.18-0.1,0.37-0.17,0.59-0.17c0.23-0.01,0.42,0.05,0.58,0.13l0.5-1.12l1.84,2.09 l0.76-1.22l0.14-0.1c0.27-0.19,0.56-0.29,0.84-0.3c0.9-0.02,1.39,0.75,1.75,1.32c0.06,0.11,0.15,0.25,0.24,0.37 c0.08-0.1,0.19-0.24,0.33-0.48l0.65-1.07l0.74,1.01c0.69,0.94,1.06,1.03,1.19,1.03c0.18-0.01,0.58-0.18,1.34-1.26 c1.58-2.27,2.52-4.76,3.52-7.38l0.23-0.58c0.75-1.97,0.44-3.75-0.92-5.12c-0.34-0.34-1.3-0.45-2.13-0.54 c-0.39-0.04-0.77-0.08-1.13-0.14c-0.13-0.02-0.29-0.02-0.49-0.02c-0.17,0.01-0.34,0.02-0.52,0.04c-0.08,0-0.18,0.01-0.27,0.02 c-0.74,1.18-0.27,2.29,0.63,4.21c0.18,0.39,0.37,0.8,0.55,1.21l0.81,1.89l-1.9-0.78c-0.38-0.15-0.75-0.27-1.08-0.39 c-0.76-0.26-1.47-0.5-2.06-0.99c-2.01-1.66-4.45-1.82-6.58-1.76c-0.46,0.01-0.93,0.05-1.38,0.07c-0.12,0.01-0.24,0.01-0.36,0.02 c-1.83,0.05-2.98-0.5-3.96-1.41c-1.05,1.08-2.47,1.62-4.41,1.68c-0.31,0.01-0.64,0.01-0.97,0c-0.19-0.01-0.39-0.01-0.58-0.01 c-1.25,0.05-2.57,0.36-3.85,0.65c-0.39,0.08-0.77,0.18-1.15,0.26c-0.46,0.1-0.93,0.19-1.39,0.27c-2.26,0.45-4.4,0.87-6.29,2.29 c-0.46,0.34-1.09,0.51-1.75,0.67c-0.59,0.15-1.21,0.31-1.68,0.59c-0.15,0.1-0.34,0.15-0.55,0.15c-0.58,0.02-1.19-0.39-1.89-0.88 c-0.25-0.17-0.49-0.33-0.7-0.45c-0.89-0.51-1.78-1.02-2.68-1.53l-0.59-0.36l-1.27,1.03l-0.43-1.89c-0.26,0-0.51-0.01-0.51-0.01 l-4.41,2.47l-3.76-2.22l-0.95-1.87c0,0-6.24,4.72-7.04,5.04c-0.78,0.32-4.84-1.65-4.84-1.65l-4.11-1.01l-8.74,1.59l-8.16,0.55 l-4.2-3.41l-12.96,3.42l-7.41-0.92l-0.62-3.89l1.43-2.2l4.19-0.13l2.81,0.3c2.63-0.02,5.17-0.02,7.32-0.01 c0.76,0.01,1.3,0.21,1.65,0.61l1.18-0.48l0.14-0.73l3.31-0.92l0.15,0.15l1.83-0.75l0.56,0.01l-0.58-0.8l2.32,0.87l4.8,0.17 l7.47-0.69l4.39-0.13l3.34,1.2c0.14-0.04,0.27-0.04,0.34-0.04c0.3-0.01,0.55,0.02,0.76,0.08c0.26-0.07,0.74-0.13,1.61-0.15 c2.37-0.07,2.24-0.84,3.32-1.11c1.09-0.26,3.29,0.11,3.29,0.11l2.44,1.09l1.28-0.04l1.63-2.48l3.53,1.22l2.37-0.34 c0-0.01,0-0.02,0.01-0.04c0.57-0.81,1.61-1.03,2.34-1.13c0.62-0.08,1.27-0.11,1.88-0.13l0.78-0.02c1.33-0.04,2.59-0.12,3.45-0.65 c0.46-0.3,0.94-0.45,1.44-0.46c0.56-0.01,1.05,0.14,1.44,0.26c0.26,0.08,0.5,0.17,0.67,0.17c0.08-0.01,0.15-0.02,0.25-0.1 l0.26-0.18l0.26-0.01c0.39-0.01,1.05,0.25,1.27,0.75c0.2,0.5,0.37,0.75,0.46,0.87c0.17-0.17,0.39-0.48,0.56-0.7 c0.13-0.18,0.26-0.36,0.39-0.54c0.44-0.56,1.07-0.83,1.69-1.11c0.24-0.1,0.48-0.2,0.7-0.32l0.78-0.42l0.38,0.78 c0.1,0.23,0.19,0.44,0.27,0.64c0.13,0.31,0.24,0.58,0.37,0.73c0.06,0.06,0.12,0.13,0.18,0.19l2.93-2.15l0.46,0.25 c1.08,0.57,1.58,0.69,1.83,0.7c0.01-0.07,0.04-0.19,0.04-0.39l-0.04-1.84l1.41,1.18c0.69,0.59,1.64,1.38,1.96,1.49 c0.18-0.17,0.5-0.73,0.67-1.01l0.38-0.68l3.44,1.61c0.17-0.76,0.49-1.72,1.61-1.75c0.44-0.01,0.94,0.14,1.53,0.5 c0.26-0.08,0.8-0.38,1.13-0.57c0.37-0.21,0.75-0.44,1.11-0.59l1.61-0.69l-0.46,1.7c0.06,0.14,0.44,0.42,1.75,0.96 c0.07-0.13,0.13-0.25,0.2-0.38c0.13-0.21,0.25-0.43,0.44-0.74l1.56-2.66l0.52,3.36c0.4-0.26,0.87-0.45,1.39-0.46 c0.96-0.02,1.95,0.48,3.2,1.39l0.25-1.47l1.01,0.51c1.17,0.58,2.02,1,2.56,0.99c0.57-0.02,1.14-0.62,2.47-2.29l1.06-1.32l0.67,2.64 c0.02,0,0.05,0,0.08,0.01c0.26,0.05,0.51,0.1,0.7,0.08c0.15,0,0.39-0.01,0.7-0.56c0.31-0.56,0.92-0.88,1.71-0.9 c1.3-0.04,2.85,0.67,3.61,1.63c0.19,0.25,0.37,0.5,0.56,0.76c0.25,0.37,0.5,0.71,0.77,1.01c0.27,0.3,0.62,0.57,0.97,0.86 c1.93-1.7,3.37-3.29,3.6-5.79l0.12-1.21l1.97,0.99l0.31,1.62l3.29-0.39l-0.52-2.08l3.47-1.07l0.08,1.05 c0.01,0.25,0.01,0.46,0.02,0.65c0,0.15,0,0.37,0.01,0.42c0.24,0.46,0.52,0.89,0.83,1.36c0.48-0.31,0.92-0.62,1.3-0.96 c0.18-0.15,0.34-0.43,0.57-0.8c0.14-0.25,0.32-0.54,0.53-0.86l1.5,0.71l-0.52,1.62l6.65-0.98l0.12,0.83l0.02,0.17 c0.02,0.23,0.07,0.7,0.18,1.15c0.2,0.87,0.77,1.39,1.5,1.37c0.36-0.01,0.74-0.17,1.08-0.43c0.04-0.04,0.08-0.1,0.12-0.13 c0.15-0.19,0.38-0.45,0.77-0.46l0.25-0.01l0.2,0.12c0.31,0.18,0.57,0.26,0.76,0.26c0.31-0.01,0.58-0.34,1-0.89 c0.27-0.36,0.58-0.77,0.99-1.08c0.53-0.42,1.2-0.51,1.8-0.59c0.2-0.02,0.42-0.05,0.61-0.1c0.18-0.04,0.37-0.08,0.54-0.12 c-0.11-0.07-0.2-0.15-0.29-0.25c-0.5-0.59-0.34-1.32,0.17-3.73l1.63-0.06l1.13,3.92l-0.67,0.12l2.73,0.42l-0.08-2.56l1.62,0.71 l-0.49-1.02l1.25-1.13l1.87,1.46l-0.07-2.32l1.81-1.36l1.27,1.02c-0.61,1.34-0.19,2.27,0.74,3.72c0.46-0.65,1.21-0.93,1.75-1.13 c0.36-0.14,0.69-0.26,0.89-0.44l0.61-0.51l1.2,1.25l1.02-1.33l0.59,1.15c0.04-0.01,0.06-0.02,0.1-0.02 c0.52-0.15,1.01-0.29,1.45-0.49c0.65-0.31,1.31-0.65,1.95-1c0.74-0.38,1.5-0.78,2.27-1.14c0.14-0.06,0.3-0.1,0.46-0.11 c0.36,0,0.67,0.12,0.94,0.23c0.11,0.05,0.21,0.1,0.31,0.12c0.26,0.05,0.51,0.11,0.78,0.17l-1.72-3l8.94,4.55l-0.39,1.59l-2.29-0.04 c0.02,0,1.06,0.08,1.06,0.08l-0.93,3.79l-0.84-0.25c-0.26-0.07-0.53-0.18-0.8-0.27l-0.04-0.01l0.39,0.86l-1.65,1.08l1.5,2.19 l-1.51,1.3c0.38,0.36,0.67,0.89,0.84,1.59l0.14,0.54l-4.41,3.36l1.63,3.34l-2.68-0.43c0,0.18-0.01,0.36-0.04,0.55 c-0.02,0.1-0.05,0.2-0.08,0.29l0.86,0.08l0.17,0.92l1.01-0.31l0.26,0.76c0.06,0.15,0.14,0.33,0.23,0.51 C578.61,314.02,578.94,314.75,578.4,315.28z M626.47,348.74l-2.52,3.07c0.55-0.68,0.02-1.83-0.84-2.96L626.47,348.74z M623.26,347.52l-1.06,0.26c-0.64-0.68-1.31-1.28-1.83-1.68c0.2,0.12,0.44,0.25,0.78,0.42L623.26,347.52z M617.59,342.31l4.78,2.33 l-1.74,0.71c-0.42,0.17-0.64,0.31-0.76,0.39c-0.5-0.29-1.42-0.48-2.35-0.58L617.59,342.31z M595.75,334.32 c1.51,0.63,2.27,2.49,2.21,5.09l-2.58-0.77l-1.15-4.95L595.75,334.32z M601.05,402.21l0.11-0.42l1.02,0.83L601.05,402.21z M680.93,366.26c-1.15,1.49-2.46,3.17-4.99,3.41l-0.81,0.07c0.88-0.8,1.58-1.59,1.87-2.7c0.82-0.5,1.39-1.22,1.81-2.26 c0.33-0.86,1.27-1.21,2.19-1.56c0.33-0.12,0.64-0.24,0.88-0.37l0.89,1.41C682.07,364.78,681.52,365.49,680.93,366.26z"/><path d="M174.94,137.74c-0.29,0.3-0.61,0.59-1.06,1l-1.27,1.17l0.07,1.26c0.07,1.5,0.17,3.75,2.04,5.22l0.15,1.16l-1.95,2.5 l3.58,1.67c-0.03,0.49,0.08,0.97,0.34,1.44l-1.13,0.48l2.25,2.44l-1.28,3.44l2.17-0.49l0.14,0.17c0.12,0.15,0.24,0.3,0.35,0.46 c0.5,0.68,1.18,1.6,2.29,2.02c-0.08,0.63,0.01,1.36,0.25,2.04c0.05,0.15,0.11,0.3,0.17,0.44l-2,1.09l3.23,1.4 c0.3,0.46,1.23,1.89,1.47,2.25c0.61,0.93,1.2,1.82,1.75,2.74c0.3,0.5,0.57,1.02,0.85,1.56c0.3,0.59,0.65,1.25,1.04,1.89 c0.3,0.48,0.71,0.76,1.09,0.97c0.9,2.38,2.54,4.02,4.15,5.64c0.65,0.66,1.27,1.28,1.82,1.94c1.64,1.97,3.45,3.8,5.22,5.59 c0.68,0.68,1.36,1.37,2.02,2.06c0.27,0.28,0.56,0.53,0.85,0.79c0.31,0.27,0.63,0.55,0.83,0.81c0.66,0.87,1.29,1.84,1.85,2.7 l0.68,1.04l1.17,1.76c1.25,1.87,2.49,3.75,3.72,5.64l0.44,0.66c0.55,0.82,1.06,1.59,1.38,2.37c1.04,2.59,2,5.24,2.93,7.82 l0.66,1.79c0,0.04,0.01,0.1,0.01,0.2c0.01,0.26,0.03,0.52,0.09,0.75l0.06,0.29c0.09,0.49,0.22,1.17,0.65,1.78 c0.09,0.13,0.16,0.46,0.11,0.77c-0.02,0.1-0.04,0.17-0.03,0.17c0,0,0.01,0,0.01,0l-5.06,3.5l5.37-0.31 c0.01,0.02,0.04,0.12,0.06,0.17l-1.23,0.43l0.22,3.87l0.21,0.36c0.18,0.3,0.37,0.58,0.56,0.84c0.04,0.06,0.09,0.12,0.13,0.19 c-0.06,0.72,0.05,1.41,0.33,2.11l0.42,1.03l1.11,0.05c4.16,0.18,8.37,0.44,13.04,0.73l2.47,0.16l-0.7-2.38 c-0.35-1.17-1.35-1.53-1.83-1.7c-0.04-0.01-0.08-0.02-0.11-0.04c-0.57-0.29-1.02-0.58-1.38-0.88c-0.06-0.05-0.19-0.24-0.28-0.37 c-0.19-0.27-0.39-0.54-0.61-0.77c-0.33-0.34-0.67-0.67-1.06-1.04c-0.6-0.57-1.16-1.11-1.61-1.68c-0.5-0.64-1.07-0.9-1.4-1.05 l-0.15-0.07c-0.2-0.13-0.41-0.43-0.43-0.5c-0.06-0.51,0.07-1.22,0.35-1.91c0.25-0.62,0.99-2.48-0.65-4.1 c-0.01-0.04-0.01-0.07-0.02-0.11c-0.02-0.16-0.05-0.32-0.07-0.42c0.01-0.12,0.16-0.47,0.25-0.69c0.38-0.87,1.18-2.69-0.4-4.45 c-0.07-0.08-0.18-0.28-0.28-0.45c-0.2-0.37-0.46-0.82-0.88-1.24c-0.08-0.07-0.15-0.14-0.24-0.23c0.21-0.37,0.34-0.94,0.03-1.67 l-0.35-1.07l-0.83-0.09l-0.8-1.99c0.13-0.41,0.16-0.84,0.1-1.27c-0.15-0.94-0.73-1.75-1.77-2.49c-0.7-0.49-0.65-0.7-0.6-0.91 c0.16-0.65,0.46-1.86-0.31-2.78c-0.26-0.32-0.62-0.55-1.02-0.67c-0.11-0.03-0.22-0.06-0.34-0.07l-0.21-0.35 c-0.58-0.99-1.18-2.01-2.07-2.86c-0.72-0.68-1.39-1.36-1.77-2.21c-0.69-1.54-1.74-2.64-2.77-3.69c-0.4-0.42-0.81-0.83-1.17-1.28 c-0.3-0.37-0.62-0.72-0.95-1.09c-0.64-0.72-1.25-1.4-1.67-2.11c-0.23-0.4-0.85-1.44-2.02-1.82c-0.07-1.06-0.58-1.7-1.1-2.07 c-0.04-0.39-0.16-0.74-0.38-1.05c-0.25-0.36-0.59-0.61-1-0.77c-0.1-0.39-0.33-0.94-0.92-1.31c-0.76-0.47-1.41-1.16-2.11-1.9 l-0.33-0.35l-0.59-0.61l0.21-0.28l-1.56-2.05c-0.65-0.86-1.32-1.75-2.04-2.62c-0.35-0.42-0.77-0.69-1.08-0.88 c-0.09-0.05-0.21-0.13-0.24-0.14c0,0,0,0,0,0c-0.25-0.35-0.47-0.78-0.7-1.23c-0.23-0.46-0.47-0.91-0.75-1.34 c-0.52-0.81-1.11-1.5-1.69-2.18c-0.82-0.97-1.6-1.88-2-2.96c-0.29-0.79-0.73-1.44-1.16-2.09c-0.35-0.52-0.67-1.02-0.81-1.46 c-0.91-2.94-1.73-6.07-2.49-9.56c-0.24-1.08-0.24-2.28-0.23-3.55l0-0.57c0-0.46,0.1-0.99,0.21-1.54c0.04-0.22,0.09-0.44,0.12-0.65 c0.03-0.18,0.08-0.36,0.14-0.58c0.11-0.43,0.24-0.93,0.26-1.49c0.01-0.36,0.19-0.84,0.38-1.35c0.29-0.79,0.68-1.83,0.6-2.98 l0.69-0.04l-0.1-1.73c-0.02-0.34-0.07-0.68-0.12-1.02c-0.03-0.17-0.1-0.63-0.1-0.69c0.48-1.14,0.74-2.29,1-3.42 c0.2-0.86,0.4-1.68,0.68-2.45c-0.69-0.84-1.31-1.74-1.74-2.79c-0.82-2.01-0.61-3.55-0.59-5.54c-0.06-0.13-0.12-0.26-0.18-0.39 c-0.07-0.16-0.14-0.31-0.19-0.45l-0.47-1.39l-3.43,0.54l-4.05,7.36l0.71,0.46c-0.16,0.34-0.27,0.72-0.31,1.12 c-0.29,0.21-0.52,0.46-0.68,0.76c-0.14,0.25-0.22,0.51-0.26,0.79l-0.42,0.25c-1.11,0.66-1.29,1.77-1.33,2.43l-2.66,0.3l2.07,2.48 c0.05,0.06,0.11,0.12,0.17,0.19c0,0.07,0.01,0.15,0.01,0.25c0.02,0.57,0.06,1.46,0.57,2.28c-0.11,0.08-0.99,0.72-0.99,0.72 l-2.05,1.53l2.19,1.33c0.31,0.19,0.48,0.37,0.57,0.49c-0.06,0.08-0.12,0.17-0.19,0.27C175.15,137.48,175.06,137.62,174.94,137.74z" /><path d="M174.4,75.15l0.06,0.63l0.04,0c0.07,0.45,0.21,0.94,0.49,1.38c0.01,0.1,0,0.24,0,0.35c0,0.72,0.02,2.9,2.29,3.57 c0.2,0.06,0.41,0.1,0.65,0.13c0.03,0.02,0.06,0.04,0.08,0.07c0.14,0.91,0.58,2.96,2.42,4.21l1.32,2.1l0.08-0.03 c0.25,0.87,0.89,2.21,2.15,2.6c0.03,0.06,0.06,0.11,0.08,0.16c0.21,0.41,0.55,1.08,1.23,1.55c0.02,0.02,0.33,0.44,0.33,0.44 c0.35,0.46,0.71,0.94,1.17,1.39c0.33,0.33,0.68,0.56,0.96,0.75c0.11,0.07,0.25,0.17,0.29,0.18c0,0,0.01,0,0.01,0 c1.4,2.26,3.37,3.08,4.93,3.54c0.27,0.08,0.54,0.15,0.81,0.22l-0.39,4.06l0.06,0.05c-0.33,0.43-0.65,1.02-0.65,1.77 c0,0.99,0.09,1.96,0.17,2.92c0.01,0.09,0.02,0.19,0.03,0.28l-0.18-0.19l-0.46,0.42l-0.18,0.18c1.89,3.3,1.5,6.57,1.98,10.51 c0.03,0.24,0.09,0.48,0.18,0.72c0.23-0.01,0.75-0.03,1.08-0.02l0.15,0.19c0.92,1.19,1.02,1.48,0.87,1.83l-0.36,0.81 c0.64,0.78,1.36,1.57,2.03,2.37l0.31-0.21c0.04,0.14,0.08,0.27,0.12,0.41c0.05,0.17,0.1,0.33,0.15,0.49 c0.45,0.56,0.86,1.13,1.2,1.7c0.61,1.05,0.89,2.08,0.93,3.06l0.13,0.24l0.64-0.21l0.79,1.96c0.08,0.42,0.32,1.1,1.07,1.63 l-0.47,0.61l2.32,0.99l0.22,0.08c0.13,0.05,0.32,0.12,0.51,0.22c0.17,0.66,0.52,1.67,1.56,1.97c0.23,0.07,0.48,0.09,0.75,0.08 c0.05,0,0.1-0.01,0.15-0.01c2.11,2,4.51,3.38,7.34,4.21c3.11,0.91,6.32,1,8.63,0.95l0.12,0.49l1.71-0.21 c0.39-0.05,0.78-0.12,1.16-0.19c0.44-0.08,0.86-0.16,1.24-0.18c0.14-0.01,0.29-0.01,0.43,0.01c0.38,0.04,0.75,0.05,1.14,0.03 c1.34-0.08,2.45-0.5,3.53-0.91c0.73-0.28,1.42-0.54,2.08-0.64c1.8-0.27,3.32-1.2,4.81-2.11c0.43-0.26,0.85-0.52,1.28-0.76 c0.57-0.32,1.06-0.7,1.46-1.01c0.43-0.33,0.83-0.64,1.17-0.77c0.92-0.35,2.58-0.99,3.33-2.63c0.43-0.12,0.79-0.32,1.08-0.6 l0.32-0.31c1.4-1.33,2.85-2.71,4.16-4.26c1.15-1.36,2.07-2.84,2.68-4.29c0.07-0.18,0.14-0.36,0.2-0.52 c0.02-0.05,0.04-0.11,0.06-0.17c1.04-0.42,1.33-1.43,1.5-2.09l0.9-0.41l0.2-0.95c0.02-0.11,0.06-0.22,0.13-0.42 c0.12-0.35,0.28-0.83,0.31-1.35l0.79,0.07l0.18-1.91l0.21-2.06l-0.38-0.06c0.04-0.24,0.09-0.47,0.13-0.68 c0.02-0.05,0.06-0.12,0.09-0.18c0.11-0.23,0.22-0.47,0.29-0.7c0.06-0.18,0.13-0.37,0.2-0.56c0.25-0.66,0.56-1.48,0.53-2.42 c-0.04-1.32-0.21-2.58-0.36-3.69l-0.16-1.32c-0.88-1.13-1.4-2.52-1.26-3.99c0.01-0.09,0.01-0.18,0.01-0.27 c-3.1-2.45-5.64-5.52-8.03-8.89c-0.53-0.75-0.76-1.58-0.82-2.43c-0.23-0.13-0.45-0.24-0.64-0.32l-0.21-0.1 c-0.23-0.11-0.47-0.19-0.72-0.27l-0.48-0.14c-0.4-0.29-0.83-0.5-1.28-0.63c-0.43-0.13-0.88-0.18-1.34-0.15 c-0.99,0.06-1.8,0.45-2.4,0.79c-1.4,0.79-1.73,1.82-1.76,2.55c-0.03,0.74,0.23,1.81,1.62,2.76l0.24,0.16 c0.27,0.18,0.54,0.36,0.8,0.57c0.24,0.2,0.5,0.39,0.77,0.59c0.26,0.19,0.5,0.37,0.71,0.55c-0.3,0.3-0.66,0.7-0.89,1.22 c-0.29,0.64-0.21,1.22-0.16,1.58c0.01,0.08,0.02,0.16,0.03,0.26l0.22,3.95l2.35-2.06c0.53,0.55,1.2,1.08,2.11,1.34 c0.2,0.06,0.42,0.11,0.65,0.14c0.18,0.17,0.47,0.59,0.5,0.74c0.38,2.69,0.42,5.48,0.41,7.62c-0.01,2.48-0.3,4.46-1.67,6.04 l-0.98,1.12c-1.43,1.64-2.91,3.33-4.15,5.22c-0.28,0.43-0.73,0.83-1.21,1.25c-0.49,0.44-1.05,0.93-1.56,1.57 c-0.58,0.74-1.71,1.31-2.92,1.91c-0.56,0.28-1.11,0.56-1.64,0.86l-0.95,0.55c-1.31,0.76-2.54,1.48-3.83,2.06 c-0.78,0.34-1.64,0.62-2.5,0.9c-0.95,0.31-1.94,0.63-2.91,1.07c-1.03,0.47-1.83,0.69-2.58,0.74c-0.3,0.02-0.6,0-0.91-0.04 c-0.22-0.03-0.45-0.04-0.69-0.03c-0.44,0.03-0.85,0.13-1.21,0.23c-0.21-0.13-0.45-0.25-0.71-0.33c-0.23-0.07-0.46-0.09-0.71-0.08 l-0.74,0.05l-0.26,0.25c-0.17-0.1-0.35-0.18-0.54-0.24c-0.28-0.08-0.57-0.11-0.88-0.09c-0.44,0.03-0.84,0.15-1.2,0.25 c-0.1,0.03-0.19,0.06-0.28,0.08c-0.09,0.02-0.19,0.04-0.29,0.07c-0.7-0.31-1.36-0.61-1.81-0.99c-1.16-0.98-2.33-2.14-3.69-3.64 c-0.64-0.71-1.26-1.59-1.84-2.6c-0.33-0.58-0.62-1.23-0.93-1.94c-0.22-0.49-0.44-0.99-0.67-1.47c-0.29-0.59-0.6-1.18-0.91-1.76 l-0.09-0.16c-0.28-0.53-0.56-1.05-0.82-1.58c0.03-0.25,0.04-0.6-0.07-1c-0.11-0.42-0.25-0.84-0.43-1.36 c-0.14-0.44-0.29-0.87-0.4-1.32c-0.47-1.93-0.89-3.87-1.33-5.88c1.31-1.64,0.73-3.39,0.39-4.19c0.31-1.1,0.54-2.29,0.72-3.72 c0.06-0.46,0.03-0.89,0.01-1.25c-0.01-0.15-0.03-0.38-0.05-0.39c0.2-0.5,0.5-1,0.82-1.53c0.31-0.53,0.67-1.12,0.97-1.78 c0.3-0.68,0.46-1.37,0.56-1.89l0.28-0.21c0.68-0.49,1.45-1.05,1.96-1.93c1.15-2.01,3.11-2.48,5.59-3.07 c0.74-0.18,1.48-0.36,2.2-0.57c0.24-0.07,0.52-0.12,0.85-0.14c0.63-0.04,1.34,0.03,2.12,0.1c0.57,0.05,1.14,0.1,1.7,0.12 c0.3,0.01,0.6,0.05,1.01,0.11c0.36,0.57,1.84,2.85,1.84,2.85l1.25-2.71c0.86,0.31,1.68,0.61,2.57,0.87 c0.37,0.11,0.74,0.19,1.09,0.27l-0.03,0.05l1.78,0.26l0.87,0.37l-0.34,2.74l1.94-2.05l0.39,0.17l0.17-0.76l0.28-0.29 c0.02,0,0.04-0.01,0.06-0.01c0.72-0.17,1.23-0.65,1.5-1.41c0.04,0.01,0.08,0.02,0.13,0.03c0.3,0.09,0.48,0.21,0.64,0.41 c0.27,0.35,0.64,0.59,1.09,0.73c0.32,0.09,0.67,0.13,1.06,0.11c1.2-0.07,2.09-0.54,2.51-1.33c0.11-0.2,0.35-0.45,0.65-0.73 c0.56-0.54,1.31-1.28,1.67-2.41l0.04-0.03c0.28-0.17,0.62-0.39,0.94-0.69c0.44-0.42,0.83-0.93,1.21-1.56 c0.29-0.5,0.53-1.08,0.67-1.67c0.05-0.2,0.08-0.4,0.1-0.59l4.29-4.91l-0.17-0.93l0.9,0.13l0.02-2.33l0.2,0.08l0.69-1.81 c0.13-0.34,0.24-0.7,0.34-1.06c0.1-0.33,0.26-0.88,0.37-1.01c0.41-0.44,1.44-1.54,1.14-3c0.18-0.24,0.32-0.5,0.44-0.78 c0.61-1.53-0.04-3.05-0.4-3.87l-0.09-0.2c-0.59-1.43-1.86-2.61-3.23-3.01c-0.42-0.12-0.84-0.17-1.25-0.15 c-0.29,0.02-0.58,0.07-0.85,0.16l-0.4,0.13l-0.31,0.28c-1.28,1.19-1.77,2.6-2.13,3.64c-0.13,0.38-0.32,0.94-0.42,1.04l-0.41,0.24 l-1.18,1.88c-0.66,1.06-1.25,2-1.87,2.92c-0.04,0.06-0.19,0.21-0.32,0.33c-0.32,0.31-0.75,0.73-1.05,1.33 c-0.99,2.01-1.94,4.03-2.89,6.05l-1.46,3.09c-0.21,0.46-0.42,0.93-0.68,1.37c-0.31,0.54-0.66,1.06-1.01,1.57l-0.48,0.72l-1.17,1.77 l-1.72-1.01l-0.91,0.5c-0.03-0.03-0.4-0.36-0.55-0.49l-1.83-1.54l-0.46,0.87l-3.25-0.7c0.12-2.93-0.02-6.05-1.5-9.2l1.41-2.51 l-1.62-0.35l0.33-1.36l-1.21-0.73c-0.07-0.04-0.15-0.09-0.22-0.13c0-0.03,0-0.06-0.01-0.1c-0.06-0.92-0.16-2.59-1.63-3.63 c-0.08-0.4-0.25-0.75-0.5-1.05c-0.27-0.32-0.61-0.57-1.01-0.71c-0.27-1.91-1.63-3.1-2.59-3.93c-0.17-0.15-0.33-0.29-0.49-0.44 l-1.05-1.01l-1.26,0.73c-0.26,0.15-0.48,0.29-0.7,0.43c-0.27,0.17-0.55,0.35-0.73,0.41c-1.12,0.42-2.67,1.15-3.28,2.67 c-0.1,0.25-0.17,0.51-0.2,0.77l-2.29,0.66l2.59,2.33c0.66,0.59,0.83,1.38,1.05,2.38c0.09,0.42,0.19,0.84,0.3,1.23l0.04,0.13 l-5.04,1.37c0,0,4.92,1.58,5.9,1.9c0.17,0.54,0.34,1.09,0.44,1.63c0.18,0.92,0.33,1.84,0.49,2.76l0.03,0.16 c0.2,1.21,0.41,2.46,0.69,3.72l-4.22,1.82l-0.64,0.26c-0.53,0.21-1.04,0.41-1.54,0.67c-1.13,0.59-2.3,1.19-2.58,2.27 c-0.06,0.03-0.12,0.06-0.18,0.09c-1.38,0.19-1.95,0.97-2.18,1.59c-0.09,0.04-0.69,0.27-0.85,0.33c-0.28,0.11-0.57,0.19-0.79,0.25 l-0.54,0.16c-0.28-0.37-0.96-1.26-0.96-1.26c-1.03-1.36-2.1-2.76-3.23-4.11c-0.1-0.12-0.2-0.32-0.32-0.53 c-0.39-0.71-1.05-1.91-2.5-2.35c-0.03-0.04-0.33-0.43-0.33-0.43c-0.38-0.51-0.86-1.14-1.58-1.58c-0.44-0.27-0.61-0.58-0.81-1.88 l-0.18-1.17l-3.62-1.19l-2.15-3.07l-1.38,0.48c-0.09,0.03-0.18,0.05-0.28,0.05c-0.14,0.01-0.3-0.01-0.45-0.06 c-0.35-0.1-0.55-0.3-0.58-0.39l-1.28-4.43l-1.98,3.52c-0.48,0.13-1.24,0.42-1.69,1.2l-1.23,0l0.28,2.04L174.4,75.15z"/><path d="M260.63,134.38l-0.63,0.35l-0.15,0.83c-0.09,0.48,0.05,1.11,0.33,1.6c-0.04,0.1-0.09,0.2-0.13,0.29 c-0.08,0.18-0.14,0.36-0.22,0.61c-0.01,0.04-0.02,0.09-0.05,0.14c-0.14,0.28-0.29,0.56-0.46,0.87c-0.37,0.68-0.75,1.38-1.04,2.15 c-0.26,0.69-0.07,1.29,0.14,1.69l-2.1,1.88l2.34,0.52c-0.01,0.04-0.02,0.08-0.03,0.12c-0.01,0.06-0.03,0.12-0.07,0.25 c-0.07,0.21-0.17,0.53-0.2,0.89c-0.01,0.1-0.03,0.2-0.05,0.37c-0.1,0.59-0.23,1.39,0.15,2.21c0.19,0.41,0.19,0.56,0.2,0.57 c-0.03,0.03-0.15,0.08-0.22,0.12l-0.44,0.21l0.32,1.13l-0.92,0.86l1.33,2.21c-0.19,0.38-0.3,0.78-0.3,1.2 c-0.01,0.24,0.02,0.49,0.08,0.72c-0.06,0.1-0.11,0.2-0.16,0.3c-0.43,1.03,0.05,1.97,0.3,2.39l-0.02,0.01 c-0.01,0.21-0.01,0.43,0,0.68l0.04,0.76l0.3,0.24l-1.14,0.88l1.95,1.56c-0.13,0.06-0.26,0.12-0.39,0.19l-2.38,1.31l2.2,1.6 c0.61,0.45,0.61,0.45,0.35,0.97c-0.49,1-0.48,2.09-0.47,3.03c0,0.24,0,0.48-0.01,0.72c-0.02,0.42,0.04,0.8,0.1,1.19 c0.02,0.11,0.03,0.22,0.05,0.37l0.23,1.35l0.54,0.06l-0.08,0.28c-0.38,1.35-0.9,3.17-0.03,4.99c-0.06,0.1-0.11,0.2-0.15,0.31 c-0.4,0.97-0.01,1.86,0.18,2.27l0.06,0.14c0.3,0.78,0.24,1.15,0.02,1.6c-0.4,0.81-0.28,1.61-0.19,2.22 c0.02,0.12,0.04,0.24,0.05,0.36l0.16,2.91l0.14,0.3c0.06,0.13,0.15,0.29,0.26,0.46c0.03,0.04,0.05,0.08,0.08,0.12 c-0.03,0.46-0.1,0.94-0.17,1.44c-0.18,1.25-0.41,2.81,0.05,4.43c0.07,0.25,0.11,0.46,0.13,0.61c-1.48,1.82-0.78,3.58-0.32,4.67 l-0.59,0.6l0.06,0.3c0.11,0.5,0.14,1.02,0.1,1.56l-0.04,0.57l4.05,0.37l0.19-0.31c0.16-0.27,0.33-0.49,0.58-0.76 c0.26-0.38,0.62-0.71,1.1-1.02l0.17-0.11l0.1-0.29l0.01-0.06c0.13-0.84,0.39-1.6,0.77-2.26c0.26-0.45,0.58-0.89,0.97-1.33 l0.08-0.09l0.04-0.11c0.17-0.53,0.34-1.27-0.03-1.99c0.08-0.1,0.16-0.21,0.23-0.33c0.05-0.08,0.11-0.16,0.21-0.3 c0.47-0.66,1.55-2.17,0.54-3.98l0-0.03c0.05-0.27,0.08-0.55,0.09-0.8c0.01-0.4,0-0.8,0-1.25l2.92-1.76l-2.55-1.09l1.09-2.28 l-1.39-0.94c-0.01-0.1-0.01-0.21-0.02-0.35c-0.02-0.33-0.06-0.94-0.02-1.07c1.47-2.65,0.8-5.13,0.32-6.69l0.04-0.12 c0.27-0.72,0.73-1.92-0.32-2.77c0-0.08,0.01-0.21,0.04-0.44c0.08-0.6,0.18-1.43-0.18-2.21c-0.01-0.09,0.01-0.4,0.02-0.53l0.02-0.28 c0.08-1.28,0.19-2.56,0.3-3.84l0.04-0.28c0.06-0.23,0.18-0.66,0.1-1.18c-0.07-0.47-0.18-0.94-0.3-1.43l-0.25-1.09 c0.21-0.67,0.25-1.29,0.12-1.86c-0.05-0.23-0.14-0.45-0.25-0.65c0.04-0.69,0.17-3.22,0.23-4.44c0.01-0.26-0.03-0.51-0.12-0.76 l-0.53-4.59l-0.04-0.18l0.76-1.32l-1.2-0.74c-0.01-0.07-0.01-0.14-0.02-0.21c0.93-0.72,1.29-2.24,0.95-3.23 c-0.06-0.19-0.02-0.43,0.1-0.94c0.08-0.35,0.16-0.7,0.2-1.05c0.02-0.15,0.05-0.3,0.09-0.52c0.16-0.85,0.43-2.23-0.55-3.5l0.02-0.19 c0.03-0.41,0.09-0.83,0.14-1.26l0.16-1.28c0.35-0.99,0.33-1.99,0.26-2.86c-0.01-0.17-0.02-0.32-0.03-0.44l1.25-0.08l0.03-1.59 c0-0.21,0-0.42,0-0.62c0-0.27-0.01-0.52,0.02-0.67c0.23-1.24,0.8-2.43,1.47-3.75c0.72-1.41,1.23-2.89,1.73-4.32 c0.26-0.75,0.52-1.51,0.82-2.25c0.21-0.53,0.49-1.07,0.78-1.64l0.06-0.11c0.15-0.29,0.3-0.57,0.44-0.86l2.37-4.93 c0.19-0.4,0.36-0.82,0.55-1.28c0.31-0.77,0.6-1.5,0.99-1.88c0.58-0.56,0.91-1.23,1.18-1.78c0.4-0.82,0.45-0.82,0.61-0.83l0.81-0.07 l0.47-0.66c1.43-2.03,3.68-2.83,5.69-3.34l1.03-0.26l1.3-5.81l-2.16,0c-0.33,0-0.61-0.04-0.86-0.11c-0.65-0.19-1.11-0.66-1.47-1.52 c-0.07-0.15-0.12-0.32-0.18-0.52c-0.04-0.14-0.1-0.3-0.16-0.46c-2.21,1.49-4.37,3.06-6.53,4.63c0.03,0.02,0.06,0.04,0.09,0.07 l-1.43,1.52l-0.42,0.03l-0.68,0.74c-1,1.07-2.04,2.18-3.01,3.37c-0.36,0.44-0.64,0.9-0.88,1.31c-0.25,0.43-0.52,0.87-0.77,1.08 c-1.79,1.5-2.59,3.28-2.45,5.46c0.03,0.43,0.12,0.82,0.2,1.14c0.03,0.12,0.08,0.31,0.1,0.43c-0.05,0.08-0.11,0.18-0.18,0.25 c-0.17,0.12-0.42,0.3-0.66,0.57c-0.53,0.61-1.04,1.23-1.51,1.81l-0.7,0.85l-0.1,0.37c-0.07,0.27-0.14,0.54-0.2,0.81 c-0.13,0.53-0.25,1.04-0.42,1.49c-0.11,0.3-0.3,0.64-0.53,1.04c-0.11,0.19-0.22,0.38-0.34,0.62c-0.42,0.73-0.86,1.48-1.17,2.33 c-0.41,1.12-0.8,2.33-1.22,3.82c-0.39,1.37-0.77,2.83-1.2,4.59c-0.1,0.4-0.14,0.8-0.17,1.18c-0.02,0.18-0.04,0.46-0.05,0.57 c-0.73,0.84-0.81,1.79-0.86,2.44C260.65,134.21,260.64,134.32,260.63,134.38z"/><path d="M283.48,201.26l-0.18-0.05c-0.5-0.13-0.96-0.12-1.33-0.11c-1-0.47-2-0.97-3-1.48c-0.68-0.34-1.37-0.69-2.05-1.02 c-0.16-0.08-0.33-0.14-0.48-0.19c-0.38-0.11-0.72-0.13-0.82-0.12l-1.06-0.16l-0.78,0.72c-0.54,0.49-0.84,1.11-0.9,1.8l-0.83,0.08 l1.22,5.36l1.11-0.07l-0.08,0.52l2.6,0.39c0.27,0.23,0.57,0.42,0.88,0.55l-2.58,2.96l6.65-1.34c0.66,1.07,1.6,1.81,2.75,2.15 c0.55,0.16,1.14,0.23,1.76,0.19c0.56-0.03,1.15-0.15,1.75-0.35c0.08,0.15,0.14,0.3,0.16,0.38c-0.02,0.14-0.21,0.59-0.29,0.78 c-0.14,0.34-0.28,0.67-0.38,0.99l-1.17,3.75l3.82-0.89c0.12-0.03,0.28-0.07,0.47-0.13c0.26-0.08,0.59-0.17,0.84-0.19 c0.38-0.02,0.87,0.06,1.39,0.15c0.67,0.11,1.5,0.25,2.39,0.2c0.23,0.23,0.45,0.48,0.69,0.74c0.78,0.85,1.64,1.77,2.77,2.51 l-1.15,0.43l7.95,4.82c0.36,0.57,0.83,0.94,1.4,1.11c0.18,0.05,0.36,0.08,0.55,0.09c0.14,0.01,0.29,0.01,0.44,0 c0.6-0.03,1.12-0.19,1.55-0.33l0.48,1.03l0.96-0.06l-0.13,1.72l2.04,0.33c0.26,0.04,0.55,0.07,0.86,0.11 c0.26,0.03,0.53,0.06,0.78,0.1c0.07,0.27,0.16,0.55,0.26,0.82l0.23,0.61l3.46,2.6c1.07,2.24,2.81,3.81,4.93,4.43 c0.32,0.09,0.65,0.17,0.98,0.21l0.27,0.31c0.48,0.54,0.89,1,1.27,1.47c0.12,0.15,0.25,0.3,0.39,0.47c0.24,0.28,0.57,0.66,0.63,0.84 c0.73,2.01,1.9,3.27,3.46,3.73c0.26,0.08,0.53,0.13,0.81,0.16c0.12,0.68,0.34,1.68,1.12,2.42c0.35,0.33,0.71,0.65,1.07,0.97 c1.05,0.93,2.04,1.81,2.54,2.91c0.11,0.25,0.26,0.48,0.44,0.68c-1.35,1.86-0.06,3.32,0.67,4.14l2,2.25l1.3-2.09l0.45,0.42l0.94,0.3 c0.2,1.45,1.04,2.62,1.71,3.56l0.31,0.45c0.49,0.71,1.01,1.39,1.55,2.08c0.65,0.85,1.33,1.72,1.88,2.62 c1.1,1.8,2.09,3.78,3.09,5.77l0.23,0.46c0.13,0.25,0.22,0.59,0.34,0.99c0.29,0.96,0.65,2.15,1.65,3.02 c0.99,0.87,1.26,2.05,1.38,3.67c0.24,3.17,2.32,4.06,4.26,4.65l3.23,0.98l-0.34-3.36c-0.03-0.32-0.1-1.04-0.1-1.04 c-0.06-0.75-0.12-1.4-0.24-2.03c-0.39-2.17-0.8-4.34-1.22-6.51l-0.41-2.13c-0.24-1.22-0.89-1.79-1.52-2.06 c-0.04-0.12-0.08-0.27-0.12-0.39c-0.17-0.59-0.44-1.54-1.17-2.31c-0.21-2.18-1.36-3.77-2.38-5.18c-0.53-0.73-1.02-1.41-1.31-2.08 c-0.41-0.97-1-1.77-1.53-2.49c-0.19-0.25-0.37-0.51-0.54-0.76l-1.21-1.82c-1-1.52-2.03-3.08-3.13-4.59 c-0.66-0.91-1.41-1.69-2.2-2.49c-0.25-0.26-0.5-0.52-0.75-0.78c-0.29-0.31-1.6-1.69-1.61-1.69c-0.45-0.48-0.89-0.96-1.32-1.45 l-0.14-0.16c-0.08-0.09-0.17-0.18-0.21-0.24c-0.5-0.85-1-1.7-1.53-2.62l-2.82-4.87l-0.6,1.23c-0.7-1.01-1.41-2.01-2.13-3.01 c-0.33-0.47-0.79-0.79-1.37-0.96c-0.18-0.05-0.34-0.08-0.48-0.1c-0.28-0.12-0.6-0.24-0.95-0.36c-0.12-0.04-0.27-0.09-0.4-0.14 c-0.71-1.46-1.79-2.23-2.9-2.83c-1.15-2.38-3.11-3.71-4.85-4.89c-0.31-0.21-0.62-0.42-0.92-0.63c-1.36-0.97-2.72-1.94-4.06-2.93 c-0.22-0.16-0.43-0.35-0.7-0.58c-0.39-0.34-0.83-0.73-1.36-1.08c-2.21-1.46-4.78-3.14-7.35-4.7c-1.56-0.95-3.39-2.04-5.37-2.9 c-1.35-0.59-2.7-1.03-4.02-1.45c-0.59-0.19-1.18-0.38-1.77-0.58l-0.12-0.04c-0.63-1.28-1.64-2.15-2.92-2.52 c-0.57-0.17-1.19-0.23-1.85-0.2c-1.38-1-2.77-1.41-4-1.78c-0.81-0.24-1.51-0.45-1.88-0.68 C284.93,201.86,284.21,201.48,283.48,201.26z"/><path d="M238.16,116.39c0.22-0.33,0.56-0.83,0.65-1.51l0.07-0.43c0.16-1.05,0.32-2.14,0.22-3.3c-0.13-1.61-0.47-3-0.99-4.16 c-0.36-0.79-0.85-1.44-1.29-2.01c-0.34-0.44-0.66-0.86-0.84-1.25c-0.7-1.49-1.81-2.47-3.3-2.9c-0.27-0.08-0.56-0.14-0.86-0.19 l-0.05-0.01c-0.85-0.62-1.76-1.08-2.73-1.37c-0.97-0.28-2-0.4-3.07-0.33c-0.83,0.05-1.68,0.2-2.54,0.46 c-1.61,0.48-3.81,1.4-5.09,3.08c-1.02,1.33-1.6,2.87-2.15,4.35l-0.05,0.14c-0.2,0.53-0.4,1.06-0.63,1.58l-0.89,2.04l0.76,0.21 c-0.02,0.08-0.04,0.17-0.06,0.26c-0.18,0.93-0.03,1.91,0.44,2.84c-0.17,0.41-0.2,0.78-0.19,1.04c0.03,1.21,0.88,2.11,1.75,2.62 c0,0.01,0,0.03,0,0.04c0,0.17-0.01,0.35-0.01,0.53c0.02,0.97,0.44,1.75,0.8,2.38l-0.35,0.72l1.13,0.78l0.57,0.57l0.22-0.01 l0.41,0.29l0.07,0.99l0.93-0.05c0.53,1.02,1.35,1.46,1.99,1.65c0.52,0.15,0.99,0.16,1.29,0.15c0.28-0.02,0.57-0.06,0.88-0.13 c0.07,0.02,0.15,0.03,0.23,0.04c0.22,0.02,0.45,0.04,0.75,0.05c0.19,0.01,0.38,0.02,0.57,0.05c0.32,0.06,0.63,0.15,1.04,0.26 l1.64,0.44l0.76-0.59c0.2-0.16,0.44-0.39,0.69-0.64c0.37-0.37,0.55-0.53,0.65-0.6c2.09-0.22,3.52-1.22,4.31-2.97 c0.05-0.07,0.16-0.17,0.24-0.24c0.24-0.22,0.61-0.57,0.9-1.06l1.5-0.09l-0.56-3.4l0.06-0.1L238.16,116.39z"/><path d="M338.32,207.17c0.03,0.68,0.15,1.42,0.66,2.07c0.44,0.57,0.93,1.02,1.42,1.48c0.28,0.26,0.55,0.52,0.77,0.75 c0.01,0.06,0.03,0.13,0.04,0.18c0.04,0.18,0.07,0.35,0.12,0.48l0.24,0.76l0.73,0.31c0.41,0.18,0.83,0.34,1.26,0.51 c0.89,0.36,1.73,0.69,2.49,1.11c0.3,0.17,0.61,0.29,0.91,0.38c0.41,0.12,0.82,0.17,1.22,0.15c0.85-0.05,1.6-0.41,2.17-1.05 c0.74-0.82,1.05-1.88,1.29-2.9c0.2-0.91,0-1.8-0.13-2.39c-0.12-0.52-0.26-1.04-0.42-1.59c-0.14-0.5-0.28-0.99-0.39-1.5 c-0.17-0.79-0.33-1.58-0.48-2.38c-0.14-0.71-0.27-1.42-0.43-2.14c-0.15-0.68-0.6-1.07-0.85-1.29c-0.04-0.04-0.09-0.07-0.13-0.12 l-1.4-1.44l-1.23,1.6c-0.71-0.59-1.52-1.02-2.4-1.28c-0.87-0.26-1.85-0.35-2.9-0.29c-0.29,0.02-0.59,0.05-0.9,0.08 c-2.04,0.27-2.61,1.92-2.87,2.66c-0.03,0.1-0.09,0.24-0.13,0.33l-1.33,1.04l1.16,1.34C336.44,205.75,337.74,206.75,338.32,207.17z" /><path d="M287.65,96.93l0.16,0.16l0.01,0.12l-0.02,0.46l0.46,0.12c0.05,0.02,0.14,0.06,0.2,0.09c0.12,0.06,0.24,0.12,0.38,0.18 l-0.35,1.93l3.29,0.45l0.2,0.89l2.18-1.03c0.12-0.06,0.25-0.13,0.39-0.21c0.03,0.02,0.06,0.03,0.09,0.05l1.59,2.07l0.43-0.27 c0.11,0.1,0.23,0.21,0.28,0.26c0.44,0.42,1.05,1,1.92,1.25c0.22,0.06,0.45,0.1,0.67,0.12l0.75,0.05c0.39,1.3,1.36,2.27,2.72,2.67 c0.54,0.16,1.12,0.22,1.73,0.19c0.04,0,0.08-0.01,0.13-0.01l0.16,2.79l3.65-0.6c0.07,0.09,0.15,0.18,0.23,0.26 c0.29,0.28,0.64,0.48,1.04,0.59c0.24,0.07,0.47,0.1,0.67,0.11l0.07,1.2l1.68,0.03c0.02,0.05,0.16,0.49,0.22,0.64l1.04,2.85 l1.63-1.63c0.34,0.34,0.8,0.73,1.42,0.92c0.27,0.08,0.55,0.11,0.83,0.1c0.26-0.02,0.51-0.07,0.78-0.18 c0.05,0.05,0.11,0.1,0.15,0.14c0.38,0.37,0.95,0.93,1.78,1.17c0.17,0.05,0.35,0.09,0.55,0.1c0.38,1.1,1.33,1.77,3.03,2.64 c0.1,0.05,0.31,0.23,0.51,0.41c0.16,0.14,0.33,0.29,0.51,0.44l0.02,0.01l-0.02,1.23l3.17,0.01l-0.15,1.26l3.04,1.5l0.97-0.83 c0.08-0.07,0.16-0.15,0.25-0.24c0.34,0.72,0.86,1.26,1.54,1.6l-0.25,1.14l0.47,0.22c0.33,0.15,0.68,0.28,1.12,0.41 c0.2,0.06,0.96,0.26,1.11,0.3c0.17,0.05,0.27,0.08,0.32,0.11c-0.01,0.11-0.03,0.27-0.04,0.36l-0.09,0.6l3.71,0.77l0-0.01 c0.12,0.05,0.24,0.1,0.37,0.14l0.05,0.08c0.19,0.31,0.41,0.66,0.65,1l0.48,0.68l0.27,0.04l0.45,0.05c0.14,0.1,0.46,0.64,0.62,0.9 c0.44,0.74,0.98,1.66,1.93,2.31l0.66,0.45l0.16,0.94l-1.63,2.57l3.52-0.2l0.65,0.6c0.29,0.26,0.6,0.5,0.92,0.74 c0.17,0.13,0.61,0.46,0.66,0.51c0.15,0.42,0.52,1.45,1.45,1.95l0.49,1.48l1.38-0.08l0.66,3.46l1.26-0.53l1.98,3.61l0.63-0.35 c0.04,0.05,0.09,0.09,0.14,0.14c0.36,0.34,0.8,0.59,1.3,0.74c0.26,0.08,0.52,0.12,0.81,0.15l2.55,4.99l0.9-0.14 c0.34,0.99,0.72,2.1,1.33,3.19l0.35,2.83l1.44,0.07l1.05,1.68l1.03,4.58l-0.47,0.32l0.64,0.43l0.87,3.83l1.14-2.48 c0.01,0.01,0.03,0.02,0.04,0.03c0.26,0.22,0.65,0.54,1.2,0.7c0.22,0.06,0.45,0.1,0.67,0.09c0.01,0.12,0.02,0.3,0.03,0.54l0.02,0.42 c0.1,1.42,0.71,2.42,1.73,2.86c0.26,0.61,0.57,1.3,1.13,1.88c1.16,1.22,1.04,1.85,0.78,2.5l-0.7,1.74l1.66,0.73 c0.09,0.08,0.29,0.4,0.4,0.6c0.31,0.51,0.8,1.32,1.64,1.84c-0.29,1.3-0.23,2.35,0.16,3.19c0.07,0.15,0.15,0.3,0.25,0.44l-0.69,3.06 l1.01-0.23l-0.39,4.24l1.34,0.12c-0.19,0.75-0.38,2.1,0.29,3.24c0.34,0.59,0.37,1.09,0.09,1.85c-0.86,2.36-1,3.7,0.47,5.43 c-0.66,1.44-0.56,2.72,0.3,3.82l-0.06,0.5c-0.14,1.07-0.27,2.13-0.45,3.19c-0.11,0.65-0.24,1.31-0.38,1.96 c-0.21,1.03-0.46,2.19-0.59,3.38c-0.08,0.75,0.07,1.42,0.19,1.97c0.08,0.33,0.1,0.49,0.11,0.57c-0.43,1.27-0.89,2.75-1.12,4.47 c-0.33,2.58-0.69,5.1-1.43,7.54c-0.5,1.65-0.79,3.32-1.07,4.98c-0.13,0.74-0.25,1.47-0.4,2.2c-0.11,0.55-0.23,1.09-0.38,1.71 l-0.13,0.55l-0.06,0.09c-0.28,0.41-0.67,0.97-0.9,1.68c-0.3,0.91-0.56,1.84-0.84,2.88c-0.16,0.59-0.32,1.17-0.5,1.75 c-0.12,0.39-0.27,0.78-0.42,1.16c-0.19,0.5-0.38,1.01-0.54,1.52c-0.31,1.06-0.61,2.13-0.91,3.19c-0.43,1.54-0.87,3.08-1.34,4.61 c-0.14,0.46-0.4,0.95-0.64,1.44c-0.21,0.41-0.42,0.82-0.6,1.25c-0.18,0.43-0.34,0.87-0.52,1.37c-0.16,0.44-0.31,0.88-0.5,1.31 c-0.23,0.51-0.48,1.01-0.73,1.5l-0.06,0.12c-0.44,0.87-0.94,1.85-1.32,2.9c-0.1,0.29-0.32,0.63-0.52,0.97 c-0.46,0.75-1.07,1.77-1.15,3.07c-0.06,0.07-0.13,0.15-0.19,0.23c-0.33,0.45-0.59,0.86-0.81,1.25c-0.29,0.53-0.58,1.06-0.86,1.59 c-0.54,1.02-1.06,1.99-1.65,2.92c-0.57,0.9-1.22,1.8-1.9,2.73c-0.56,0.77-1.11,1.54-1.64,2.33c-0.39,0.59-0.72,1.2-1.06,1.83 c-0.24,0.45-0.48,0.9-0.75,1.32c-0.89,1.38-1.69,3.07-0.99,5.18l0.55,1.66l1.7-0.37c0.25-0.05,0.51-0.08,0.8-0.11 c0.95-0.1,2.14-0.23,3-1.13c1.52-1.58,2.84-3.37,3.94-5.3c0.13-0.23,0.25-0.47,0.37-0.7c0.42-0.84,0.5-0.89,0.71-0.95 c1.23-0.32,1.94-1.38,2.13-1.69c0.84-1.41,1.65-2.84,2.47-4.26c0,0,1.26-2.2,1.29-2.25c1.66-0.65,1.98-2.22,2.13-2.91 c0.03-0.15,0.06-0.31,0.1-0.4c0.31-0.69,0.63-1.38,0.96-2.07l0.45-0.58l1.73-2.29l-0.57-0.2c0.09-0.1,0.17-0.19,0.25-0.29 c0.45-0.55,0.77-1.11,1.09-1.69l0.2-0.36c0.22-0.38,0.41-0.77,0.61-1.16l1.35-2.63l-0.64-0.16c0.12-0.27,0.54-1.16,0.54-1.16 c0.95-0.57,2.2-1.86,1.41-4.57c-0.1-0.33-0.07-1.11,0.34-2.22c0.06-0.16,0.15-0.31,0.27-0.54c0.43-0.75,1.13-2,0.6-3.69 c0-0.02,0.01-0.06,0.02-0.11l1.3-0.44l-0.11-0.55c-0.03-0.16-0.07-0.33-0.11-0.5c-0.04-0.15-0.09-0.38-0.12-0.54 c0.04-0.01,2.84-1.02,2.84-1.02l-1.05-1.17l0.15-1.02c0.05-0.39,0.07-0.79,0.09-1.22c0.01-0.24,0.02-0.4,0.02-0.52 c0.73-0.84,1.17-1.75,1.33-2.72l0.57,0.19l0.04-2.66c0-0.14-0.01-0.3-0.02-0.49c0.42-0.49,0.76-1.02,1.03-1.59l0.17-0.38l-0.5-0.58 l-0.25-5.12l2.32-2.67l-1.03-0.14c-0.01-0.07-0.01-0.14-0.01-0.21l1.94,0.28l-1.06-1.98l0.66-6.37c0.01-0.09,0.14-0.37,0.2-0.51 c0.27-0.6,0.71-1.57,0.5-2.77c0.27-0.37,0.6-0.83,0.78-1.39c0.48-1.48,0.03-2.82-0.3-3.79c-0.36-1.07-0.37-1.31-0.22-1.57 c0.46-0.77,0.28-1.51,0.07-1.99l1.6-1.8l-1-0.53c0.44-1.16,0.12-2.36-0.07-3.05c-0.08-0.32-0.13-0.54-0.15-0.66l0.22-0.44 l1.51-0.64l-0.79-0.79l0.27-0.53l-0.89-0.09l-0.24-0.24l0.1-0.56c0.44-2.44-0.52-4.39-1.23-5.84c-0.15-0.31-0.3-0.61-0.42-0.89 c0.03-0.13,0.06-0.27,0.09-0.4c0.16-0.7,0.33-1.42,0.19-2.24c-0.16-0.89-0.47-1.68-0.77-2.44l-0.06-0.15l0.42-0.32l-0.7-1.43 c-0.21-0.44-0.47-0.87-0.74-1.31c-0.29-0.48-0.73-1.21-0.73-1.5c0.01-1.55-0.44-2.69-1.37-3.5c0.08-1.67-0.75-2.92-1.48-3.78 l2.53-1.65l-2.46-0.63l-1.78-1.06c0.01-0.72,0-1.51-0.37-2.3c-0.71-1.51-1.65-2.89-2.5-4.12c-0.36-0.52-0.77-0.97-1.18-1.41 c-0.22-0.24-0.44-0.48-0.64-0.74c-0.17-0.23-0.33-0.54-0.51-0.87c-0.07-0.14-0.14-0.28-0.22-0.42c-0.04-0.33-0.16-0.64-0.34-0.91 c-0.25-0.38-0.55-0.67-0.85-0.97c-0.09-0.09-0.18-0.18-0.24-0.26c-0.25-0.37-0.48-0.77-0.74-1.23c-0.54-0.95-1.1-1.93-1.95-2.8 c-0.34-0.35-0.56-0.8-0.83-1.37c-0.18-0.38-0.37-0.76-0.58-1.13c-0.76-1.29-1.8-2.32-2.73-3.24c-0.41-0.41-0.85-0.71-1.26-1 c0-0.01,0.25-1.03,0.25-1.03l-1.49-1.66c-0.57-0.64-1.2-1.35-1.84-2.04c-0.42-0.45-0.85-0.9-1.27-1.34l-0.21-0.22 c-0.71-0.74-1.43-1.49-2.11-2.26c-0.31-0.35-0.62-0.8-0.92-1.24c-0.74-1.08-1.58-2.3-2.93-2.96c-0.5-0.25-0.87-0.72-1.33-1.31 c-0.5-0.65-1.13-1.45-2.09-2.06c-0.53-0.34-1.04-0.84-1.59-1.37c-0.92-0.89-1.96-1.9-3.43-2.51c-0.03-0.04-0.07-0.08-0.1-0.12 c-0.15-0.17-0.29-0.35-0.44-0.52c-0.38-0.46-0.81-0.99-1.35-1.46c-0.48-0.42-1-0.73-1.45-1c-0.21-0.12-0.42-0.25-0.61-0.39 c-0.44-0.31-0.87-0.63-1.3-0.95l-0.14-0.11c-0.94-0.7-1.91-1.43-2.97-2.08c-0.29-0.18-0.58-0.37-0.91-0.58 c-1.08-0.71-2.2-1.44-3.67-1.87l-0.11-0.03c-0.13-0.12-0.4-0.43-0.51-0.56c-0.39-0.47-0.88-1.06-1.56-1.48 c-2.38-1.48-4.78-2.78-7.04-3.97c-0.96-0.51-1.94-0.98-2.92-1.45c-1-0.48-2-0.95-2.97-1.48c-1.56-0.84-3.1-1.71-4.74-2.63 c-1.75-0.99-3.51-1.97-5.29-2.92c-1.88-1-3.83-1.9-5.78-2.79l-0.97-0.44c-0.57-0.26-1.16-0.49-1.8-0.73 c-0.46-0.18-0.92-0.35-1.37-0.55c-0.26-0.12-0.51-0.27-0.82-0.46c-0.55-0.33-1.17-0.7-1.91-0.92c-0.16-0.05-0.33-0.09-0.51-0.12 c-0.26-0.04-0.51-0.07-0.76-0.1c-0.01,0-0.03,0-0.04-0.01l-0.07-0.39l-1.83-0.65c-0.35-0.12-0.62-0.22-0.89-0.32 c-0.28-0.11-0.55-0.23-0.84-0.36c-0.55-0.24-1.12-0.49-1.75-0.69c-0.34-0.11-0.67-0.25-1.05-0.41c-0.47-0.2-1.01-0.42-1.58-0.59 c-0.76-0.22-1.47-0.31-2.17-0.27c-0.19,0.01-0.39,0.03-0.58,0.06c-0.07-0.01-0.17-0.04-0.24-0.05c-0.19-0.04-0.39-0.09-0.58-0.11 l-2.05-0.29l-0.45,5.91l3.48-0.24L287.65,96.93z"/></g></svg>