<?xml version="1.0" encoding="utf-8"?>
<!-- Generator: Adobe Illustrator 27.4.1, SVG Export Plug-In . SVG Version: 6.00 Build 0)  -->
<svg version="1.1" id="Camada_1" xmlns="http://www.w3.org/2000/svg" xmlns:xlink="http://www.w3.org/1999/xlink" x="0px" y="0px"
	 viewBox="0 0 385.94 394.5" style="enable-background:new 0 0 385.94 394.5;" xml:space="preserve">
<style type="text/css">
	.st0{fill:#FFFFFF;}
</style>
<path d="M198.6,131.78c0.33-0.33,0.66-0.66,1.08-1.08c0.49,0.75,0.97,1.47,1.53,2.33c3.31-1.91,6.58-3.57,9.58-5.63
	c2.22-1.52,4.28-2.83,6.96-3.74c2.15-0.73,3.75-4,4.87-6.48c0.63-1.38,1.35-2.64,2.47-2.24c3.57,1.27,6.57-0.66,9.63-1.5
	c3.59-0.99,6.96-2.91,10.29-4.69c2.54-1.35,4.24,0.37,6.04,1.08c0.28,2.12,0.31,4.18,0.85,6.1c0.85,3.01-2.83,2.39-3.47,4.88
	c1.92,0.4,3.71,0.77,5.47,1.16c-1.72,2.59-1.72,2.59,0.45,3.56c-0.17-1.14-0.34-2.34-0.51-3.54c0.76-0.7,1.51-1.41,2.34-2.18
	c1.68,3.2,2.2,6.35,3.22,9.29c1.37,3.92,3.04,8.03,6.69,10.81c1.13,0.86,2.08,2.47,2.35,3.89c0.88,4.55,1.48,9.17,1.99,13.78
	c0.07,0.61-0.96,1.35-1.63,2.22c0.43,2.43,0.99,5.29,1.43,8.16c0.31,2.06,1.69,3.3,3.85,3.01c6.95-0.94,13.89-1.97,20.84-2.92
	c3.54-0.48,7.05-0.61,10.8,1.89c-1.74,2.45-3.38,4.75-5.16,7.25c1,0.04,2.3,0.09,3.77,0.15c2.58,2.52,1.13,5.94,1.58,8.96
	c0.62,4.14,1.16,8.24,3.86,11.67c-1.56-0.21-3.12-0.43-4.71-0.64c0.21,3.87,2.84,1.69,4.39,2.06c1.04,2.35,2.13,4.69,3.1,7.08
	c0.27,0.66,0.4,1.54,0.2,2.2c-1,3.18-0.35,6.01,0.75,9.12c0.93,2.61,1.07,5.8,0.59,8.55c-0.78,4.4-2.36,8.5-1.65,13.25
	c0.32,2.17-2.11,4.7-3.15,7.13c-1.12,2.64-1.66,5.63-3.22,7.97c-1.46,2.19-4.61,3.37-5.77,5.63c-2.19,4.28-5.45,7.01-9.44,9.33
	c-2.33,1.35-4.21,3.46-6.53,4.84c-3.28,1.96-6.7,3.71-10.17,5.31c-4.4,2.02-8.93,3.72-13.35,5.7c-1.28,0.57-2.3,1.68-3.5,2.45
	c-6.25,3.97-12.79,7.17-19.93,9.41c-6.61,2.07-13.05,4.49-20.08,4.5c-0.32,0-0.7-0.03-0.96,0.12c-7.89,4.45-16.91,2.84-25.3,4.63
	c-3.58,0.76-7.6,0.23-11.29-0.45c-3.51-0.64-6.68,0.06-9.89,0.96c-2.56,0.72-4.98,0.85-7.93,0.06c1.11-2.18,2-3.95,2.78-5.49
	c-2.03,0.2-3.83,0.65-5.58,0.5c-5.25-0.46-10.39-1.27-15.2-3.8c-1.71-0.9-4.02-0.68-6.06-0.87c-1.37-0.13-2.75-0.1-4.24-1.02
	c0.59-0.21,1.17-0.42,1.93-0.69c-1.38-1.4-2.75-2.79-4.33-4.39c-0.34,0.21-0.95,0.57-1.65,0.98c-1.02-1.9-1.54-4.28-4.81-2.34
	c-1.79,1.06-3.43-0.74-4.92-2.35c-2.44-2.65-5.42-4.8-8.2-7.14c-0.23-0.2-0.64-0.41-0.88-0.33c-4.29,1.4-5.16-1.9-7.21-4.48
	c-2.13-2.67-5.18-4.99-8.88-5.8c-0.74-0.16-1.72-0.43-2.07-0.98c-2-3.06-3.91-6.18-5.7-9.36c-1.02-1.81-1.38-4.12-2.71-5.6
	c-2.63-2.92-2.85-7.25-6.39-9.74c-1.59-1.12-2.26-3.8-2.92-5.9c-0.64-2.03-0.19-4.36-2.92-5.44c-0.68-0.27-0.65-2.34-1.01-3.88
	c3.64-1.89,4.25-4.65,2.68-8.36c-0.52-1.23,0.16-3.06,0.54-4.54c0.28-1.07,0.85-2.12,1.5-3.02c5.78-8.03,9.71-17.43,18.22-23.43
	c3.52-2.48,6.32-5.81,10.44-7.69c2.15-0.98,3.44-3.81,5.21-5.71c0.81-0.87,1.87-1.52,3.49-1.8c1.27-4.65,2.54-9.31,3.81-13.96
	c-0.28-0.12-0.55-0.25-0.83-0.37c-0.73,1.82-1.45,3.64-2.18,5.47c-0.32-0.08-0.63-0.16-0.95-0.23c0.33-1.25,0.62-2.51,0.98-3.75
	c1.23-4.28,2.39-8.59,3.78-12.81c0.74-2.25,2.06-4.31,2.81-6.55c0.32-0.95-0.56-2.33-0.19-3.23c2.05-5.15,5.56-9.25,9.97-12.54
	c1.06-0.79,2.22-2.51,3.9-0.78c1.66-1.54,3.71-2.83,4.89-4.67c2.03-3.17,4.99-5.28,7.65-7.73c0.56-0.52,1.73-0.33,2.57-0.61
	c1.44-0.48,3.68-0.71,4.11-1.69c1.39-3.16,4.19-3.19,6.73-3.76c2.5-0.57,4.79-0.83,6.74-3.16c1.19-1.43,4.06-1.61,6.23-2.01
	c2.64-0.49,5.34-0.62,8.16-0.92c-0.34,0.86-0.61,1.54-0.93,2.36c0.69,0.16,1.31,0.29,1.93,0.43c0.28,4.66,3.18,9.14,8.17,10.81
	c-0.16,1.14-0.82,2.9-0.38,3.24c4.39,3.45,6.93,7.8,7.4,13.38c0.01,0.15,0.83,0.22,1.28,0.34c-0.67,1.59-1.34,3.18-2.14,5.05
	C199.86,135.4,199.86,135.4,198.6,131.78z M155.08,216.02c-1.29,4.5-2.51,9.02-3.89,13.49c-0.45,1.46-1.09,2.95-2.02,4.14
	c-3.05,3.91-6.73,7.42-9.28,11.61c-2.33,3.82-5.85,3.6-9.21,4.32c-3.32,0.72-2.66-3.09-4.45-4.18c-0.36-0.22-0.43-0.87-0.75-1.23
	c-3.26-3.71-5.17-7.86-4.62-12.97c0.08-0.76-0.93-2.38-1.22-2.33c-2.71,0.47-2.4-1.79-2.66-3.06c-0.92-4.51-1.54-9.08-2.36-13.61
	c-0.31-1.7-0.44-3.71-1.43-4.96c-2-2.55-1.89-5.32-1.72-8.15c0.15-2.48,0.64-4.95,0.96-7.3c-3.93-1.23-6.04,1.41-8.7,2.3
	c-4.95,1.64-8.5,5.23-11.7,8.99c-2.69,3.15-4.57,6.99-6.8,10.53c-2.9,4.62-3.32,9.71-2.41,14.9c1.66,9.47,6.02,17.7,12.36,24.82
	c9.04,10.17,21.24,19.36,34.86,24.92c3.11,1.27,5.88,3.32,9.45,3.34c0.73,0,1.8,0.45,2.14,1.03c2.11,3.57,5.76,2.6,8.87,3.14
	c3.97,0.69,8.12,0.74,11.92,1.94c7.05,2.25,14,2.75,21.15,0.86c1.06-0.28,2.58-0.52,3.32,0.02c2.35,1.68,4.6,0.61,6.92,0.31
	c3.31-0.43,6.61-3.06,9.98-0.09c0.2,0.17,0.86-0.26,1.32-0.31c3.2-0.35,6.4-0.65,9.59-1.03c1.38-0.16,2.73-0.53,4.1-0.71
	c1.71-0.23,3.44-0.41,5.16-0.52c1.08-0.07,2.3,0.35,3.22-0.03c2.47-1.04,5.18-1.96,7.1-3.71c2.97-2.7,6.41-2.76,9.88-2.85
	c4.19-0.1,6.37-1.09,7.69-4.9c0.59-1.68,1.51-2.21,2.96-2.7c4.57-1.55,9.01-3.57,13.66-4.75c4.66-1.18,7.47-4.27,10.1-7.82
	c1.56-2.11,2.48-4.76,5.54-5.51c0.89-0.22,1.66-1.53,2.2-2.49c2.91-5.26,5.35-10.66,5.13-16.9c-0.06-1.75,0.33-3.52,0.62-5.27
	c0.06-0.35,0.61-0.61,0.96-0.94c0.87,1.21,1.65,2.29,2.63,3.65c1.49-2.31,1.37-3.72-0.19-5.57c-3.03-3.59-3.02-7.46-0.54-10.74
	c-0.81-0.99-1.9-1.85-2.35-2.97c-1.62-3.97-3-8.05-4.53-12.06c-0.54-1.43-0.52-2.49,0.32-4c0.79-1.41,1.17-4.36,0.35-5.11
	c-2.15-1.94-1.24-3.92-1.13-5.94c0.06-0.95,0.55-1.89,0.58-2.84c0.06-2.26-1.87-3.48-3.9-2.42c-2.99,1.56-5.95,3.19-8.83,4.95
	c-0.9,0.55-2.03,1.58-2.1,2.46c-0.24,3.04-2.46,4.35-4.58,5.81c0.05,1.68-0.52,3.69,0.25,4.75c3.05,4.26,1.78,8.43-0.02,12.39
	c-1.64,3.61-3.95,6.93-6.18,10.23c-0.66,0.98-1.92,1.84-3.07,2.16c-3.82,1.06-3.99,1.14-3.89,4.54c-5.26,2.23-10.36,4.39-15.41,6.53
	c-4.38-3.53-5.28-5.71-4.56-10.75c0.09-0.62,0.07-1.27,0.02-1.9c-0.36-4.77,0.05-9.33,1.97-13.88c1.74-4.12,4.65-7.7,5.53-12.23
	c0.19-0.96,1.21-1.87,2.05-2.58c1.83-1.56,3.82-2.94,5.67-4.47c2.42-2.01,4.01-4.42,3.34-7.78c-0.41-2.06-1.19-4.13-1.16-6.19
	c0.07-4.51-2.66-8.83-0.98-13.42c0.88-0.04,1.62-0.08,2.81-0.13c-0.65-3.22-0.8-6.21-1.9-8.79c-1.36-3.19-3.49-6.04-5.32-9.02
	c-1.31-2.13-1.58-6.26,0.21-6.87c2.2-0.74,0.95-2.49,1.94-3.28c0.93,0.04,1.82,0.07,2.7,0.11c-3.93-1.67-1.38-6.73-4.73-8.98
	c-0.48,1.11-0.82,1.91-1.35,3.13c-1.58-0.74-3.33-1.2-4.62-2.23c-3.56-2.85-6.82-3.61-10.34-0.96c-2.9,2.18-5.84,4.9-7.5,8.04
	c-3.35,6.33-8.16,11.78-10.42,18.87c-1.04,3.27-2.59,6.48-3.34,9.96c-0.47,2.18-1.31,4.29-1.97,6.43c-0.83,2.7-2,5.35-2.38,8.11
	c-0.39,2.91,3.03,5.59,0.9,8.82c-0.02,0.02,0.29,0.19,0.33,0.33c0.96,3.49,2.35,6.93,2.67,10.48c0.19,2.09,2.12,5.31-1.73,6.67
	c-0.28,0.1-0.16,1.18-0.33,1.77c-0.34,1.14-0.69,2.28-1.14,3.37c-0.74,1.79-1.69,3.5-2.3,5.33c-0.92,2.76-2.28,4.91-5.3,5.79
	c-0.98,0.29-2.09,1.16-2.55,2.06c-2.65,5.24-7.8,6.22-12.68,7.47c-1.26,0.32-2.84-0.63-4.36-1.02c0.54-1.02,0.89-1.7,1.21-2.32
	c-1.14-0.92-2.07-1.68-2.57-2.08c1.27-3.27,2.34-6.03,3.44-8.89c0.89,0.41,1.86,0.86,2.9,1.34c0.25-0.66,0.35-1.15,0.6-1.53
	c0.23-0.35,0.62-0.6,0.98-0.94c0.75,1.86,2.17,2.2,2.66,0.54c0.83-2.83,1.88-6.05-1.06-8.1c-4.11-0.24-5.88,2.57-7.86,5.17
	c0.21-3.55,0.08-7.09,1.24-10.13c2.19-5.74-0.14-12.32,3.59-17.69c0.27-0.39-0.29-1.26-0.2-1.87c0.74-4.69,0.23-9.43,2.58-14.06
	c2.51-4.96,3.45-10.62,0.72-16.13c-0.36-0.72-0.52-1.54-0.79-2.3c-0.59-1.7-1.02-3.27-0.03-5.11c1-1.85,0.2-3.57-0.88-5.42
	c-1.86-3.17-3.74-6.61-1.29-9.53c-0.44-1.81-0.62-2.97-1.02-4.05c-0.42-1.16-0.78-2.9-1.63-3.25c-3.77-1.56-7.64-3.34-11.62-3.86
	c-5.23-0.69-10.45,1.05-14.64,4.06c-5.19,3.73-10.29,7.7-14.06,13.15c-5.67,8.17-9.96,16.76-10.43,26.91
	c-0.04,0.92-0.58,1.81-0.92,2.71c-0.85,2.24-1.97,4.41-2.54,6.71c-1.11,4.5-0.25,6.09,3.92,8.68c0.52,0.32,0.82,1,1.3,1.4
	c1.98,1.65,3.16,3.78,3.83,6.22c0.01,0.05,0.3,0.02,0.61,0.04c0.64-1.22,1.31-2.5,1.97-3.78c-1.77,3.37,0.82,5.2,2.57,7.06
	c0.88,0.93,2.22,1.28,1.64,3.01c-0.12,0.35,0.38,1.03,0.75,1.4c1.56,1.53,3.18,3,4.98,4.69c0.76-0.14,1.83-0.34,2.83-0.52
	c0.82,2.97,1.59,5.77,2.33,8.47C151.29,210.97,151.04,214.44,155.08,216.02z M127.78,221.3c0.19,2.68,0.62,4.68,0.4,6.61
	c-0.4,3.58,1.17,6.69,4.51,8.06c2.01,0.82,3.71-0.1,5.95-3.69c1.01-1.61,1.67-3.48,2.25-5.3c0.74-2.3,1.25-4.68,1.83-7.02
	c0.37-1.5,1.04-3.02,1-4.52c-0.19-8.93-3.23-16.91-8.57-24c-0.6-0.8-1.75-1.35-2.76-1.64c-1.37-0.4-2.84-0.44-4.28-0.64
	c-1.52,1.19-2.15,2.63-1.67,4.64c0.48,2.03,0.9,4.12,0.92,6.19c0.04,4.36,0.86,8.52,2.33,12.6
	C131.31,217.04,130.89,218.65,127.78,221.3z M246.83,211.73c-4.12,0.66-4.41,3.67-5.65,5.83c1.3,1.83,2.89,3.11,4.19,0.74
	C246.35,216.52,246.33,214.19,246.83,211.73z M295.78,214.92c0.58,1.81,0.93,2.88,1.35,4.18
	C299.36,216.21,299.36,216.21,295.78,214.92z M299.21,180.91c-0.95,1.18-1.46,1.81-2.38,2.95c1.63-0.03,2.51-0.04,3.86-0.07
	C300.14,182.73,299.81,182.08,299.21,180.91z M293.16,181.92c0.01-0.25,0.02-0.5,0.03-0.75c-0.98-0.21-1.96-0.48-2.96-0.55
	c-0.18-0.01-0.42,0.81-0.92,1.86C291.03,182.23,292.1,182.07,293.16,181.92z"/>
</svg>
