<?xml version="1.0" encoding="utf-8"?>
<!-- Generator: Adobe Illustrator 27.4.1, SVG Export Plug-In . SVG Version: 6.00 Build 0)  -->
<svg version="1.1" id="Camada_1" xmlns="http://www.w3.org/2000/svg" xmlns:xlink="http://www.w3.org/1999/xlink" x="0px" y="0px"
	 viewBox="0 0 385.94 394.5" style="enable-background:new 0 0 385.94 394.5;" xml:space="preserve">
<style type="text/css">
	.st0{fill:#FFFFFF;}
</style>
<path d="M130.65,279.88c-1.33,2.34-2.86,3.35-5.26,2.82c-1.06-0.24-2.31-0.4-3.29-0.06c-3.62,1.25-7.14,0.73-10.75,0.02
	c-3.11-0.61-6.27-0.9-9.91-1.39c0.41-1.01,0.67-1.64,1.06-2.61c-5.23-1.13-10.41-2.25-15.87-3.42c0,0-0.41,0.55-1.07,1.45
	c-1.13-4.06-3.04-6.35-7.31-6.27c-3.93,0.08-6.78-1.92-9.12-5.37c-2.14-3.15-5.43-5.49-8.07-8.33c-2.04-2.19-3.64-4.84-5.83-6.86
	c-4.75-4.36-6.37-9.83-6.44-16c0-0.28-0.25-0.73-0.48-0.81c-4.6-1.58-2.04-4.41-1.57-7.2c0.48-2.88,0.58-6.1-0.24-8.85
	c-1.67-5.58-1.75-6.08,1.17-10.75c1.04-1.66,1.63-3.94,1.51-5.89c-0.16-2.81,1-4.52,2.96-6.17c1.44-1.22,2.65-2.72,3.96-4.1
	c0.33-0.35,0.57-0.87,0.97-1.05c2.94-1.34,5.93-2.58,8.87-3.93c1.16-0.53,2.19-1.33,3.33-1.89c3.14-1.55,6.32-3.04,9.66-4.65
	c0.2-0.34,0.48-1.43,1.17-1.85c2.04-1.27,4.25-2.27,6.38-3.39c4.41-2.32,7.65-5.7,10.09-10.09c2.16-3.89,4.82-7.28,8.44-10.3
	c4.1-3.43,8.76-5.5,13.21-8.06c2.57-1.48,5.67-2.28,8.64-2.77c3.17-0.52,4.48,2.44,6.12,4.45c0.86,1.05,1.37,2.39,1.9,3.36
	c2.72-0.14,2.06-3.7,4.69-3.46c0.26,0.02,1.03-1.65,0.96-2.48c-0.27-3.18,0.4-6.3-0.49-9.61c-0.73-2.74,0.6-6.02,1.02-9.16
	c0.86-0.03,1.63-0.05,2.45-0.08c0.44-1.52,0.89-3.06,1.13-3.9c1.08-0.16,2.27-0.22,2.28-0.35c0.19-3.22,2.77-6.2,0.63-9.7
	c-1.17-1.92,1-5.06,3.57-4.94c5.52,0.25,7.18-3.86,8.41-7.65c0.75-2.32,2.01-3.47,3.72-4.63c2.24-1.51,4.51-2.96,6.7-4.54
	c2.98-2.14,5.54-5.03,9.45-5.45c1.29-0.14,2.64,0.31,3.93,1.2c-1.6,0.36-3.2,0.72-5.73,1.29c3.28,1.61,5.3,3.61,8.45,3.26
	c0.83-0.09,1.84,0.52,2.62,1.03c2.62,1.72,4.9,3.99,8.16,4.62c0.58,0.11,1.11,0.63,1.6,1.04c2.35,1.92,4.68,3.86,7.35,6.06
	c0.1,1.72,0.24,4.05,0.37,6.13c1.98,0.96,3.64,1.87,5.37,2.59c3.12,1.3,4.35,3.85,5.42,6.88c0.88,2.48,3.01,4.51,3.97,6.97
	c2,5.1,5.46,10.03,2.84,16c-0.14,0.33,0.08,0.89,0.26,1.28c1.79,3.81,2.16,8.35,6.2,11.49c1.39-0.52,3.05-1.05,4.64-1.74
	c6.6-2.89,13.18-5.8,19.74-8.78c2.02-0.92,3.92-2.1,5.9-3.12c2.36-1.21,4.76-1.82,7.22-0.21c0.22-0.59,0.45-1.18,0.82-2.16
	c0.78,3.36,2.49,2.18,4.39,1.49c-1.36,1.35-2.72,2.71-4.31,4.29c2.64,3.06,5.03,5.82,7.41,8.58c2.94-1.81,6.32-1.32,6.99,1.39
	c0.66,2.64,1.92,4.62,3.63,6.6c0.71,0.82,0.65,2.29,0.94,3.44c5.61,0.86,5.61,0.86,7.1-3.08c2.13-0.47,4.14-0.59,5.86-1.35
	c4.07-1.8,7.39-0.95,10.46,2.08c0.84,0.83,2.19,1.12,3.14,1.87c0.51,0.41,0.68,1.26,1.18,2.28c0.4-0.18,1.2-0.79,2.05-0.86
	c1.02-0.08,2.7-0.73,1.9,1.82c-0.39,1.25,1.36,1.65,4.08,0.8c3.42,4.43,7.01,8.37,12.92,9.38c1.4,0.24,2.61,1.57,4.23,2.62
	c-3.37,2.91-2.62,5.61-0.69,8.44c1.06,1.55,2.52,2.84,2.54,5.13c0,0.82,2.2,1.52,3.25,2.45c3.48,3.09,3.64,4.18,2.27,8.22
	c-0.87,2.57-1.47,5.26-1.94,7.93c-1.04,5.89-4.23,10.75-7.25,15.71c-1.41,2.32-2.78,4.66-4.14,7.01c-0.49,0.84-0.7,2-1.41,2.51
	c-4.61,3.31-7.05,8.72-11.64,11.99c-1.26,0.9-3.01,1.06-4.42,1.79c-5.84,3.02-11.39,6.85-17.53,8.96
	c-4.58,1.57-7.98,5.56-13.09,5.74c-1.09,0.04-2.26,0.41-3.22,0.94c-1.78,0.98-3.43,2.18-5.13,3.29c-2.74-2.19-2.59,1.93-4.33,2
	c-0.77,0.03-1.52,0.47-2.3,0.57c-4.6,0.62-9.21,1.21-13.81,1.78c-5.6,0.69-11.22,1.22-16.79,2.1c-1.99,0.31-3.81,1.67-5.8,2.09
	c-2.15,0.46-4.48,0.13-6.61,0.63c-3.23,0.76-6.29,2.29-9.53,2.88c-3.74,0.69-7.61,0.68-11.41,1.05c-4.62,0.44-9.24,0.93-13.85,1.48
	c-0.93,0.11-1.79,0.81-2.71,0.9c-2.36,0.22-4.74,0.32-7.11,0.31c-1.56-0.01-3.12-0.33-4.68-0.44c-2.02-0.13-4.05-0.26-6.07-0.25
	c-1.81,0.01-3.73,0.65-5.38,0.21c-1.88-0.51-3.39-0.8-4.84,0.68c-0.1,0.11-0.36,0.22-0.44,0.17c-3.28-2.28-7.12-0.65-10.52-1.49
	c-6.22-1.54-12.32-3.43-18.86-2.9C132.38,281.04,131.64,280.35,130.65,279.88z M129.91,159.47c0.28-0.36,0.62-0.68,0.83-1.08
	c0.3-0.58,0.51-1.2,0.76-1.81c-0.27-0.11-0.69-0.38-0.8-0.29c-0.54,0.46-1.25,0.95-1.4,1.56c-0.12,0.49,0.47,1.15,0.75,1.73
	c-3.06-0.38-6.02-0.93-7.15-4.3c-3.53-0.44-6.39,0.79-8.4,3.24c-5.86,7.12-8.52,15.43-8.92,24.63c-0.2,4.6,1.43,9.04,0.64,13.67
	c-0.6,3.52,1.91,5.84,3.9,8.29c0.76,0.94,1.92,2.07,1.88,3.07c-0.16,4.17-0.35,8.4-1.19,12.47c-1.32,6.38-5.66,11.13-9.87,15.79
	c-2.83,3.13-6.44,2.08-7.49-2.01c-0.52-2.02-0.71-4.13-1.28-6.14c-0.53-1.87-1.34-3.66-1.81-4.9c-1.98-2.01-4.78-3.55-5.14-5.54
	c-0.49-2.67-2.13-5.77,0.11-8.64c1.31-1.68,1.59-4.02,0.07-5.39c-2.59-2.34-2.54-5.44-3.38-8.32c-0.06-0.22-0.41-0.37-0.63-0.54
	c-0.36,0.49-0.71,0.98-1.1,1.52c-1.08-0.75-2.05-1.58-3.16-2.12c-0.66-0.32-2.17-0.41-2.25-0.21c-1.2,3.31-4.86,2.43-6.95,4.19
	c-2.47,2.1-5.25,3.86-7.56,6.11c-3.58,3.48-6.06,7.47-5.05,12.94c0.61,3.31,0.26,6.8,0.9,10.1c0.54,2.81,1.73,5.53,2.88,8.18
	c0.7,1.62,2.06,2.94,2.8,4.55c2.62,5.68,6.81,10.27,11.54,13.97c5.12,4.01,10.92,7.49,16.93,9.96c4.45,1.83,9.27,3.39,14.56,2.9
	c4.73-0.44,9.58,0.54,14.39,0.61c2.68,0.04,5.38-0.45,8.05-0.8c2.07-0.27,4.1-0.77,6.17-1.04c3.48-0.44,6.99-0.66,10.45-1.19
	c3.34-0.5,6.66-1.21,9.96-1.94c3.59-0.79,7.16-1.68,10.73-2.58c0.35-0.09,0.59-0.56,0.9-0.83c3.71-3.32,9.07-1.11,13.04-3.87
	c0.73-0.51,2.41,0.35,3.65,0.58c0.15,0.03,0.29,0.08-0.05-0.01c2.21-1.06,4-2.25,5.97-2.8c6.71-1.87,13.46-3.59,20.48-3.85
	c2.18-0.08,4.17,0.86,4.21,3.07c0.04,2.01,1.04,2.06,2.33,2.27c1.01,0.16,2.03,0.28,3.32,0.46c-5.08,5.55-12.11,7.27-18.12,10.98
	c1.24,0.88,2.6,1.79,3.5,1.46c5.18-1.92,10.61-0.73,15.85-1.53c1.11-0.17,2.2-0.48,3.3-0.71c5.37-1.13,10.58-2.55,16.26-2.48
	c6.69,0.08,13.42-0.98,20.07-1.99c4.28-0.65,8.4-2.36,12.67-3.14c9.94-1.8,19.23-5.52,28.47-9.37c2.93-1.22,5.7-3.11,8.16-5.16
	c7.38-6.15,13.32-13.63,18.58-21.61c2.19-3.33,4.42-6.75,4.15-11.18c-0.13-2.15,0.82-3.92,3.53-4.47c1.9-0.39,3.61-1.75,5.99-2.98
	c-1.79-1.58-3.13-2.88-4.58-4.03c-2.16-1.71-4.16-3.4-5.21-6.19c-0.75-2.01-2.4-3.69-3.84-5.79c0.07-0.92,0.18-2.31,0.22-2.84
	c-3.04-1.71-5.47-3.08-7.81-4.4c0.1,0.67,0.23,1.52,0.4,2.68c-3.12-1.32-5.82-3.01-8.71-3.47c-1.51-0.24-2.21-0.78-3.32-1.5
	c-1.98-1.28-4.32-2.25-6.63-2.73c-2.02-0.43-4.12-0.07-5.46,2.19c-0.58,0.98-2,1.47-3.37,2.42c2.29,6.49-2.2,12.09-1.98,19.28
	c1.17,1.09,1.53,3.1,0.27,5.71c-0.88,1.82-0.79,4.11-1.21,6.17c-0.26,1.24-0.42,2.61-1.08,3.64c-2.88,4.55-6.71,8.25-10.68,11.86
	c-2.06,1.87-3.54,4.37-5.34,6.54c-0.47,0.57-1.11,1.28-1.75,1.38c-1.59,0.25-4.76-2.51-4.53-4.16c0.48-3.54-2.88-6.03-2.32-9.51
	c-4.82-5.3-1.37-11.62-2.17-17.42c2.79-6.9,4.51-14.3,10.29-19.73c2.17-2.04,3.67-4.79,5.67-7.47c-0.37-2.83,0.14-6.27-3.59-8.04
	c-0.54-0.26-0.86-1.39-0.92-2.14c-0.31-3.74-0.49-7.49-0.76-11.9c-0.97,1.11-1.74,2.38-2.06,2.28c-2.55-0.83-4.88-0.61-7.27,0.57
	c-0.53,0.26-1.88-0.11-2.2-0.6c-1.86-2.91-4.3-2.18-6.87-1.43c-3.24,0.95-6.93,0.72-9.36,3.72c-0.1,0.12-0.25,0.28-0.38,0.29
	c-4.04,0.03-5.01,2.97-5.77,6.09c-0.57,2.35-1.01,4.74-1.65,7.07c-0.53,1.91,0.17,4.99-3.68,4.16c-0.39-0.08-1.38,1.28-1.61,2.1
	c-0.42,1.51-0.49,3.12-0.68,4.56c-1.63,0.53-3.09,1-4.57,1.48c0.61,1.77,1.53,3.22,1.49,4.65c-0.08,2.74-0.69,5.46-1.1,8.19
	c-0.4,2.63-2.28,4.08-4.59,4.15c-1.35,0.05-2.08-0.05-2.32,1.35c-0.49,2.88-2.59,2.53-4.49,2.08c-2.18-0.52-2.48-2.18-2.14-4.2
	c0.68-3.97,1.23-7.96,1.79-11.95c0.14-0.96,0.2-1.94,0.17-2.9c-0.31-8.55-0.77-17.09-0.92-25.64c-0.08-5.1-0.92-10.17,0.19-15.35
	c0.49-2.26-0.18-5.73-1.71-7.26c-2.69-2.68-3.2-5.91-3.63-9.05c-0.6-4.39-2.44-7.87-5.31-10.63c1.39-3.99-1.15-6.14-2.98-8.99
	c-0.65,1.08-1.03,1.71-1.47,2.44c-1.26-1.33-2.44-2.58-3.61-3.81c2.38-3.22-3.12-4.72-0.89-7.76c-3.14,0.45-3.1,0.53-4.88,2.85
	c-1.04,1.35-2.77,1.32-3.23-0.37c-0.76-2.77-2.49-2.92-4.79-2.85c-1.25,0.04-2.53-0.45-3.77-0.77c-4.41-1.11-10.24,1.9-12.96,5.57
	c-5.6,7.56-3.35,16.79-5.96,24.94c1.6,2.75-0.38,5.37-0.31,8.07c0.07,2.86-1.68,4.21-4.24,4.76c0.14,1.62,0.07,3.08,0.44,4.42
	c0.38,1.38,1.4,2.59,1.77,3.97c0.29,1.09-0.21,2.38,0.07,3.48c0.74,3,1.75,5.94,2.57,8.93c0.3,1.09,0.71,2.28,0.54,3.35
	c-0.89,5.53-0.82,5.43,1.67,9.1c0.77,1.13,1.34,3.6,0.72,4.26c-2.78,2.99-1.41,6.09-0.91,9.2c0.54,3.34,1.76,6.69,1.64,10
	c-0.22,5.57-3.07,10.23-7.06,14.91c-0.84-4.09-3.85-6.8-3.51-10.83c0.08-0.98-0.81-2.06-1.32-3.06c-1.27-2.5-3.61-4.6-2.81-7.87
	c0.09-0.38-0.18-1.1-0.5-1.28c-2.19-1.25-1.89-3.37-2.38-5.41c-1.08-4.42-2.7-8.74-4.44-12.96c-0.87-2.12-2.14-3.91-4.95-4.61
	c-3.12-0.78-5.94-2.74-9.16-4.31C128.37,161.23,129.17,160.38,129.91,159.47z M97.7,223.51c3.35-0.68,4.37-2.13,5.59-8.16
	c-2.31,1.38-4.13,2.47-5.91,3.54C97.51,220.68,97.61,222.07,97.7,223.51z M154.03,137.65c0.48,0.03,0.96,0.05,1.45,0.08
	c0.05-1.63,0.1-3.26,0.15-4.9c-0.31-0.02-0.62-0.04-0.93-0.05C154.47,134.4,154.25,136.03,154.03,137.65z M146.4,125.7
	c-0.38-0.05-0.76-0.1-1.14-0.15c0.07,1.25,0.15,2.49,0.22,3.74c0.21,0,0.42-0.01,0.63-0.01C146.21,128.08,146.31,126.89,146.4,125.7
	z M195.36,267.26c-0.09-0.27-0.19-0.54-0.28-0.81c-0.74,0.27-1.48,0.54-2.22,0.81c0.08,0.24,0.16,0.48,0.24,0.71
	C193.85,267.73,194.61,267.5,195.36,267.26z"/>
</svg>
