<?xml version="1.0" encoding="utf-8"?>
<!-- Generator: Adobe Illustrator 27.4.1, SVG Export Plug-In . SVG Version: 6.00 Build 0)  -->
<svg version="1.1" id="Camada_1" xmlns="http://www.w3.org/2000/svg" xmlns:xlink="http://www.w3.org/1999/xlink" x="0px" y="0px"
	 viewBox="0 0 385.94 394.5" style="enable-background:new 0 0 385.94 394.5;" xml:space="preserve">
<style type="text/css">
	.st0{fill:#FFFFFF;}
</style>
<path d="M226.01,116.33c1.65,0.23,3.31,0.45,5.08,0.69c0.16,1.34,0.45,2.29,0.35,3.2c-0.24,2.1,0.81,3.37,2.46,4.35
	c2.43,1.44,4.03,3.4,5.09,6.14c1.07,2.78,2.65,5.51,4.61,7.73c1.05,1.18,3.37,1.28,5.15,1.75c2.29,0.6,4.87,0.61,6.87,1.71
	c3.27,1.79,5.23,4.64,3.09,8.97c1.9-0.33,3.26-0.57,4.88-0.85c0.7,2.27,1.54,4.31,4.42,4.3c0.54,0,1.05,1.32,1.65,1.98
	c0.57,0.63,1.15,1.55,1.85,1.7c3.87,0.78,6.55,2.78,7.73,6.63c0.23,0.75,0.59,2.05,0.95,2.07c4.35,0.27,4.15,3.88,4.9,6.64
	c0.61,2.25,0.83,4.54,4,4.38c0.35-0.02,0.79,0.42,1.08,0.74c1.59,1.78,3.82,3.35,4.53,5.44c0.68,2,2.72,3.4,2.16,6.18
	c-0.45,2.23,0.5,4.74,2.96,6.45c1.95,1.35,2.37,3.37,1.68,6.3c-0.75,3.22,0.06,7.17,1.27,10.4c1.42,3.78,1.32,6.74-1.14,9.25
	c0.29,1.78,1.04,3.4,0.68,4.71c-1.11,4.02-2.52,7.98-4.05,11.87c-1.05,2.66-2.48,5.18-3.81,7.72c-0.35,0.67-0.99,1.19-1.47,1.8
	c-0.96,1.23-1.96,2.43-2.85,3.71c-1.78,2.55-2.96,6.04-5.38,7.46c-2.48,1.46-4.46,3.37-6.6,5.09c-2.53,2.03-5.61,2.37-8.28,3.71
	c-2.92,1.46-5.75,2.45-8.99,2.8c-10.04,1.1-14.63,0.42-23.4-3.91c-5.76,1.93-11.29,4.21-17.04,5.6c-7.61,1.83-15.38,2.98-23.1,4.35
	c-0.89,0.16-1.87-0.2-2.8-0.29c-0.8-0.07-1.91-0.45-2.36-0.08c-4.89,4.17-10.94,1.7-16.35,2.87c-1.27,0.27-2.92-0.77-4.29-1.42
	c-2.72-1.3-4.52-1.03-7.01,0.98c-0.64,0.51-2.11,0.92-2.56,0.56c-1.7-1.35-4.52-0.21-5.72-2.86c-0.31-0.7-2.35-0.66-3.62-0.87
	c-8.61-1.46-17.15-3.12-25.11-6.97c-3.28-1.59-3.19-1.6-6.59-5.58c-0.91-1.07-2.97-1.15-4.99-1.85c-0.01-0.03-0.08-0.95-0.58-1.41
	c-2.55-2.32-5.96-3.91-6.39-7.93c-3.69-1.38-4.02-5.66-6.77-7.86c-0.46-0.37-0.82-1.23-1.24-1.24c-6.77-0.14-7.51-6.03-9.33-10.37
	c-1.13-2.69-1.68-5.26-4.21-7.25c-1.64-1.29-2.57-3.63-3.49-5.64c-0.66-1.45-1.03-2.77-2.55-3.83c-0.87-0.61-1.03-2.91-0.75-4.3
	c0.29-1.42-0.21-2.21-0.64-3.41c-1.04-2.95-0.94-6.33-2.11-9.2c-1.92-4.74,0.02-8.65,1.84-12.65c1.26-2.78,1.63-5.3,0.47-8.33
	c-0.66-1.73-0.32-4.24,0.42-6.04c1.96-4.76,4.29-9.37,6.67-13.94c0.86-1.66,2.57-2.89,3.37-4.56c0.88-1.86,0.73-4.29,1.83-5.93
	c0.98-1.46,3.06-2.2,4.66-3.23c1.04-0.67,2.53-1.06,3.08-2.01c2.83-4.81,8.01-5.46,12.43-7.53c4.78-2.24,9.8-2.21,14.88-2.13
	c2.67,0.04,4.77-1.24,6.59-3.07c1.6-1.61,3.17-3.23,4.72-4.89c0.55-0.59,1.42-1.34,1.37-1.95c-0.49-6.03,5.88-7.68,7.72-12.21
	c0.25-0.61,1.22-1.14,1.95-1.31c2.83-0.63,4.8-2.19,6.35-4.65c0.71-1.13,2.15-1.91,3.4-2.56c3.11-1.62,6.47-2.81,9.44-4.64
	c5.33-3.27,10.97-4.03,17-3.06c0.47,0.08,1.13,0.26,1.42,0.03c4.42-3.47,7.16,0.15,9.37,2.78c2.69,3.2,6.25,4.43,9.59,6.1
	c1.69-0.28,1.18-3.98,4.29-2.16c-0.57,0.86-1.1,1.66-1.91,2.88c7.22,1.12,12.47,4.96,16.02,11.07
	C225.24,115.74,225.63,116.04,226.01,116.33z M220.53,116.94c-1.76-3.92-5.39-6.01-8.87-7.67c-4.71-2.25-9.88-3.59-14.9-5.17
	c-2.49-0.78-5.16-1.97-7.6-1.7c-9.7,1.06-18.94,3.68-26.6,10.21c-1.47,1.26-2.93,2.55-4.3,3.91c-6.56,6.5-11.78,13.75-13.23,23.2
	c-0.31,1.98-0.03,3.36,1.57,4.65c2.08,1.68,3.82,3.58,4.09,6.57c0.08,0.85,1.7,1.56,2.62,2.33l-0.13-0.17
	c-0.73,3.07-0.16,3.77,2.46,3.17c1.77-0.4,3.57-0.66,5.58-1.02c-0.31,2.25-1.3,4.44-0.65,5.89c1.03,2.3,1.68,4.22,1.61,6.91
	c-0.13,5.06,0.88,10.14,1.35,15.22c0.16,1.75,0.64,3.69,0.11,5.24c-2.46,7.13-4.95,14.27-7.98,21.17c-2.11,4.82-6.03,7.49-11.73,6.5
	c-1.56-0.27-3.18-0.2-4.45-0.27c-0.81-1.34-2.23-2.77-1.93-3.36c1.49-3.02-1.28-3.38-2.52-4.71c-1.95-2.08-4.87-3.93-5.52-6.37
	c-0.89-3.34-2.47-6.18-3.88-9.19c-0.41-0.87-0.93-1.77-1.03-2.7c-0.71-6.41,1.3-13.01-1.39-19.3c-0.27-0.64,0.04-1.62,0.27-2.38
	c1.01-3.37,2.07-6.72,3.15-10.07c1.66-5.12,3.36-10.23,5.02-15.31c-6.96-4.16-18.88-1.16-23.77,3.32
	c-5.84,5.35-8.29,13.04-13.18,19.05c-0.1,0.12-0.14,0.29-0.18,0.45c-1.61,6.2-3.62,12.33-4.7,18.62c-1.22,7.08-0.6,14.4,1.64,21.11
	c1.99,5.94,2.38,12.77,7.47,17.47c0.56,0.52,0.98,1.35,1.16,2.11c0.98,4.02,3.48,7.2,5.64,10.59c1.63,2.56,3.69,4.4,6.61,5.29
	c2.26,0.7,6.49,4.34,7.68,6.46c0.38,0.69,0.66,1.66,1.26,1.97c3.95,2.02,7.38,5.06,11.81,6.12c6.09,1.46,12.17,2.92,18.28,4.25
	c2.62,0.57,5.39,0.5,7.95,1.24c3.95,1.13,8.31-0.09,12.07,2.71c1.4,1.04,4.23,0.72,6.22,0.24c2.03-0.49,3.83-1.93,5.25-2.69
	c1.83,0.93,3.12,2.16,4.3,2.07c3.02-0.23,6.11-0.73,8.94-1.75c1.98-0.71,3.47-0.41,5.4-0.07c1.78,0.31,3.84-1.16,5.81-1.73
	c0.58-0.17,1.45-0.15,1.89,0.18c3.82,2.87,7.3,0.75,10.33-1.15c2.87-1.8,6.11-1.7,9.05-2.96c3.07-1.31,6.36-2.11,9.56-3.08
	c1.33-0.4,2.77-1.13,4.03-0.92c2.64,0.44,4.94,0.29,7.37-1.07c3.94-2.2,8.07-2.67,12.33-0.19c-1.06,2.39-1.81,4.66-3.07,6.59
	c-0.51,0.77-2.49,0.08-2.79,2c-0.15,0.93-1.16,1.72-1.91,2.76c10.84-0.17,17.26-6.9,23.53-13.89c0.22-0.24,0.39-0.52,0.59-0.77
	c1.12-1.49,2.36-2.9,3.34-4.48c3.04-4.91,7-9.56,8.68-14.91c2-6.37,2.12-13.35,2.84-20.09c0.26-2.44-0.74-3.53-3.14-5.23
	c-0.44-0.31-0.96-1.23-0.81-1.51c0.42-0.75,1.18-1.31,1.76-1.89c-1.1-1.13-2.43-2.12-3.25-3.42c-2.32-3.7-4.52-7.47-6.5-11.4
	c-1.4-2.78-1.09-4.7,0.63-6.44c-2.12-1.96-4.07-3.77-6.35-5.87c-0.18,0.18-0.73,0.74-1.63,1.66c-2.07-3.71-4.14-7.23-6.02-10.85
	c-1.89-3.65-2.17-3.75-5.04-0.82c-0.09,0.1-0.31,0.07-0.62,0.13c-2.64-1.82-5.37-3.71-8.29-5.73c-0.44,0.96-0.89,1.52-0.93,2.1
	c-0.31,4.77-0.97,9.56-0.69,14.3c0.32,5.49-0.01,10.59-3.07,15.35c-0.75,1.16-0.76,2.79-1.12,4.2c-0.24,0.92-0.32,1.96-0.8,2.74
	c-2.83,4.67-5.55,9.42-8.69,13.88c-3.46,4.91-12.45,7.16-17.81,4.78c-0.5-0.22-0.7-1.05-1.19-1.37c-3.4-2.3-5.71-6.26-10.36-6.69
	c-0.59-0.06-1.17-1-1.61-1.63c-1.57-2.25-3.1-4.53-4.61-6.81c-1.86-2.81-3.85-5.67-3.79-9.19c0.13-7.5,1.41-14.7,5.97-21.01
	c3.37-4.66,6.25-9.62,11.77-12.35c2.48-1.23,4.43-3.55,6.87-5.57c0.37,0.1,1.5,0.8,2.14,0.49c3.48-1.66,6.88-3.5,10.19-5.48
	c0.58-0.35,1.04-1.9,0.75-2.53c-0.77-1.68-1.89-3.24-3.05-4.71c-1.14-1.44-2.5-2.71-4.11-4.42c1.63-0.53,2.49-0.81,3.66-1.19
	c-5.26-3.08-9.62-6.58-10.81-12.77c-0.1-0.54-1.3-0.87-1.98-1.29L220.53,116.94z M240.31,153.17c-1.93,0.6-3.37,0.94-4.73,1.5
	c-1.63,0.67-3.16,1.6-4.79,2.29c-2.49,1.06-5.26,1.65-7.49,3.08c-5.35,3.44-7.69,8.91-8.56,14.96c-0.49,3.41-1.6,6.82-0.52,10.42
	c0.29,0.97-0.62,2.38-1.14,3.51c-0.96,2.08-0.72,6.29,1.05,7.35c2.99,1.81,6.18,3.43,9.49,4.51c1.86,0.61,3.96-0.04,5.75-1.64
	c3.38-3.01,5.69-6.66,8.12-10.41c1.47-2.27,1.35-5.76,4.59-6.98c0.35-0.13,0.48-2.52,0.05-2.78c-2.4-1.48-1.76-3.83-1.48-5.64
	c0.49-3.22,0.87-6.32,0.37-9.59C240.53,160.62,240.56,157.41,240.31,153.17z M146.78,201.68c2.08-2.54,4.62-4.85,6.18-7.7
	c3.36-6.15,2.01-13.24,3.21-19.84c0.08-0.41-0.3-0.91-0.46-1.37c-2.56-7.19-5.91-13.95-9.8-20.56c-1.63-2.76-2.75-2.06-4.53-1.81
	c-0.28,2.07-0.09,4.03-0.83,5.53c-3.96,7.96-0.47,16.64-2.62,24.74c-0.03,0.11,0.14,0.28,0.23,0.42c1.08,1.71,0.66,3.05-0.34,4.85
	c-3.47,6.26-1.38,11.61,5.22,14.33C144.07,200.69,145.12,201.05,146.78,201.68z M149.59,273.39c-0.02-0.35-0.04-0.69-0.05-1.04
	c-2.41-0.27-5.4-0.14-6.24,0.68C145.67,273.16,147.63,273.28,149.59,273.39z"/>
</svg>
